<?xml version="1.0" encoding="utf-8"?>
<!-- Generator: Adobe Illustrator 25.4.1, SVG Export Plug-In . SVG Version: 6.00 Build 0)  -->
<svg version="1.1" id="Layer_1" xmlns="http://www.w3.org/2000/svg" xmlns:xlink="http://www.w3.org/1999/xlink" x="0px" y="0px"
	 viewBox="0 0 1029.4 1029.4" style="enable-background:new 0 0 1029.4 1029.4;" xml:space="preserve">
<style type="text/css">
	.st0{display:none;}
	.st1{display:inline;}
	.st2{font-family:'IBMPlexMono-Text';}
	.st3{font-size:30px;}
	.st4{fill:none;stroke:#FFFFFF;stroke-width:6;stroke-linecap:round;stroke-miterlimit:10;}
	.st5{fill:none;stroke:#FFFFFF;stroke-width:4;stroke-linecap:round;stroke-miterlimit:10;}
	.st6{fill:none;}
	.st7{fill:#FFFFFF;}
	.st8{fill:#383838;}
	.st9{fill:#231F20;}
</style>
<g id="Layer_1_00000080888531738609519630000010735932857259827608_" class="st0">
	<g id="Layer_1_00000087390913079159240520000015426288044175183019_" class="st1">
		<text transform="matrix(1 0 0 1 32.4 475.9)" class="st2 st3">SPEED</text>
		<text transform="matrix(1 0 0 1 943.0011 476.0201)" class="st2 st3">ALT</text>
	</g>
	<g id="Layer_3" class="st1">
		<g>
			<path d="M241.4,241.4c35.5-35.5,76.8-63.4,122.8-82.8c47.6-20.1,98.2-30.4,150.4-30.4c52.2,0,102.8,10.2,150.4,30.4
				c46,19.5,87.3,47.3,122.8,82.8c27.4,27.4,50.3,58.3,68.2,92.2l141-75.3c-25.4-47.7-57.6-91.3-96.2-129.9
				c-50.1-50.1-108.6-89.5-173.6-117c-67.4-28.5-139-43-212.7-43S369.4-17.1,302,11.4c-65.1,27.5-123.5,66.9-173.6,117
				C89.8,167,57.6,210.5,32.3,258.2l141.2,75.1C191.3,299.5,214.1,268.7,241.4,241.4z"/>
		</g>
		<g>
			<g>
				<polygon points="630.2,504.5 626.2,504.5 626.2,508.5 626.2,549.7 626.2,553.7 630.2,553.7 642.7,553.7 646.7,553.7 
					646.7,549.7 646.7,525 788,525 792,525 792,521 792,508.5 792,504.5 788,504.5 				"/>
				<path d="M792,504.5v4V521v4h-4H646.7v24.8v4h-4h-12.5h-4v-4v-41.2v-4h4H788L792,504.5 M792,496.5h-4H630.2h-4c-4.4,0-8,3.6-8,8
					v4v41.2v4c0,4.4,3.6,8,8,8h4h12.5h4c4.4,0,8-3.6,8-8v-4V533H788h4c4.4,0,8-3.6,8-8v-4v-12.5v-4C800,500,796.4,496.5,792,496.5
					L792,496.5z"/>
			</g>
			<g>
				<polygon points="241.4,504.5 237.4,504.5 237.4,508.5 237.4,521 237.4,525 241.4,525 382.8,525 382.8,549.7 382.8,553.7 
					386.8,553.7 399.2,553.7 403.2,553.7 403.2,549.7 403.2,508.5 403.2,504.5 399.2,504.5 				"/>
				<path d="M403.2,504.5v4v41.2v4h-4h-12.5h-4v-4V525H241.4h-4v-4v-12.5v-4h4h157.9H403.2 M403.2,496.5h-4H241.4h-4
					c-4.4,0-8,3.6-8,8v4V521v4c0,4.4,3.6,8,8,8h4h133.4v16.8v4c0,4.4,3.6,8,8,8h4h12.5h4c4.4,0,8-3.6,8-8v-4v-41.2v-4
					C411.2,500,407.7,496.5,403.2,496.5L403.2,496.5z"/>
			</g>
			<g>
				<polygon points="997,481.9 844.8,481.9 843.5,481.9 842.5,482.7 802.5,511.5 798,514.7 802.5,517.9 842.5,546.7 843.5,547.5 
					844.8,547.5 997,547.5 1001,547.5 1001,543.5 1001,485.9 1001,481.9 				"/>
				<path d="M1001,481.9v4v57.6v4h-4H844.8h-1.3l-1-0.8l-40-28.8l-4.5-3.2l4.5-3.2l40-28.8l1-0.8h1.3H997L1001,481.9 M1001,473.9h-4
					H844.8h-1.3c-1.7,0-3.3,0.5-4.7,1.5l-1,0.8l-40,28.8l-4.5,3.2c-2.1,1.5-3.3,3.9-3.3,6.5s1.2,5,3.3,6.5l4.5,3.2l40,28.8l1,0.8
					c1.4,1,3,1.5,4.7,1.5h1.3H997h4c4.4,0,8-3.6,8-8v-4v-57.6v-4C1009,477.5,1005.4,473.9,1001,473.9L1001,473.9z"/>
			</g>
			<g>
				<path d="M186.9,482.7l-1-0.8h-1.3H32.4h-4v4v57.6v4h4h152.2h1.3l1-0.8l40-28.8l4.5-3.2l-4.5-3.2L186.9,482.7z"/>
				<path d="M185.9,481.9l1,0.8l40,28.8l4.5,3.2l-4.5,3.2l-40,28.8l-1,0.8h-1.3H32.4h-4v-4v-57.6v-4h4h152.2L185.9,481.9
					 M185.9,473.9h-1.3H32.4h-4c-4.4,0-8,3.6-8,8v4v57.6v4c0,4.4,3.6,8,8,8h4h152.2h1.3c1.7,0,3.3-0.5,4.7-1.5l1-0.8l40-28.8
					l4.5-3.2c2.1-1.5,3.3-3.9,3.3-6.5s-1.2-5-3.3-6.5l-4.5-3.2l-40-28.8l-1-0.8C189.2,474.4,187.6,473.9,185.9,473.9L185.9,473.9z"
					/>
			</g>
			<g>
				<path d="M41.5,466.8c-2.4,0-4.2-0.9-5.8-2.9l-2,1.8c1.5,2.1,3.9,3.6,7.6,3.6c4.8,0,7.5-2.4,7.5-6.3c0-2.9-1.4-5.1-5.4-5.8
					l-2.2-0.4c-2.8-0.5-3.7-1.6-3.7-3.4c0-2.3,1.4-3.4,4.1-3.4c2.4,0,4,1,5.1,2.5l1.9-1.8c-1.4-1.9-3.7-3.1-7-3.1
					c-4.4,0-7.1,2-7.1,5.9c0,2.8,1.4,5.1,5.4,5.8l2.3,0.4c2.7,0.5,3.7,1.5,3.7,3.4C45.9,465.4,44.4,466.8,41.5,466.8z"/>
				<path d="M41.6,447.6c3.3,0,5.6,1.2,7,3.1l-1.9,1.8c-1.1-1.5-2.7-2.5-5.1-2.5c-2.7,0-4.1,1.1-4.1,3.4c0,1.8,0.9,2.9,3.7,3.4
					l2.2,0.4c4,0.7,5.4,2.9,5.4,5.8c0,3.9-2.7,6.3-7.5,6.3c-3.7,0-6.1-1.5-7.6-3.6l2-1.8c1.6,2,3.4,2.9,5.8,2.9
					c2.9,0,4.4-1.4,4.4-3.7c0-1.9-1-2.9-3.7-3.4l-2.3-0.4c-4-0.7-5.4-3-5.4-5.8C34.5,449.6,37.2,447.6,41.6,447.6 M41.6,439.6
					c-9,0-15.1,5.6-15.1,13.9c0,2.4,0.5,4.6,1.5,6.6c-2.7,2.7-3.1,7.1-0.8,10.3c3.2,4.5,8.2,7,14.1,7c9.1,0,15.5-5.9,15.5-14.3
					c0-2.8-0.7-5.2-2-7.3c2.2-2.8,2.4-6.8,0.2-9.7C52,441.9,47.2,439.6,41.6,439.6L41.6,439.6z"/>
			</g>
			<g>
				<path d="M55.9,460.2h4.8c4,0,6.1-2.3,6.1-6.1c0-3.8-2.2-6.1-6.1-6.1H53v20.8h2.9V460.2z M55.9,450.4h4.5c2.1,0,3.3,1.1,3.3,3
					v1.4c0,2-1.2,3-3.3,3h-4.5V450.4z"/>
				<path d="M60.7,448c3.9,0,6.1,2.3,6.1,6.1c0,3.8-2.1,6.1-6.1,6.1h-4.8v8.6H53V448H60.7 M55.9,457.8h4.5c2.1,0,3.3-1,3.3-3v-1.4
					c0-1.9-1.2-3-3.3-3h-4.5V457.8 M60.7,440H53c-4.4,0-8,3.6-8,8v20.8c0,4.4,3.6,8,8,8h2.9c4.4,0,8-3.6,8-8v-0.9
					c6.6-1.3,10.9-6.6,10.9-13.8C74.8,445.8,69,440,60.7,440L60.7,440z"/>
			</g>
			<g>
				<polygon points="84,466.5 73.9,466.5 73.9,459.6 83.6,459.6 83.6,457.1 73.9,457.1 73.9,450.5 84,450.5 84,448 71,448 71,468.9 
					71,469 84,469 				"/>
				<path d="M84,448v2.5H73.9v6.6h9.7v2.5h-9.7v6.9H84v2.5H71v-0.1V448H84 M84,440H71c-4.4,0-8,3.6-8,8v20.9v0.1c0,4.4,3.6,8,8,8h13
					c4.4,0,8-3.6,8-8v-2.5c0-1.4-0.4-2.7-1-3.9c0.4-0.9,0.6-2,0.6-3v-2.5c0-1-0.2-2-0.5-2.9c0.6-1.1,0.9-2.4,0.9-3.7V448
					C92,443.6,88.4,440,84,440L84,440z"/>
			</g>
			<g>
				<polygon points="102,466.5 91.9,466.5 91.9,459.6 101.6,459.6 101.6,457.1 91.9,457.1 91.9,450.5 102,450.5 102,448 89,448 
					89,468.9 89,469 102,469 				"/>
				<path d="M102,448v2.5H91.9v6.6h9.7v2.5h-9.7v6.9H102v2.5H89v-0.1V448H102 M102,440H89c-4.4,0-8,3.6-8,8v20.9v0.1
					c0,4.4,3.6,8,8,8h13c4.4,0,8-3.6,8-8v-2.5c0-1.4-0.4-2.7-1-3.9c0.4-0.9,0.6-2,0.6-3v-2.5c0-1-0.2-2-0.5-2.9
					c0.6-1.1,0.9-2.4,0.9-3.7V448C110,443.6,106.4,440,102,440L102,440z"/>
			</g>
			<g>
				<path d="M120.8,458.5c0-6.9-2.5-10.5-7.7-10.5h-6v21h6C118.3,469,120.8,465.3,120.8,458.5z M112.9,466.4h-3v-16h3
					c3.2,0,4.8,2.3,4.8,6.3v3.4C117.7,464.1,116.1,466.4,112.9,466.4L112.9,466.4z"/>
				<path d="M113.1,448c5.2,0,7.7,3.6,7.7,10.5c0,6.8-2.5,10.5-7.7,10.5h-6v-21H113.1 M109.9,466.4h3l0,0c3.2,0,4.8-2.3,4.8-6.3
					v-3.4c0-4-1.6-6.3-4.8-6.3h-3V466.4 M113.1,440h-6c-4.4,0-8,3.6-8,8v21c0,4.4,3.6,8,8,8h6c7.6,0,15.7-4.9,15.7-18.5
					c0-5.2-1.1-9.3-3.4-12.5C122.6,442.1,118.2,440,113.1,440L113.1,440z M109.7,460.8L109.7,460.8L109.7,460.8z"/>
			</g>
			<g>
				<path d="M948.5,463.2h7l1.7,5.8h3.1l-6.3-20.9h-3.9l-6.3,20.9h3L948.5,463.2z M951.8,451.1h0.3l2.7,9.7H949L951.8,451.1z"/>
				<path d="M954,448.1l6.3,20.9h-3.1l-1.7-5.8h-7l-1.7,5.8h-3l6.3-20.9H954 M949,460.8h5.8l-2.7-9.7h-0.3L949,460.8 M954,440.1
					h-3.9c-3.5,0-6.6,2.3-7.7,5.7l-6.3,20.9c-0.7,2.4-0.3,5,1.2,7.1c1.5,2,3.9,3.2,6.4,3.2h3c2,0,3.8-0.7,5.2-1.9
					c1.4,1.2,3.2,1.9,5.2,1.9h3.1c2.5,0,4.9-1.2,6.4-3.2s2-4.7,1.2-7.1l-6.3-20.9C960.6,442.4,957.5,440.1,954,440.1L954,440.1z"/>
			</g>
			<g>
				<polygon points="977.2,466.5 967.4,466.5 967.4,448.1 964.5,448.1 964.5,469 977.2,469 				"/>
				<path d="M967.4,448.1v18.4h9.8v2.5h-12.7v-20.9H967.4 M967.4,440.1h-2.9c-4.4,0-8,3.6-8,8V469c0,4.4,3.6,8,8,8h12.7
					c4.4,0,8-3.6,8-8v-2.5c0-4.4-3.6-8-8-8h-1.8v-10.4C975.4,443.7,971.8,440.1,967.4,440.1L967.4,440.1z"/>
			</g>
			<g>
				<polygon points="986.5,469 989.4,469 989.4,450.6 996.2,450.6 996.2,448.1 979.7,448.1 979.7,450.6 986.5,450.6 				"/>
				<path d="M996.2,448.1v2.5h-6.8V469h-2.9v-18.4h-6.8v-2.5H996.2 M996.2,440.1h-16.5c-4.4,0-8,3.6-8,8v2.5c0,4,3,7.3,6.8,7.9V469
					c0,4.4,3.6,8,8,8h2.9c4.4,0,8-3.6,8-8v-10.5c3.8-0.6,6.8-3.9,6.8-7.9v-2.5C1004.2,443.7,1000.6,440.1,996.2,440.1L996.2,440.1z"
					/>
			</g>
			<g>
				<polygon points="502.2,498.2 498.2,498.2 498.2,502.2 498.2,527.2 498.2,531.2 502.2,531.2 527.2,531.2 531.2,531.2 
					531.2,527.2 531.2,502.2 531.2,498.2 527.2,498.2 				"/>
				<path d="M531.2,498.2v4v25v4h-4h-25h-4v-4v-25v-4h4h25H531.2 M531.2,490.2h-4h-25h-4c-4.4,0-8,3.6-8,8v4v25v4c0,4.4,3.6,8,8,8h4
					h25h4c4.4,0,8-3.6,8-8v-4v-25v-4C539.2,493.8,535.6,490.2,531.2,490.2L531.2,490.2z"/>
			</g>
		</g>
	</g>
	<g id="Layer_2_00000137120510985449027370000000324118422292484517_" class="st1">
		<g>
			<g>
				<polyline class="st4" points="185,185 177.6,177.6 163,163 161.1,161.1 				"/>
				<line class="st5" x1="431.9" y1="45.3" x2="428.3" y2="24.9"/>
				<line class="st4" x1="351.7" y1="66.8" x2="344.6" y2="47.3"/>
				<polyline class="st4" points="283.6,114.6 277.2,103.3 264.2,80.8 262.6,78 				"/>
				<polyline class="st4" points="110.9,281.5 101.9,276.4 83.9,266 81.7,264.7 				"/>
				<line class="st6" x1="66.8" y1="351.7" x2="47.3" y2="344.6"/>
				<line class="st6" x1="982.1" y1="344.6" x2="962.6" y2="351.7"/>
				<polyline class="st4" points="947.7,264.7 945.5,266 927.5,276.4 918.5,281.5 				"/>
				<polyline class="st4" points="766.8,78 765.2,80.8 752.2,103.3 745.8,114.6 				"/>
				<line class="st5" x1="684.8" y1="47.3" x2="677.7" y2="66.8"/>
				<line class="st5" x1="601.1" y1="24.9" x2="597.5" y2="45.3"/>
				<polyline class="st4" points="868.2,161.1 866.4,163 851.8,177.6 844.4,185 				"/>
				<line class="st5" x1="431.9" y1="45.3" x2="428.3" y2="24.9"/>
				<line class="st5" x1="351.7" y1="66.8" x2="344.6" y2="47.3"/>
				<polyline class="st4" points="283.4,113.8 250.9,57.6 246.9,50.7 				"/>
				<polyline class="st4" points="110.9,281.5 101.9,276.4 83.9,266 81.7,264.7 				"/>
				<line class="st6" x1="66.8" y1="351.7" x2="47.3" y2="344.6"/>
				<line class="st6" x1="982.1" y1="344.6" x2="962.6" y2="351.7"/>
				<polyline class="st4" points="947.7,264.7 945.5,266 927.5,276.4 918.5,281.5 				"/>
				<polyline class="st4" points="782.6,50.7 778.5,57.6 746,113.8 				"/>
				<line class="st5" x1="684.8" y1="47.3" x2="677.7" y2="66.8"/>
				<line class="st5" x1="601.1" y1="24.9" x2="597.5" y2="45.3"/>
			</g>
			<polygon class="st7" points="514.7,48.4 537.9,18.1 491.5,18.1 			"/>
			<g>
				<path class="st8" d="M444.4,140.6"/>
			</g>
			<polygon class="st7" points="514.7,48.4 537.9,18.1 491.5,18.1 			"/>
		</g>
		<g>
			<polyline class="st6" points="863.1,882.9 861.3,881.1 846.7,866.5 839.3,859.1 			"/>
			<polyline class="st6" points="179.9,859.1 172.5,866.5 157.9,881.1 156,882.9 			"/>
			<line class="st6" x1="596" y1="1019.2" x2="592.4" y2="998.8"/>
			<line class="st6" x1="679.7" y1="996.8" x2="672.6" y2="977.3"/>
			<polyline class="st6" points="759.6,962.4 758.3,960.2 747.9,942.2 742.8,933.2 			"/>
			<polyline class="st6" points="942.6,779.4 940.4,778.1 922.4,767.7 913.4,762.6 			"/>
			<line class="st6" x1="977" y1="699.5" x2="957.5" y2="692.4"/>
			<line class="st6" x1="40.2" y1="446.6" x2="19.8" y2="443"/>
			<line class="st6" x1="999.4" y1="615.8" x2="979" y2="612.2"/>
			<polyline class="st6" points="1009.6,529.4 1007,529.4 986.3,529.4 975.9,529.4 			"/>
			<line class="st6" x1="40.2" y1="612.2" x2="19.8" y2="615.8"/>
			<line class="st6" x1="999.4" y1="443" x2="979" y2="446.6"/>
			<line class="st6" x1="61.7" y1="692.4" x2="42.2" y2="699.5"/>
			<polyline class="st6" points="105.8,762.6 96.8,767.7 78.8,778.1 76.6,779.4 			"/>
			<polyline class="st6" points="276.4,933.2 271.3,942.2 260.9,960.2 259.6,962.4 			"/>
			<line class="st6" x1="346.6" y1="977.3" x2="339.5" y2="996.8"/>
			<line class="st6" x1="426.8" y1="998.8" x2="423.2" y2="1019.2"/>
			<polyline class="st6" points="863.1,882.9 861.3,881.1 846.7,866.5 839.3,859.1 			"/>
			<polyline class="st6" points="179.9,859.1 172.5,866.5 157.9,881.1 156,882.9 			"/>
			<line class="st6" x1="596" y1="1019.2" x2="592.4" y2="998.8"/>
			<line class="st6" x1="679.7" y1="996.8" x2="672.6" y2="977.3"/>
			<polyline class="st6" points="759.6,962.4 758.3,960.2 747.9,942.2 742.8,933.2 			"/>
			<polyline class="st6" points="942.6,779.4 940.4,778.1 922.4,767.7 913.4,762.6 			"/>
			<line class="st6" x1="977" y1="699.5" x2="957.5" y2="692.4"/>
			<line class="st6" x1="40.2" y1="446.6" x2="19.8" y2="443"/>
			<line class="st6" x1="999.4" y1="615.8" x2="979" y2="612.2"/>
			<polyline class="st6" points="1009.6,529.4 1007,529.4 986.3,529.4 975.9,529.4 			"/>
			<line class="st6" x1="40.2" y1="612.2" x2="19.8" y2="615.8"/>
			<line class="st6" x1="999.4" y1="443" x2="979" y2="446.6"/>
			<line class="st6" x1="61.7" y1="692.4" x2="42.2" y2="699.5"/>
			<polyline class="st6" points="105.8,762.6 96.8,767.7 78.8,778.1 76.6,779.4 			"/>
			<polyline class="st6" points="276.4,933.2 271.3,942.2 260.9,960.2 259.6,962.4 			"/>
			<line class="st6" x1="346.6" y1="977.3" x2="339.5" y2="996.8"/>
			<line class="st6" x1="426.8" y1="998.8" x2="423.2" y2="1019.2"/>
			<g>
				<g>
					<polygon points="628.2,551.7 628.2,506.5 790,506.5 790,523 644.7,523 644.7,551.7 					"/>
					<path class="st7" d="M788,508.5V521H642.7v28.8h-12.5v-41.2L788,508.5 M792,504.5h-4H630.2h-4v4v41.2v4h4h12.5h4v-4V525H788h4
						v-4v-12.5V504.5L792,504.5z"/>
				</g>
				<g>
					<polygon points="384.8,551.7 384.8,523 239.4,523 239.4,506.5 401.2,506.5 401.2,551.7 					"/>
					<path class="st7" d="M399.2,508.5v41.2h-12.5V521H241.4v-12.5H399.2 M403.2,504.5h-4H241.4h-4v4V521v4h4h141.4v24.8v4h4h12.5h4
						v-4v-41.2L403.2,504.5L403.2,504.5z"/>
				</g>
				<g>
					<polygon points="844.2,545.5 801.4,514.7 844.2,483.9 999,483.9 999,545.5 					"/>
					<path class="st7" d="M997,485.9v57.6H844.8l-40-28.8l40-28.8L997,485.9 M1001,481.9h-4H844.8h-1.3l-1,0.8l-40,28.8l-4.5,3.2
						l4.5,3.2l40,28.8l1,0.8h1.3H997h4v-4v-57.6V481.9L1001,481.9z"/>
				</g>
				<g>
					<polygon points="30.4,545.5 30.4,483.9 185.2,483.9 228,514.7 185.2,545.5 					"/>
					<path class="st7" d="M184.6,485.9l40,28.8l-40,28.8H32.4v-57.6H184.6 M185.9,481.9h-1.3H32.4h-4v4v57.6v4h4h152.2h1.3l1-0.8
						l40-28.8l4.5-3.2l-4.5-3.2l-40-28.8L185.9,481.9L185.9,481.9z"/>
				</g>
				<g>
					<rect x="500.2" y="500.2" class="st9" width="29" height="29"/>
					<path class="st7" d="M527.2,502.2v25h-25v-25H527.2 M531.2,498.2h-4h-25h-4v4v25v4h4h25h4v-4v-25V498.2L531.2,498.2z"/>
				</g>
				<g>
					<path d="M33.7,465.7l2-1.8c1.6,2,3.4,2.9,5.8,2.9c2.9,0,4.4-1.4,4.4-3.7c0-1.9-1-2.9-3.7-3.4l-2.3-0.4c-4-0.7-5.4-3-5.4-5.8
						c0-3.9,2.7-5.9,7.1-5.9c3.3,0,5.6,1.2,7,3.1l-1.9,1.8c-1.1-1.5-2.7-2.5-5.1-2.5c-2.7,0-4.1,1.1-4.1,3.4c0,1.8,0.9,2.9,3.7,3.4
						l2.2,0.4c4,0.7,5.4,2.9,5.4,5.8c0,3.9-2.7,6.3-7.5,6.3C37.6,469.3,35.2,467.8,33.7,465.7z"/>
					<path d="M53,468.9V448h7.7c3.9,0,6.1,2.3,6.1,6.1s-2.1,6.1-6.1,6.1h-4.8v8.6L53,468.9L53,468.9z M55.9,457.8h4.5
						c2.1,0,3.3-1,3.3-3v-1.4c0-1.9-1.2-3-3.3-3h-4.5V457.8z"/>
					<path d="M71,468.9V448h13v2.5H73.9v6.6h9.7v2.5h-9.7v6.9H84v2.5H71V468.9z"/>
					<path d="M89,468.9V448h13v2.5H91.9v6.6h9.7v2.5h-9.7v6.9H102v2.5H89V468.9z"/>
					<path d="M107.1,448h6c5.2,0,7.7,3.6,7.7,10.5c0,6.8-2.5,10.5-7.7,10.5h-6V448z M112.9,466.4c3.2,0,4.8-2.3,4.8-6.3v-3.4
						c0-4-1.6-6.3-4.8-6.3h-3v16L112.9,466.4L112.9,466.4z"/>
				</g>
				<g>
					<path d="M957.2,469l-1.7-5.8h-7l-1.7,5.8h-3l6.3-20.9h3.9l6.3,20.9H957.2z M952.1,451.1h-0.3l-2.8,9.7h5.8L952.1,451.1z"/>
					<path d="M964.5,469v-20.9h2.9v18.4h9.8v2.5H964.5z"/>
					<path d="M989.4,450.6V469h-2.9v-18.4h-6.8v-2.5h16.5v2.5H989.4z"/>
				</g>
				<g>
					<line class="st6" x1="491.8" y1="514.7" x2="537.6" y2="514.7"/>
				</g>
				<line class="st6" x1="514.7" y1="501" x2="514.7" y2="529.6"/>
				<g>
					<rect x="500.2" y="500.2" width="29" height="29"/>
					<path class="st7" d="M527.2,502.2v25h-25v-25H527.2 M531.2,498.2h-4h-25h-4v4v25v4h4h25h4v-4v-25V498.2L531.2,498.2z"/>
				</g>
			</g>
		</g>
		<line class="st6" x1="997.2" y1="258.2" x2="856" y2="333.2"/>
	</g>
</g>
<rect x="56.8" y="468.8" width="11.1" height="11.1"/>
<rect x="968.2" y="451.1" width="16.6" height="13.7"/>
<g>
	<path class="st6" d="M37.9,455.1c0.3,0.5,0.8,0.9,1.5,1.2C38.7,456,38.2,455.6,37.9,455.1z"/>
	<polygon class="st6" points="382.8,525 382.7,525 382.7,549.7 382.7,553.7 382.8,553.7 382.8,549.7 	"/>
	<path class="st6" d="M41.2,456.8l2.2,0.4c0.6,0.1,1.1,0.2,1.6,0.4v0c-0.5-0.2-1-0.3-1.6-0.4L41.2,456.8z"/>
	<path class="st6" d="M37.5,453.4c0,0.5,0.1,0.9,0.2,1.2C37.6,454.3,37.5,453.9,37.5,453.4L37.5,453.4z"/>
	<path class="st6" d="M36.9,465.2c0.6,0.5,1.3,0.9,2.1,1.2C38.3,466.1,37.6,465.7,36.9,465.2z"/>
	<polygon class="st6" points="186.9,482.7 185.9,481.9 184.6,481.9 32.4,481.9 28.4,481.9 28.4,481.9 32.4,481.9 184.6,481.9 
		185.9,481.9 186.9,482.7 226.9,511.5 229.4,513.3 229.4,513.3 226.9,511.5 	"/>
	<path class="st6" d="M41.6,447.6c1.3,0,2.4,0.2,3.4,0.5v0C44,447.8,42.9,447.6,41.6,447.6c-4.4,0-7.1,2-7.1,5.9v0
		C34.5,449.6,37.2,447.6,41.6,447.6z"/>
	<path class="st6" d="M112.9,450.4c3.2,0,4.8,2.3,4.8,6.3v0C117.7,452.7,116.1,450.4,112.9,450.4l-2.9,0v0H112.9z"/>
	<path class="st6" d="M62.1,473.9h2.6c-0.6-0.7-1-1.5-1.3-2.4C63.1,472.4,62.6,473.2,62.1,473.9z"/>
	<path class="st6" d="M975.4,457.3v1.2h1.8c0.4,0,0.9,0,1.3,0.1v-0.1C977.4,458.3,976.3,457.9,975.4,457.3z"/>
	<path class="st6" d="M45,465.6L45,465.6c-0.7,0.8-1.9,1.2-3.5,1.2c-0.9,0-1.7-0.1-2.5-0.4c0.8,0.3,1.6,0.4,2.5,0.4
		C43.1,466.8,44.3,466.4,45,465.6z"/>
	<polygon class="st6" points="630.2,553.7 626.2,553.7 626.2,553.8 630.2,553.8 642.7,553.8 646.7,553.8 646.7,553.7 642.7,553.7 	
		"/>
	<path d="M241.4,241.4c35.5-35.5,76.8-63.4,122.8-82.8c47.6-20.1,98.2-30.4,150.4-30.4c52.2,0,102.8,10.2,150.4,30.4
		c46,19.5,87.3,47.3,122.8,82.8c27.4,27.4,50.3,58.3,68.2,92.2l141-75.3c-25.4-47.7-57.6-91.3-96.2-129.9
		c-50.1-50.1-108.6-89.5-173.6-117c-9.7-4.1-19.4-7.9-29.3-11.4H331.3c-9.8,3.5-19.6,7.3-29.3,11.4c-65.1,27.5-123.5,66.9-173.6,117
		C89.8,167,57.6,210.5,32.3,258.2l141.2,75.1C191.3,299.5,214.1,268.7,241.4,241.4z"/>
	<path d="M792,504.5l-4,0.1H630.2h-4v3.9v0.1v41.1v0.1v3.9h4h12.5h4v-3.9v-0.1V525H788h4v-4v-1c-1.3-1.4-2-3.3-2-5.3s0.7-3.9,2-5.3
		v-0.9V504.5z"/>
	<path d="M793.3,521.2c-0.5-0.3-0.9-0.7-1.3-1.2v1v4h-4H646.7v24.7v0.1v3.9v0.1h-4h-12.5h-4v-0.1v-3.9v-0.1v-41.1v-0.1v-3.9v-0.1h4
		H788h4v4v0.9c0.4-0.4,0.8-0.8,1.3-1.2l4.5-3.2l2.1-1.5c-0.5-4-3.9-7-7.9-7h-4H630.2h-4c-4.4,0-8,3.6-8,8v4v41.2v4c0,4.4,3.6,8,8,8
		h4h12.5h4c4.4,0,8-3.6,8-8v-4V533H788h4c4.1,0,7.5-3.1,7.9-7.1l-2.1-1.5L793.3,521.2z"/>
	<polygon points="788,504.6 792,504.5 788,504.5 630.2,504.5 626.2,504.5 626.2,504.6 630.2,504.6 	"/>
	<path d="M237.4,520v1v4h4h141.3h0.1v24.7v4h3.9h0.1h12.4h4v-4v-41.2v-4h-3.9h-0.1H241.4h-4v4v0.9c1.3,1.4,2,3.3,2,5.3
		S238.7,518.6,237.4,520z"/>
	<rect x="230.4" y="512.8" width="0" height="2.5"/>
	<path d="M403.2,496.5h-4H241.4h-4c-4.1,0-7.4,3.1-7.9,7l2.1,1.5l4.5,3.2c0.5,0.3,0.9,0.7,1.3,1.2v-0.9v-4h4h157.8h0.1h3.9v4v41.2v4
		h-4h-12.4h-0.1h-3.9h-0.1v-4V525H241.4h-4v-4v-1c-0.4,0.4-0.8,0.8-1.3,1.2l-4.5,3.2l-2.1,1.5c0.5,4,3.9,7.1,7.9,7.1h4h133.4v16.8v4
		c0,4.4,3.6,8,8,8h4h12.5h4c4.4,0,8-3.6,8-8v-4v-41.2v-4C411.2,500,407.7,496.5,403.2,496.5z"/>
	<polygon points="802.5,517.9 842.5,546.7 843.5,547.5 844.8,547.5 997,547.5 1001,547.5 1001,543.5 1001,485.9 1001,481.9 
		997,481.9 844.8,481.9 843.5,481.9 842.5,482.7 802.5,511.5 800,513.3 800,516.1 	"/>
	<polygon points="800,516.1 800,513.3 798,514.7 	"/>
	<path d="M1001,473.9h-4h-1.3c-1.5,1.9-3.7,3.1-6.3,3.1h-2.9c-1.7,0-3.3-0.6-4.6-1.5c-1.3,0.9-2.9,1.5-4.7,1.5h-12.7
		c-0.7,0-1.5-0.1-2.2-0.3c-0.7,0.2-1.4,0.3-2.1,0.3h-3.1c-2,0-3.8-0.7-5.2-1.9c-1.4,1.2-3.2,1.9-5.2,1.9h-3c-2.5,0-4.8-1.2-6.3-3.1
		h-92.6h-1.3c-1.7,0-3.3,0.5-4.7,1.5l-1,0.8l-37.9,27.3c0,0.3,0.1,0.7,0.1,1v4v4.8l2.5-1.8l40-28.8l1-0.8h1.3H997h4v4v57.6v4h-4
		H844.8h-1.3l-1-0.8l-40-28.8l-2.5-1.8v4.9v4c0,0.3,0,0.6-0.1,0.9l37.9,27.3l1,0.8c1.4,1,3,1.5,4.7,1.5h1.3H997h4c4.4,0,8-3.6,8-8
		v-4v-57.6v-4C1009,477.5,1005.4,473.9,1001,473.9z"/>
	<path d="M792,520v-10.6c-1.3,1.4-2,3.3-2,5.3S790.7,518.6,792,520z"/>
	<path d="M800,521v-4.9l-2-1.4l2-1.4v-4.8v-4c0-0.4,0-0.7-0.1-1l-2.1,1.5l-4.5,3.2c-0.5,0.3-0.9,0.7-1.3,1.2V520
		c0.4,0.4,0.8,0.8,1.3,1.2l4.5,3.2l2.1,1.5c0-0.3,0.1-0.6,0.1-0.9V521z"/>
	<polygon points="844.8,481.9 997,481.9 1001,481.9 997,481.9 844.8,481.9 843.5,481.9 842.5,482.7 843.5,481.9 	"/>
	<polygon points="184.6,547.5 185.9,547.5 186.9,546.7 226.9,517.9 229.4,516.1 229.4,513.3 226.9,511.5 186.9,482.7 185.9,481.9 
		184.6,481.9 32.4,481.9 28.4,481.9 28.4,485.9 28.4,485.9 28.4,543.5 28.4,543.5 28.4,547.5 32.4,547.5 	"/>
	<polygon points="229.4,516.1 231.4,514.7 229.4,513.3 	"/>
	<path d="M229.4,521v-4.9l-2.5,1.8l-40,28.8l-1,0.8h-1.3H32.4h-4v0v-4v0v-57.6v0v-4v0h4h152.2l1.3,0l1,0.8l40,28.8l2.5,1.8v-4.8v-4
		c0-0.3,0-0.7,0.1-1l-37.9-27.3l-1-0.8c-1.4-1-3-1.5-4.7-1.5h-1.3h-62c-2.8,2.2-6.2,3.1-9.5,3.1h-6c-0.9,0-1.7-0.2-2.5-0.4
		c-0.8,0.3-1.7,0.4-2.5,0.4H89c-0.9,0-1.7-0.1-2.5-0.4c-0.8,0.3-1.6,0.4-2.5,0.4H71c-2.6,0-4.8-1.2-6.3-3.1h-2.6
		c-1.5,1.8-3.7,2.9-6.2,2.9H53c-1.4,0-2.8-0.4-4-1.1c-2.2,1.1-4.8,1.7-7.7,1.7c-4.1,0-7.8-1.2-10.7-3.5h-2.2c-4.4,0-8,3.6-8,8v4
		v57.6v4c0,4.4,3.6,8,8,8h4h152.2h1.3c1.7,0,3.3-0.5,4.7-1.5l1-0.8l37.9-27.3c0-0.3-0.1-0.6-0.1-0.9V521z"/>
	<path d="M239.4,514.7c0-2-0.7-3.9-2-5.3V520C238.7,518.6,239.4,516.7,239.4,514.7z"/>
	<path d="M236.1,521.2c0.5-0.3,0.9-0.7,1.3-1.2v-10.6c-0.4-0.4-0.8-0.8-1.3-1.2l-4.5-3.2l-2.1-1.5c0,0.3-0.1,0.7-0.1,1v4v4.8l2,1.4
		h0l0,0l-2,1.4v4.9v4c0,0.3,0,0.6,0.1,0.9l2.1-1.5L236.1,521.2z"/>
	<polygon points="226.9,517.9 186.9,546.7 185.9,547.5 184.6,547.5 32.4,547.5 28.4,547.5 28.4,547.5 32.4,547.5 184.6,547.5 
		185.9,547.5 186.9,546.7 226.9,517.9 229.4,516.1 229.4,516.1 	"/>
	<rect x="229.2" y="515.4" transform="matrix(0.815 -0.5795 0.5795 0.815 -256.0605 228.8994)" width="2.5" height="0"/>
	<path d="M45,468.7v-3.1c-0.7,0.8-1.9,1.2-3.5,1.2c-0.9,0-1.7-0.1-2.5-0.4s-1.4-0.7-2.1-1.2c-0.4-0.4-0.8-0.8-1.2-1.3l-2,1.8
		c0.2,0.3,0.4,0.5,0.6,0.8c1.5,1.7,3.8,2.8,7,2.8C42.7,469.3,44,469.1,45,468.7z"/>
	<path d="M39.9,459.3l2.3,0.4c1.3,0.2,2.2,0.6,2.8,1.1v-3.2c-0.5-0.2-1-0.3-1.6-0.4l-2.2-0.4c-0.7-0.1-1.3-0.3-1.8-0.5
		c-0.7-0.3-1.2-0.7-1.5-1.2c-0.1-0.2-0.2-0.3-0.2-0.5c-0.1-0.4-0.2-0.8-0.2-1.2l0,0v0c0-0.6,0.1-1.1,0.3-1.5
		c0.1-0.2,0.2-0.4,0.3-0.6c0.4-0.5,1-0.9,1.7-1.1c0.5-0.1,1.1-0.2,1.8-0.2c1.4,0,2.5,0.3,3.4,0.9v-2.8c-1-0.3-2.1-0.5-3.4-0.5
		c-4.4,0-7.1,2-7.1,5.9C34.5,456.3,35.9,458.6,39.9,459.3z"/>
	<path d="M46.8,473.9c-1.2-1.4-1.8-3.2-1.8-5.1v-0.1c-1,0.4-2.3,0.6-3.7,0.6c-3.2,0-5.5-1.1-7-2.8c-0.2-0.2-0.4-0.5-0.6-0.8l2-1.8
		c0.4,0.5,0.8,0.9,1.2,1.3c0.6,0.5,1.3,0.9,2.1,1.2c0.8,0.3,1.6,0.4,2.5,0.4c1.6,0,2.8-0.4,3.5-1.2v-4.8c-0.6-0.5-1.5-0.9-2.8-1.1
		l-2.3-0.4c-4-0.7-5.4-3-5.4-5.8l0,0v0c0-3.9,2.7-5.9,7.1-5.9c1.3,0,2.4,0.2,3.4,0.5V448c0-2.9,1.6-5.5,3.9-6.9
		c-2.2-1-4.7-1.5-7.3-1.5c-9,0-15.1,5.6-15.1,13.9c0,2.4,0.5,4.6,1.5,6.6c-2.7,2.7-3.1,7.1-0.8,10.3c1,1.4,2.1,2.5,3.4,3.5h1.8H46.8
		z"/>
	<path d="M39.8,450.2c-0.8,0.2-1.3,0.6-1.7,1.1c-0.1,0.2-0.2,0.4-0.3,0.6c-0.2,0.4-0.3,0.9-0.3,1.5c0,0.5,0.1,0.9,0.2,1.2
		c0.1,0.2,0.1,0.4,0.2,0.5c0.3,0.5,0.8,0.9,1.5,1.2c0.5,0.2,1.1,0.4,1.8,0.5l2.2,0.4c0.6,0.1,1.1,0.2,1.6,0.4v-6.7
		c-0.9-0.6-2-0.9-3.4-0.9C40.9,450,40.3,450.1,39.8,450.2z"/>
	<path d="M49,475.7c-0.8-0.5-1.6-1.1-2.2-1.8H32.4h-1.8c2.9,2.3,6.6,3.5,10.7,3.5C44.2,477.4,46.8,476.8,49,475.7z"/>
	<path d="M42.2,459.7l-2.3-0.4c-4-0.7-5.4-3-5.4-5.8l0,0c0,2.8,1.4,5.1,5.4,5.8L42.2,459.7c1.3,0.2,2.2,0.6,2.8,1.1v0
		C44.4,460.3,43.5,459.9,42.2,459.7z"/>
	<path d="M41.3,469.3c-3.2,0-5.5-1.1-7-2.8C35.8,468.2,38.1,469.3,41.3,469.3c1.4,0,2.7-0.2,3.7-0.6v0
		C44,469.1,42.7,469.3,41.3,469.3z"/>
	<path d="M39.8,450.2c-0.8,0.2-1.3,0.6-1.7,1.1C38.5,450.8,39.1,450.4,39.8,450.2z"/>
	<path d="M37.5,453.4L37.5,453.4c0-0.6,0.1-1.1,0.3-1.5C37.6,452.3,37.5,452.8,37.5,453.4z"/>
	<path d="M60.4,450.4c1.2,0,2,0.3,2.6,1v-3c-0.3-0.1-0.6-0.2-0.9-0.2c-0.4-0.1-0.9-0.1-1.4-0.1H56c0.3,0.8,0.5,1.6,0.5,2.4H60.4z"/>
	<path d="M60.4,457.8h-4.5v-3.9c-0.3,0.7-0.6,1.3-1.1,1.9c0.8,1.3,1.4,2.8,1.7,4.4h4.2c0.9,0,1.6-0.1,2.3-0.3v-3
		C62.4,457.5,61.6,457.8,60.4,457.8z"/>
	<path d="M55.9,468.2c-0.1,0.2-0.1,0.4-0.2,0.6h0.2V468.2z"/>
	<path d="M55.9,460.2h0.6c-0.3-1.6-0.9-3.1-1.7-4.4c0.5-0.6,0.8-1.2,1.1-1.9v-3.5h0.6c0-0.8-0.2-1.6-0.5-2.4h-3v20.8h2.7
		c0.1-0.2,0.1-0.4,0.2-0.6V460.2z"/>
	<path d="M60.4,457.8c1.2,0,2-0.3,2.6-0.9v-5.5c-0.6-0.6-1.4-1-2.6-1h-3.9c0.1,1.2-0.2,2.4-0.6,3.5v3.9H60.4z"/>
	<path d="M48,450c-0.8-0.8-1.8-1.5-3-1.9v0C46.2,448.5,47.2,449.2,48,450z"/>
	<path d="M47.6,459.3c-0.4-0.5-1-0.9-1.7-1.3C46.6,458.3,47.2,458.8,47.6,459.3z"/>
	<path d="M63,469v-0.1v-9c-0.7,0.2-1.4,0.3-2.3,0.3h-4.2c0.2,0.9,0.3,1.9,0.3,2.9c0,1.8-0.3,3.6-0.9,5.1v0.6h-0.2
		c-0.8,2-2.2,3.7-3.8,5.1h10.2c0.6-0.7,1-1.5,1.4-2.4C63.1,470.7,63,469.9,63,469z"/>
	<path d="M48.1,460.1c0.2,0.4,0.4,0.9,0.5,1.4C48.5,461,48.4,460.5,48.1,460.1z"/>
	<path d="M45.4,457.7c-0.1,0-0.3-0.1-0.4-0.1v0C45.1,457.7,45.3,457.7,45.4,457.7z"/>
	<path d="M45.9,463.1L45.9,463.1c0,1-0.3,1.9-0.9,2.5v0C45.6,465,45.9,464.1,45.9,463.1z"/>
	<path d="M48.8,463c0-0.4,0-0.7-0.1-1.1C48.8,462.3,48.8,462.6,48.8,463L48.8,463z"/>
	<path d="M55,446.1c0.4,0.6,0.8,1.2,1,1.9h4.7c0.5,0,0.9,0,1.4,0.1c0.3,0.1,0.6,0.1,0.9,0.2V448c0-2.9,1.5-5.4,3.8-6.8
		c-1.8-0.8-3.9-1.2-6.1-1.2H53c-1.5,0-2.9,0.4-4.1,1.1C51.3,442.2,53.4,443.9,55,446.1z"/>
	<path d="M49,475.7c1.2,0.7,2.5,1.1,4,1.1h2.9c2.5,0,4.7-1.1,6.2-2.9H51.9C51,474.6,50.1,475.2,49,475.7z"/>
	<path d="M45,460.8c0.6,0.6,0.9,1.3,0.9,2.3l0,0v0c0,1-0.3,1.9-0.9,2.5v3.1c0.5-0.2,0.9-0.4,1.3-0.7c0.4-0.2,0.7-0.5,1-0.8
		c1-1.1,1.5-2.5,1.5-4.2c0-0.4,0-0.7-0.1-1.1c0-0.2-0.1-0.3-0.1-0.5c-0.1-0.5-0.3-0.9-0.5-1.4c-0.2-0.3-0.3-0.5-0.5-0.8
		c-0.4-0.5-1-0.9-1.7-1.3c-0.2-0.1-0.4-0.2-0.5-0.2c-0.1,0-0.3-0.1-0.4-0.1V460.8z"/>
	<path d="M45,450.9c0.7,0.4,1.2,1,1.7,1.6l1.9-1.8c-0.2-0.2-0.4-0.5-0.6-0.7c-0.8-0.8-1.8-1.5-3-1.9V450.9z"/>
	<path d="M45,460.8v4.8c0.6-0.6,0.9-1.5,0.9-2.5C45.9,462.1,45.6,461.4,45,460.8z"/>
	<path d="M56.5,450.4h-0.6v3.5C56.4,452.8,56.6,451.6,56.5,450.4z"/>
	<path d="M55.9,468.2c0.6-1.6,0.9-3.3,0.9-5.1c0-1-0.1-2-0.3-2.9h-0.6V468.2z"/>
	<path d="M45,448v0.1c1.2,0.4,2.2,1.1,3,1.9c0.2,0.2,0.4,0.4,0.6,0.7l-1.9,1.8c-0.5-0.6-1-1.2-1.7-1.6v6.7c0.1,0,0.3,0.1,0.4,0.1
		c0.2,0.1,0.4,0.2,0.5,0.2c0.7,0.4,1.2,0.8,1.7,1.3c0.2,0.2,0.4,0.5,0.5,0.8c0.2,0.4,0.4,0.9,0.5,1.4c0,0.2,0.1,0.3,0.1,0.5
		c0,0.3,0.1,0.7,0.1,1.1l0,0v0c0,1.7-0.5,3.1-1.5,4.2c-0.3,0.3-0.6,0.6-1,0.8c-0.4,0.3-0.9,0.5-1.3,0.7v0.1c0,1.9,0.7,3.7,1.8,5.1h5
		c1.7-1.4,3-3.1,3.8-5.1H53V448h3c-0.3-0.7-0.6-1.3-1-1.9c-1.6-2.2-3.7-3.9-6.1-5C46.6,442.5,45,445.1,45,448z"/>
	<path d="M46.8,473.9c0.6,0.7,1.3,1.3,2.2,1.8c1-0.5,2-1.1,2.8-1.8H46.8z"/>
	<path d="M48.8,463L48.8,463c0,1.7-0.5,3.1-1.5,4.2C48.3,466.1,48.8,464.7,48.8,463z"/>
	<path d="M47.3,467.2c-0.3,0.3-0.6,0.6-1,0.8C46.7,467.8,47,467.5,47.3,467.2z"/>
	<path d="M45.9,463.1L45.9,463.1c0-1-0.3-1.7-0.9-2.3v0C45.6,461.4,45.9,462.1,45.9,463.1z"/>
	<path d="M45,468.7L45,468.7c0.5-0.2,0.9-0.4,1.3-0.7C45.9,468.3,45.5,468.5,45,468.7z"/>
	<path d="M63,448.3c-0.3-0.1-0.6-0.2-0.9-0.2C62.4,448.2,62.7,448.3,63,448.3L63,448.3z"/>
	<path d="M81,450.5V448h-7.4c0.3,0.8,0.6,1.6,0.8,2.5H81z"/>
	<path d="M71,469h10v-0.1v-2.4h-7.1v-6.9H81v-2.5h-6.5c-0.5,2.8-1.7,5.2-3.5,7v4.8V469z"/>
	<path d="M74.5,457.1h-0.6v-6.6h0.5c-0.2-0.9-0.5-1.7-0.8-2.5H71v16.1C72.8,462.3,74,459.9,74.5,457.1z"/>
	<path d="M74.8,454.1c0,1-0.1,2-0.3,3H81v-6.6h-6.6C74.7,451.6,74.8,452.8,74.8,454.1z"/>
	<path d="M81,469H71v-0.1v-4.8c-1.8,1.9-4.2,3.2-7.1,3.8v0.9c0,1-0.2,1.9-0.5,2.7c0.3,0.9,0.7,1.7,1.3,2.4h18
		C81.6,472.5,81,470.8,81,469z"/>
	<rect x="73.9" y="459.6" width="7.1" height="6.9"/>
	<path d="M73.6,448H81c0-3.5,2.3-6.5,5.5-7.6c-0.8-0.3-1.6-0.4-2.5-0.4H71c-1.5,0-3,0.4-4.2,1.2C69.9,442.5,72.3,444.9,73.6,448z"/>
	<path d="M82.7,473.9h-18c1.5,1.9,3.7,3.1,6.3,3.1h13c0.9,0,1.7-0.1,2.5-0.4C85,476.1,83.7,475.1,82.7,473.9z"/>
	<path d="M63,451.4c0.4,0.5,0.7,1.2,0.7,2v1.4c0,0.9-0.3,1.6-0.7,2.1v3c0.1,0,0.2,0,0.3-0.1c0.8-0.3,1.4-0.7,1.9-1.2
		c1-1,1.5-2.6,1.5-4.5c0-1.4-0.3-2.6-0.9-3.6c-0.4-0.6-0.9-1.2-1.6-1.6c-0.4-0.3-0.9-0.4-1.3-0.6V451.4z"/>
	<path d="M63,448v0.3c0.5,0.2,0.9,0.3,1.3,0.6c0.6,0.4,1.2,0.9,1.6,1.6c0.6,1,0.9,2.2,0.9,3.6c0,1.9-0.5,3.4-1.5,4.5
		c-0.5,0.5-1.2,0.9-1.9,1.2c-0.1,0-0.2,0.1-0.3,0.1v9v0.1c0,0.9,0.1,1.7,0.4,2.5c0.3-0.8,0.5-1.8,0.5-2.7v-0.9
		c2.9-0.6,5.3-1.9,7.1-3.8V448h2.6c-1.3-3.1-3.7-5.5-6.8-6.8C64.5,442.6,63,445.1,63,448z"/>
	<path d="M74.4,450.5h-0.5v6.6h0.6c0.2-1,0.3-2,0.3-3C74.8,452.8,74.7,451.6,74.4,450.5z"/>
	<path d="M63.7,454.8v-1.4c0-0.8-0.3-1.5-0.7-2v5.5C63.4,456.4,63.7,455.7,63.7,454.8z"/>
	<path d="M65.9,450.5c-0.4-0.6-0.9-1.2-1.6-1.6C65,449.3,65.5,449.9,65.9,450.5z"/>
	<path d="M65.2,458.6c-0.5,0.5-1.2,0.9-1.9,1.2C64.1,459.5,64.7,459.1,65.2,458.6z"/>
	<path d="M64.3,448.9c-0.4-0.3-0.9-0.4-1.3-0.6l0,0C63.5,448.5,63.9,448.7,64.3,448.9z"/>
	<path d="M91.9,451.7c-0.1,0.9-0.4,1.7-0.8,2.5c0.3,0.9,0.5,1.9,0.5,2.9v2.5c0,1-0.2,2.1-0.6,3c0.4,0.9,0.7,1.8,0.9,2.7v-5.7h7.2
		v-2.5h-7.2V451.7z"/>
	<rect x="92" y="466.5" width="7.1" height="2.5"/>
	<rect x="92" y="448" width="7.1" height="2.5"/>
	<path d="M91.9,466.5v-1.2c-0.2-1-0.5-1.9-0.9-2.7c0.4-0.9,0.6-2,0.6-3v-2.5c0-1-0.2-2-0.5-2.9c0.4-0.8,0.7-1.6,0.8-2.5v-1.2H92V448
		h-3v20.9v0.1h3L91.9,466.5L91.9,466.5z"/>
	<rect x="109.9" y="450.4" width="0.1" height="0"/>
	<path d="M99.1,469H92c0,1.8-0.6,3.5-1.7,4.9h10.5C99.7,472.5,99.1,470.8,99.1,469z"/>
	<rect x="107.1" y="448" width="0" height="21"/>
	<path d="M92,448h7.1c0-3.5,2.3-6.5,5.5-7.6c-0.8-0.3-1.7-0.4-2.5-0.4H89c-0.9,0-1.7,0.1-2.5,0.4C89.7,441.5,92,444.5,92,448z"/>
	<path d="M91.9,465.3c0.1,0.4,0.1,0.8,0.1,1.2h7.1v-6.9h-7.2V465.3z"/>
	<path d="M91.9,451.7v5.4h7.2v-6.6H92C92,450.9,92,451.3,91.9,451.7z"/>
	<path d="M100.8,473.9H90.3c-1,1.2-2.3,2.2-3.8,2.7c0.8,0.3,1.6,0.4,2.5,0.4h13c0.9,0,1.7-0.2,2.5-0.4
		C103.1,476.1,101.8,475.1,100.8,473.9z"/>
	<rect x="81" y="457.1" width="2.6" height="2.5"/>
	<rect x="81" y="448" width="3" height="2.5"/>
	<polygon points="81,469 84,469 84,466.5 81,466.5 81,468.9 	"/>
	<path d="M91.9,466.5L91.9,466.5c0.1-0.4,0.1-0.8,0-1.2V466.5z"/>
	<path d="M91.9,450.5v1.2C92,451.3,92,450.9,91.9,450.5L91.9,450.5z"/>
	<path d="M81,448h3v2.5h-3v6.6h2.6v2.5H81v6.9h3v2.5h-3c0,1.8,0.6,3.5,1.7,4.9h7.6c1.1-1.4,1.7-3.1,1.7-4.9h-3v-0.1V448h3
		c0-3.5-2.3-6.5-5.5-7.6C83.3,441.5,81,444.5,81,448z"/>
	<path d="M90.3,473.9h-7.6c1,1.2,2.3,2.2,3.8,2.7C88,476.1,89.3,475.1,90.3,473.9z"/>
	<path d="M109.1,454.2c0.3,0.9,0.5,1.9,0.5,2.9v2.5c0,1-0.2,2.1-0.6,3c0.4,0.9,0.7,1.8,0.9,2.7v-13.6
		C109.8,452.6,109.5,453.4,109.1,454.2z"/>
	<path d="M114.9,468.8c0.6-0.1,1.1-0.3,1.6-0.5c0.7-0.3,1.4-0.8,1.9-1.4c0.4-0.4,0.7-0.8,1-1.3c1-1.7,1.5-4.1,1.5-7.1
		c0-3-0.5-5.4-1.5-7.1c-0.3-0.5-0.6-0.9-1-1.3c-0.5-0.6-1.2-1-1.9-1.4c-0.5-0.2-1-0.4-1.6-0.5c-0.6-0.1-1.2-0.2-1.8-0.2H110v2.4h2.9
		c3.2,0,4.8,2.3,4.8,6.3v0v3.4c0,4-1.6,6.3-4.8,6.3H110c0,0,0,0.1,0,0.1v2.5h3.1C113.8,469,114.4,468.9,114.9,468.8z"/>
	<path d="M110,466.4L110,466.4l-0.1-1.1c-0.2-1-0.5-1.9-0.9-2.7c0.4-0.9,0.6-2,0.6-3v-2.5c0-1-0.2-2-0.5-2.9
		c0.4-0.8,0.7-1.6,0.8-2.5v-1.3v0h0.1V448h-2.9v21h2.9v-2.5C110,466.5,110,466.4,110,466.4z"/>
	<path d="M110,448h3.1h0c0.7,0,1.3,0.1,1.8,0.2c0.6,0.1,1.1,0.3,1.6,0.5c0.7,0.3,1.4,0.8,1.9,1.4c0.4,0.4,0.7,0.8,1,1.3
		c1,1.7,1.5,4.1,1.5,7.1c0,3-0.5,5.4-1.5,7.1c-0.3,0.5-0.6,0.9-1,1.3c-0.5,0.6-1.2,1.1-1.9,1.4c-0.5,0.2-1,0.4-1.6,0.5
		c-0.6,0.1-1.2,0.2-1.8,0.2h0H110c0,1.8-0.6,3.5-1.7,4.9h14.3c3.6-2.8,6.2-7.7,6.2-15.4c0-5.2-1.1-9.3-3.4-12.5
		c-2.8-3.9-7.2-6-12.3-6h-6c-0.9,0-1.7,0.2-2.5,0.4C107.7,441.5,110,444.5,110,448z"/>
	<path d="M112.9,450.4H110v0.1c0,0.4,0,0.8-0.1,1.2v13.6c0.1,0.3,0.1,0.7,0.1,1.1h2.9c3.2,0,4.8-2.3,4.8-6.3v-3.4
		C117.7,452.7,116.1,450.4,112.9,450.4z"/>
	<path d="M104.5,476.6c0.8,0.3,1.7,0.4,2.5,0.4h6c3.3,0,6.7-0.9,9.5-3.1h-14.3C107.3,475.1,106,476.1,104.5,476.6z"/>
	<rect x="99.1" y="448" width="2.9" height="2.5"/>
	<rect x="99.1" y="457.1" width="2.5" height="2.5"/>
	<rect x="99.1" y="466.5" width="2.9" height="2.5"/>
	<path d="M109.9,466.4L109.9,466.4c0.1-0.4,0.1-0.7,0-1.1V466.4z"/>
	<path d="M99.1,448h2.9v2.5h-2.9v6.6h2.5v2.5h-2.5v6.9h2.9v2.5h-2.9c0,1.8,0.6,3.5,1.7,4.9h7.5c1.1-1.4,1.7-3.1,1.7-4.9h-2.9h0v-21
		h0h2.9c0-3.5-2.3-6.5-5.5-7.6C101.4,441.5,99.1,444.5,99.1,448z"/>
	<path d="M110,450.4L110,450.4l-0.1,1.3C110,451.3,110,450.9,110,450.4L110,450.4z"/>
	<path d="M108.3,473.9h-7.5c1,1.2,2.3,2.2,3.8,2.7C106,476.1,107.3,475.1,108.3,473.9z"/>
	<path d="M116.5,468.3c-0.5,0.2-1,0.4-1.6,0.5C115.5,468.7,116,468.5,116.5,468.3z"/>
	<path d="M114.9,448.2c0.6,0.1,1.1,0.3,1.6,0.5C116,448.4,115.5,448.3,114.9,448.2z"/>
	<path d="M119.3,465.6c-0.3,0.5-0.6,0.9-1,1.3C118.8,466.5,119.1,466.1,119.3,465.6z"/>
	<path d="M113.1,448L113.1,448c0.6,0,1.3,0.1,1.8,0.2C114.4,448.1,113.8,448,113.1,448z"/>
	<path d="M118.4,450c0.4,0.4,0.7,0.8,1,1.3C119.1,450.9,118.8,450.4,118.4,450z"/>
	<path d="M113.1,469c0.7,0,1.3-0.1,1.8-0.2C114.4,468.9,113.8,469,113.1,469L113.1,469z"/>
	<path d="M954,448.1h-3.9l-6.3,20.9h3l1.7-5.8h7l1,3.4v-10.2L954,448.1z M949,460.8l2.8-9.7h0.3l2.7,9.7H949z"/>
	<path d="M956.5,469v-2.4l-1-3.4h-7l-1.7,5.8h-3l6.3-20.9h3.9l2.5,8.3v-8.3c0-2.4,1.1-4.5,2.7-6c-1.4-1.3-3.2-2-5.2-2h-3.9
		c-3.5,0-6.6,2.3-7.7,5.7l-6.3,20.9c-0.7,2.4-0.3,5,1.2,7.1c0,0,0.1,0.1,0.1,0.1h20.8C957.1,472.5,956.5,470.8,956.5,469z"/>
	<polygon points="951.8,451.1 949,460.8 954.8,460.8 952.1,451.1 	"/>
	<path d="M943.7,477h3c2,0,3.8-0.7,5.2-1.9c1.4,1.2,3.2,1.9,5.2,1.9h3.1c0.7,0,1.4-0.1,2.1-0.3c-1.7-0.5-3.1-1.5-4.1-2.8h-20.8
		C938.9,475.8,941.2,477,943.7,477z"/>
	<polygon points="967.4,448.1 964.5,448.1 964.5,455.8 967.4,465.4 	"/>
	<path d="M977.2,466.5h-9.5l0.1,0.2c0.2,0.7,0.4,1.5,0.4,2.3h9V466.5z"/>
	<path d="M967.7,466.5h-0.3v-1.1l-2.9-9.6V469h3.7c0-0.8-0.1-1.6-0.4-2.3L967.7,466.5z"/>
	<path d="M961.5,445.8l3,10v-7.7h2.9v17.3l0.3,1.1h9.5v2.5h-9c0,1.7-0.5,3.4-1.6,4.8c0,0-0.1,0.1-0.1,0.1h13.7
		c-1.1-1.4-1.7-3.1-1.7-4.9v-10.4c-0.4-0.1-0.9-0.1-1.3-0.1h-1.8v-1.2c-2.2-1.4-3.7-3.9-3.7-6.7v-2.5c0-1.9,0.7-3.7,1.8-5.1
		c-1.5-1.8-3.7-2.9-6.1-2.9h-2.9c-2,0-3.9,0.8-5.3,2C960.3,443.1,961.1,444.3,961.5,445.8z"/>
	<path d="M980.2,473.9h-13.7c-1.1,1.4-2.5,2.3-4.2,2.8c0.7,0.2,1.4,0.3,2.2,0.3h12.7c1.7,0,3.3-0.6,4.7-1.5
		C981.2,475,980.7,474.5,980.2,473.9z"/>
	<polygon points="960.3,469 956.5,456.4 956.5,466.6 957.2,469 	"/>
	<polygon points="967.7,466.5 967.4,465.4 967.4,466.5 	"/>
	<path d="M956.5,448.1v8.3l3.8,12.6h-3.1l-0.7-2.4v2.4c0,1.8,0.6,3.5,1.7,4.9h8.3c0,0,0.1-0.1,0.1-0.1c1-1.4,1.6-3.1,1.6-4.8h-3.7
		v-13.2l-3-10c-0.4-1.5-1.2-2.7-2.3-3.7C957.6,443.6,956.5,445.7,956.5,448.1z"/>
	<path d="M966.5,473.9h-8.3c1,1.3,2.5,2.3,4.1,2.8C964,476.2,965.5,475.3,966.5,473.9z"/>
	<polygon points="986.5,469 989.4,469 989.4,450.6 996.2,450.6 996.2,448.1 979.7,448.1 979.7,450.6 986.5,450.6 	"/>
	<path d="M975.4,457.3c0.9,0.6,2,1,3.1,1.2v0.1c3.8,0.6,6.7,3.9,6.7,7.9v2.5c0,1.8-0.6,3.5-1.7,4.9h12.2c1.1-1.4,1.7-3.1,1.7-4.9
		v-10.5c3.8-0.6,6.8-3.9,6.8-7.9v-2.5c0-4.4-3.6-8-8-8h-16.5c-2.5,0-4.7,1.1-6.2,2.9c1.2,1.4,1.9,3.2,1.9,5.1V457.3z M979.7,448.1
		h16.5v2.5h-6.8V469h-2.9v-18.4h-6.8V448.1z"/>
	<path d="M981.9,475.5c1.3,0.9,2.9,1.5,4.6,1.5h2.9c2.6,0,4.8-1.2,6.3-3.1h-12.2C983,474.5,982.5,475,981.9,475.5z"/>
	<path d="M985.2,469v-2.5c0-4-2.9-7.3-6.7-7.9V469c0,1.8,0.6,3.5,1.7,4.9h3.3C984.6,472.5,985.2,470.8,985.2,469z"/>
	<path d="M971.7,450.6c0,2.8,1.5,5.3,3.7,6.7v-9.2c0-1.9-0.7-3.7-1.9-5.1c-1.2,1.4-1.8,3.2-1.8,5.1V450.6z"/>
	<path d="M983.5,473.9h-3.3c0.5,0.6,1,1.1,1.7,1.6C982.5,475,983,474.5,983.5,473.9z"/>
	<polygon points="502.2,498.2 498.2,498.2 498.2,502.2 498.2,527.2 498.2,531.2 502.2,531.2 527.2,531.2 531.2,531.2 531.2,527.2 
		531.2,502.2 531.2,498.2 527.2,498.2 	"/>
	<path d="M531.2,490.2h-4h-25h-4c-4.4,0-8,3.6-8,8v4v25v4c0,4.4,3.6,8,8,8h4h25h4c4.4,0,8-3.6,8-8v-4v-25v-4
		C539.2,493.8,535.6,490.2,531.2,490.2z M531.2,502.2v25v4h-4h-25h-4v-4v-25v-4h4h25h4V502.2z"/>
</g>
</svg>
