<?xml version="1.0" encoding="utf-8"?>
<!-- Generator: Adobe Illustrator 25.3.1, SVG Export Plug-In . SVG Version: 6.00 Build 0)  -->
<svg version="1.1" id="Layer_1" xmlns="http://www.w3.org/2000/svg" xmlns:xlink="http://www.w3.org/1999/xlink" x="0px" y="0px"
	 viewBox="0 0 500 4000" style="enable-background:new 0 0 500 4000;" xml:space="preserve">
<style type="text/css">
	.st0{fill:none;stroke:#231F20;stroke-width:5;stroke-linecap:round;stroke-linejoin:round;}
	.st1{fill:#231F20;}
	.st2{font-family:'IBMPlexMono';}
	.st3{font-size:42px;}
	.st4{fill:none;stroke:#231F20;stroke-width:2.5;stroke-linecap:round;stroke-miterlimit:10;}
	.st5{fill:none;stroke:#231F20;stroke-width:3.5;stroke-linecap:round;stroke-miterlimit:10;}
</style>
<line class="st0" x1="150.1" y1="1999.1" x2="350.1" y2="1999.1"/>
<line class="st0" x1="100.1" y1="2199.9" x2="400.1" y2="2199.9"/>
<text transform="matrix(1 0 0 1 412.9399 2214.6599)" class="st1 st2 st3">10</text>
<text transform="matrix(1 0 0 1 36.66 2214.6599)" class="st1 st2 st3">10</text>
<line class="st4" x1="300.1" y1="2049.1" x2="200.1" y2="2049.1"/>
<line class="st5" x1="350.1" y1="2099.1" x2="150.1" y2="2099.1"/>
<line class="st4" x1="300.1" y1="2149.1" x2="200.1" y2="2149.1"/>
<line class="st0" x1="100.1" y1="2400.6" x2="400.1" y2="2400.6"/>
<text transform="matrix(1 0 0 1 412.9399 2415.3899)" class="st1 st2 st3">20</text>
<text transform="matrix(1 0 0 1 36.66 2415.3899)" class="st1 st2 st3">20</text>
<line class="st4" x1="300.1" y1="2249.9" x2="200.1" y2="2249.9"/>
<line class="st5" x1="350.1" y1="2299.9" x2="150.1" y2="2299.9"/>
<line class="st4" x1="300.1" y1="2349.9" x2="200.1" y2="2349.9"/>
<line class="st0" x1="100.1" y1="2601.2" x2="400.1" y2="2601.2"/>
<text transform="matrix(1 0 0 1 412.9399 2616.03)" class="st1 st2 st3">30</text>
<text transform="matrix(1 0 0 1 36.66 2616.03)" class="st1 st2 st3">30</text>
<line class="st4" x1="300.1" y1="2450.5" x2="200.1" y2="2450.5"/>
<line class="st5" x1="350.1" y1="2500.5" x2="150.1" y2="2500.5"/>
<line class="st4" x1="300.1" y1="2550.5" x2="200.1" y2="2550.5"/>
<line class="st0" x1="100.1" y1="2801.9" x2="400.1" y2="2801.9"/>
<text transform="matrix(1 0 0 1 412.9399 2816.6299)" class="st1 st2 st3">40</text>
<text transform="matrix(1 0 0 1 36.66 2816.6299)" class="st1 st2 st3">40</text>
<line class="st4" x1="300.1" y1="2651.2" x2="200.1" y2="2651.2"/>
<line class="st5" x1="350.1" y1="2701.2" x2="150.1" y2="2701.2"/>
<line class="st4" x1="300.1" y1="2851.9" x2="200.1" y2="2851.9"/>
<line class="st4" x1="300.1" y1="2951.9" x2="200.1" y2="2951.9"/>
<line class="st5" x1="350.1" y1="2901.9" x2="150.1" y2="2901.9"/>
<line class="st4" x1="300.1" y1="2751.2" x2="200.1" y2="2751.2"/>
<line class="st0" x1="100.1" y1="3001.8" x2="400.1" y2="3001.8"/>
<text transform="matrix(1 0 0 1 412.9399 3016.6299)" class="st1 st2 st3">50</text>
<text transform="matrix(1 0 0 1 36.66 3016.6299)" class="st1 st2 st3">50</text>
<line class="st0" x1="100.1" y1="3202.5" x2="400.1" y2="3202.5"/>
<text transform="matrix(1 0 0 1 412.9399 3217.3601)" class="st1 st2 st3">60</text>
<text transform="matrix(1 0 0 1 36.66 3217.3601)" class="st1 st2 st3">60</text>
<line class="st4" x1="300.1" y1="3051.8" x2="200.1" y2="3051.8"/>
<line class="st5" x1="350.1" y1="3101.8" x2="150.1" y2="3101.8"/>
<line class="st4" x1="300.1" y1="3151.8" x2="200.1" y2="3151.8"/>
<line class="st0" x1="100.1" y1="3403.2" x2="400.1" y2="3403.2"/>
<text transform="matrix(1 0 0 1 412.9399 3417.99)" class="st1 st2 st3">70</text>
<text transform="matrix(1 0 0 1 36.66 3417.99)" class="st1 st2 st3">70</text>
<line class="st4" x1="300.1" y1="3252.4" x2="200.1" y2="3252.4"/>
<line class="st5" x1="350.1" y1="3302.4" x2="150.1" y2="3302.4"/>
<line class="st4" x1="300.1" y1="3352.4" x2="200.1" y2="3352.4"/>
<line class="st0" x1="100.1" y1="3603.9" x2="400.1" y2="3603.9"/>
<text transform="matrix(1 0 0 1 412.9399 3618.5901)" class="st1 st2 st3">80</text>
<text transform="matrix(1 0 0 1 36.66 3618.6001)" class="st1 st2 st3">80</text>
<line class="st4" x1="300.1" y1="3453.2" x2="200.1" y2="3453.2"/>
<line class="st5" x1="350.1" y1="3503.2" x2="150.1" y2="3503.2"/>
<line class="st4" x1="300.1" y1="3653.9" x2="200.1" y2="3653.9"/>
<line class="st5" x1="350.1" y1="3703.9" x2="150.1" y2="3703.9"/>
<line class="st4" x1="300.1" y1="3553.2" x2="200.1" y2="3553.2"/>
<line class="st0" x1="100.1" y1="3804.6" x2="400.1" y2="3804.6"/>
<text transform="matrix(1 0 0 1 412.9399 3819.45)" class="st1 st2 st3">90</text>
<text transform="matrix(1 0 0 1 36.66 3819.45)" class="st1 st2 st3">90</text>
<line class="st4" x1="300.1" y1="3753.9" x2="200.1" y2="3753.9"/>
<line class="st0" x1="100.1" y1="397.5" x2="400.1" y2="397.5"/>
<text transform="matrix(1 0 0 1 412.9399 412.27)" class="st1 st2 st3">80</text>
<text transform="matrix(1 0 0 1 36.66 412.27)" class="st1 st2 st3">80</text>
<line class="st4" x1="300.1" y1="246.7" x2="200.1" y2="246.7"/>
<line class="st5" x1="350.1" y1="296.7" x2="150.1" y2="296.7"/>
<line class="st4" x1="300.1" y1="346.7" x2="200.1" y2="346.7"/>
<line class="st0" x1="100.1" y1="598.1" x2="400.1" y2="598.1"/>
<text transform="matrix(1 0 0 1 412.9399 612.9099)" class="st1 st2 st3">70</text>
<text transform="matrix(1 0 0 1 36.66 612.9099)" class="st1 st2 st3">70</text>
<line class="st4" x1="300.1" y1="447.4" x2="200.1" y2="447.4"/>
<line class="st5" x1="350.1" y1="497.4" x2="150.1" y2="497.4"/>
<line class="st4" x1="300.1" y1="547.4" x2="200.1" y2="547.4"/>
<line class="st0" x1="100.1" y1="196.8" x2="400.1" y2="196.8"/>
<text transform="matrix(1 0 0 1 412.9399 211.6299)" class="st1 st2 st3">90</text>
<text transform="matrix(1 0 0 1 36.66 211.6299)" class="st1 st2 st3">90</text>
<line class="st0" x1="100.1" y1="798.8" x2="400.1" y2="798.8"/>
<text transform="matrix(1 0 0 1 412.9399 813.51)" class="st1 st2 st3">60</text>
<text transform="matrix(1 0 0 1 36.66 813.51)" class="st1 st2 st3">60</text>
<line class="st4" x1="300.1" y1="648.1" x2="200.1" y2="648.1"/>
<line class="st5" x1="350.1" y1="698.1" x2="150.1" y2="698.1"/>
<line class="st4" x1="300.1" y1="848.8" x2="200.1" y2="848.8"/>
<line class="st4" x1="300.1" y1="948.8" x2="200.1" y2="948.8"/>
<line class="st5" x1="350.1" y1="898.8" x2="150.1" y2="898.8"/>
<line class="st4" x1="300.1" y1="748.1" x2="200.1" y2="748.1"/>
<line class="st0" x1="100.1" y1="998.7" x2="400.1" y2="998.7"/>
<text transform="matrix(1 0 0 1 412.9399 1013.51)" class="st1 st2 st3">50</text>
<text transform="matrix(1 0 0 1 36.66 1013.51)" class="st1 st2 st3">50</text>
<line class="st0" x1="100.1" y1="1199.4" x2="400.1" y2="1199.4"/>
<text transform="matrix(1 0 0 1 412.9399 1214.24)" class="st1 st2 st3">40</text>
<text transform="matrix(1 0 0 1 36.66 1214.24)" class="st1 st2 st3">40</text>
<line class="st4" x1="300.1" y1="1048.7" x2="200.1" y2="1048.7"/>
<line class="st5" x1="350.1" y1="1098.7" x2="150.1" y2="1098.7"/>
<line class="st4" x1="300.1" y1="1148.7" x2="200.1" y2="1148.7"/>
<line class="st0" x1="100.1" y1="1400.1" x2="400.1" y2="1400.1"/>
<text transform="matrix(1 0 0 1 412.9399 1414.8701)" class="st1 st2 st3">30</text>
<text transform="matrix(1 0 0 1 36.66 1414.8701)" class="st1 st2 st3">30</text>
<line class="st4" x1="300.1" y1="1249.3" x2="200.1" y2="1249.3"/>
<line class="st5" x1="350.1" y1="1299.3" x2="150.1" y2="1299.3"/>
<line class="st4" x1="300.1" y1="1349.3" x2="200.1" y2="1349.3"/>
<line class="st0" x1="100.1" y1="1600.8" x2="400.1" y2="1600.8"/>
<text transform="matrix(1 0 0 1 412.9399 1615.47)" class="st1 st2 st3">20</text>
<text transform="matrix(1 0 0 1 36.66 1615.48)" class="st1 st2 st3">20</text>
<line class="st4" x1="300.1" y1="1450.1" x2="200.1" y2="1450.1"/>
<line class="st5" x1="350.1" y1="1500.1" x2="150.1" y2="1500.1"/>
<line class="st4" x1="300.1" y1="1650.8" x2="200.1" y2="1650.8"/>
<line class="st5" x1="350.1" y1="1700.8" x2="150.1" y2="1700.8"/>
<line class="st4" x1="300.1" y1="1550.1" x2="200.1" y2="1550.1"/>
<line class="st0" x1="100.1" y1="1801.5" x2="400.1" y2="1801.5"/>
<text transform="matrix(1 0 0 1 412.9399 1816.3301)" class="st1 st2 st3">10</text>
<text transform="matrix(1 0 0 1 36.66 1816.3301)" class="st1 st2 st3">10</text>
<line class="st4" x1="300.1" y1="1750.8" x2="200.1" y2="1750.8"/>
<line class="st4" x1="300.1" y1="1851.5" x2="200.1" y2="1851.5"/>
<line class="st5" x1="350.1" y1="1901.5" x2="150.1" y2="1901.5"/>
<line class="st4" x1="300.1" y1="1951.5" x2="200.1" y2="1951.5"/>
</svg>
