<svg xmlns="http://www.w3.org/2000/svg" viewBox="0 0 500 4000"><defs><style>.cls-1{fill:#a1834b;}.cls-2{fill:#2aaae1;}.cls-3,.cls-5,.cls-6{fill:none;stroke:#231f20;stroke-linecap:round;}.cls-3{stroke-linejoin:round;stroke-width:5px;}.cls-4{fill:#231f20;}.cls-5,.cls-6{stroke-miterlimit:10;}.cls-5{stroke-width:2.5px;}.cls-6{stroke-width:3.5px;}</style></defs><g id="EXPORT"><rect class="cls-1" y="2000" width="500" height="2000"/><rect class="cls-2" width="500" height="2000"/><line class="cls-3" x1="150.08" y1="2000" x2="350.08" y2="2000"/><line class="cls-3" x1="100.08" y1="2200.73" x2="400.08" y2="2200.73"/><path class="cls-4" d="M422.69,2211.1v-2.19h6V2192h-.21l-5.28,4.92-1.47-1.59,5.55-5.19h3.93v18.75h5.52v2.19Z"/><path class="cls-4" d="M439.82,2200.63c0-6.84,2.22-10.83,7.32-10.83s7.32,4,7.32,10.83-2.22,10.83-7.32,10.83S439.82,2207.47,439.82,2200.63Zm12,1.71v-3.42c0-4.2-1.35-6.93-4.71-6.93s-4.71,2.73-4.71,6.93v3.42c0,4.2,1.35,6.93,4.71,6.93S451.85,2206.54,451.85,2202.34Zm-6.57-1.38v-.66c0-.81.48-1.44,1.86-1.44s1.86.63,1.86,1.44v.66c0,.81-.48,1.44-1.86,1.44S445.28,2201.77,445.28,2201Z"/><path class="cls-4" d="M46.41,2211.1v-2.19h6V2192H52.2l-5.28,4.92-1.47-1.59,5.55-5.19h3.93v18.75h5.52v2.19Z"/><path class="cls-4" d="M63.54,2200.63c0-6.84,2.22-10.83,7.32-10.83s7.32,4,7.32,10.83-2.22,10.83-7.32,10.83S63.54,2207.47,63.54,2200.63Zm12,1.71v-3.42c0-4.2-1.35-6.93-4.71-6.93s-4.71,2.73-4.71,6.93v3.42c0,4.2,1.35,6.93,4.71,6.93S75.57,2206.54,75.57,2202.34ZM69,2201v-.66c0-.81.48-1.44,1.86-1.44s1.86.63,1.86,1.44v.66c0,.81-.48,1.44-1.86,1.44S69,2201.77,69,2201Z"/><line class="cls-5" x1="300.08" y1="2050" x2="200.08" y2="2050"/><line class="cls-6" x1="350.08" y1="2100" x2="150.08" y2="2100"/><line class="cls-5" x1="300.08" y1="2150" x2="200.08" y2="2150"/><line class="cls-3" x1="100.08" y1="2401.46" x2="400.08" y2="2401.46"/><path class="cls-4" d="M436.25,2411.83h-14v-2.58l7-6.3c2-1.83,3.51-3.78,3.51-5.91v-.36c0-2.52-1.35-4-3.93-4s-3.84,1.41-4.5,3.57l-2.25-.84a6.67,6.67,0,0,1,6.81-4.92c4.17,0,6.51,2.52,6.51,6.06,0,3.18-1.89,5.52-4.68,7.95l-5.85,5.1h11.37Z"/><path class="cls-4" d="M439.82,2401.36c0-6.84,2.22-10.83,7.32-10.83s7.32,4,7.32,10.83-2.22,10.83-7.32,10.83S439.82,2408.2,439.82,2401.36Zm12,1.71v-3.42c0-4.2-1.35-6.93-4.71-6.93s-4.71,2.73-4.71,6.93v3.42c0,4.2,1.35,6.93,4.71,6.93S451.85,2407.27,451.85,2403.07Zm-6.57-1.38V2401c0-.81.48-1.44,1.86-1.44s1.86.63,1.86,1.44v.66c0,.81-.48,1.44-1.86,1.44S445.28,2402.5,445.28,2401.69Z"/><path class="cls-4" d="M60,2411.83H46v-2.58l7-6.3c2-1.83,3.51-3.78,3.51-5.91v-.36c0-2.52-1.35-4-3.93-4s-3.84,1.41-4.5,3.57l-2.25-.84a6.67,6.67,0,0,1,6.81-4.92c4.17,0,6.51,2.52,6.51,6.06,0,3.18-1.89,5.52-4.68,7.95l-5.85,5.1H60Z"/><path class="cls-4" d="M63.54,2401.36c0-6.84,2.22-10.83,7.32-10.83s7.32,4,7.32,10.83-2.22,10.83-7.32,10.83S63.54,2408.2,63.54,2401.36Zm12,1.71v-3.42c0-4.2-1.35-6.93-4.71-6.93s-4.71,2.73-4.71,6.93v3.42c0,4.2,1.35,6.93,4.71,6.93S75.57,2407.27,75.57,2403.07ZM69,2401.69V2401c0-.81.48-1.44,1.86-1.44s1.86.63,1.86,1.44v.66c0,.81-.48,1.44-1.86,1.44S69,2402.5,69,2401.69Z"/><line class="cls-5" x1="300.08" y1="2250.73" x2="200.08" y2="2250.73"/><line class="cls-6" x1="350.08" y1="2300.73" x2="150.08" y2="2300.73"/><line class="cls-5" x1="300.08" y1="2350.73" x2="200.08" y2="2350.73"/><line class="cls-3" x1="100.08" y1="2602.09" x2="400.08" y2="2602.09"/><path class="cls-4" d="M428.24,2600.4c2.91,0,4.38-1.47,4.38-3.48v-.21c0-2.21-1.56-3.36-3.84-3.36a4.68,4.68,0,0,0-4.41,2.67l-1.89-1.44a7.12,7.12,0,0,1,6.36-3.41c3.57,0,6.42,1.88,6.42,5.27a4.92,4.92,0,0,1-4.08,4.89v.12a5.22,5.22,0,0,1,4.5,5.28c0,3.6-2.88,6.09-7.23,6.09a7.79,7.79,0,0,1-6.87-3.57l1.89-1.44a5.38,5.38,0,0,0,5,2.82c2.94,0,4.59-1.44,4.59-3.93v-.24c0-2.46-1.56-3.9-4.62-3.9h-2.49v-2.16Z"/><path class="cls-4" d="M439.82,2602c0-6.83,2.22-10.82,7.32-10.82s7.32,4,7.32,10.82-2.22,10.83-7.32,10.83S439.82,2608.83,439.82,2602Zm12,1.71v-3.42c0-4.2-1.35-6.93-4.71-6.93s-4.71,2.73-4.71,6.93v3.42c0,4.2,1.35,6.93,4.71,6.93S451.85,2607.9,451.85,2603.7Zm-6.57-1.38v-.66c0-.81.48-1.44,1.86-1.44s1.86.63,1.86,1.44v.66c0,.81-.48,1.44-1.86,1.44S445.28,2603.13,445.28,2602.32Z"/><path class="cls-4" d="M52,2600.4c2.91,0,4.38-1.47,4.38-3.48v-.21c0-2.21-1.56-3.36-3.84-3.36a4.68,4.68,0,0,0-4.41,2.67l-1.89-1.44a7.12,7.12,0,0,1,6.36-3.41c3.57,0,6.42,1.88,6.42,5.27a4.92,4.92,0,0,1-4.08,4.89v.12a5.22,5.22,0,0,1,4.5,5.28c0,3.6-2.88,6.09-7.23,6.09a7.79,7.79,0,0,1-6.87-3.57l1.89-1.44a5.38,5.38,0,0,0,5,2.82c2.94,0,4.59-1.44,4.59-3.93v-.24c0-2.46-1.56-3.9-4.62-3.9H49.65v-2.16Z"/><path class="cls-4" d="M63.54,2602c0-6.83,2.22-10.82,7.32-10.82s7.32,4,7.32,10.82-2.22,10.83-7.32,10.83S63.54,2608.83,63.54,2602Zm12,1.71v-3.42c0-4.2-1.35-6.93-4.71-6.93s-4.71,2.73-4.71,6.93v3.42c0,4.2,1.35,6.93,4.71,6.93S75.57,2607.9,75.57,2603.7ZM69,2602.32v-.66c0-.81.48-1.44,1.86-1.44s1.86.63,1.86,1.44v.66c0,.81-.48,1.44-1.86,1.44S69,2603.13,69,2602.32Z"/><line class="cls-5" x1="300.08" y1="2451.36" x2="200.08" y2="2451.36"/><line class="cls-6" x1="350.08" y1="2501.36" x2="150.08" y2="2501.36"/><line class="cls-5" x1="300.08" y1="2551.36" x2="200.08" y2="2551.36"/><line class="cls-3" x1="100.08" y1="2802.82" x2="400.08" y2="2802.82"/><path class="cls-4" d="M431.48,2813.07V2809H421.16v-2.22l9.06-14.61h3.66v14.76H437V2809h-3.12v4.11Zm-8.07-6.18h8.07v-12.81h-.12Z"/><path class="cls-4" d="M439.82,2802.6c0-6.84,2.22-10.83,7.32-10.83s7.32,4,7.32,10.83-2.22,10.83-7.32,10.83S439.82,2809.44,439.82,2802.6Zm12,1.71v-3.42c0-4.2-1.35-6.93-4.71-6.93s-4.71,2.73-4.71,6.93v3.42c0,4.2,1.35,6.93,4.71,6.93S451.85,2808.51,451.85,2804.31Zm-6.57-1.38v-.66c0-.81.48-1.44,1.86-1.44s1.86.63,1.86,1.44v.66c0,.81-.48,1.44-1.86,1.44S445.28,2803.74,445.28,2802.93Z"/><path class="cls-4" d="M55.2,2813.07V2809H44.88v-2.22l9.06-14.61H57.6v14.76h3.12V2809H57.6v4.11Zm-8.07-6.18H55.2v-12.81h-.12Z"/><path class="cls-4" d="M63.54,2802.6c0-6.84,2.22-10.83,7.32-10.83s7.32,4,7.32,10.83-2.22,10.83-7.32,10.83S63.54,2809.44,63.54,2802.6Zm12,1.71v-3.42c0-4.2-1.35-6.93-4.71-6.93s-4.71,2.73-4.71,6.93v3.42c0,4.2,1.35,6.93,4.71,6.93S75.57,2808.51,75.57,2804.31ZM69,2802.93v-.66c0-.81.48-1.44,1.86-1.44s1.86.63,1.86,1.44v.66c0,.81-.48,1.44-1.86,1.44S69,2803.74,69,2802.93Z"/><line class="cls-5" x1="300.08" y1="2652.09" x2="200.08" y2="2652.09"/><line class="cls-6" x1="350.08" y1="2702.09" x2="150.08" y2="2702.09"/><line class="cls-5" x1="300.08" y1="2852.82" x2="200.08" y2="2852.82"/><line class="cls-5" x1="300.08" y1="2952.82" x2="200.08" y2="2952.82"/><line class="cls-6" x1="350.08" y1="2902.82" x2="150.08" y2="2902.82"/><line class="cls-5" x1="300.08" y1="2752.09" x2="200.08" y2="2752.09"/><line class="cls-3" x1="100.08" y1="3002.69" x2="400.08" y2="3002.69"/><path class="cls-4" d="M435.17,2994.32h-9.36l-.6,8h.21a4.83,4.83,0,0,1,4.38-2.28c3.66,0,6.33,2.4,6.33,6.45s-2.67,6.93-7.14,6.93a7.6,7.6,0,0,1-6.66-3.57l1.89-1.44c1.11,1.65,2.25,2.82,4.83,2.82,2.88,0,4.47-1.68,4.47-4.41v-.24c0-2.76-1.62-4.41-4.53-4.41a4.62,4.62,0,0,0-3.84,1.77l-2.13-.3.75-11.52h11.4Z"/><path class="cls-4" d="M439.82,3002.6c0-6.84,2.22-10.83,7.32-10.83s7.32,4,7.32,10.83-2.22,10.83-7.32,10.83S439.82,3009.44,439.82,3002.6Zm12,1.71v-3.42c0-4.2-1.35-6.93-4.71-6.93s-4.71,2.73-4.71,6.93v3.42c0,4.2,1.35,6.93,4.71,6.93S451.85,3008.51,451.85,3004.31Zm-6.57-1.38v-.66c0-.81.48-1.44,1.86-1.44s1.86.63,1.86,1.44v.66c0,.81-.48,1.44-1.86,1.44S445.28,3003.74,445.28,3002.93Z"/><path class="cls-4" d="M58.89,2994.32H49.53l-.6,8h.21a4.83,4.83,0,0,1,4.38-2.28c3.66,0,6.33,2.4,6.33,6.45s-2.67,6.93-7.14,6.93a7.6,7.6,0,0,1-6.66-3.57l1.89-1.44c1.11,1.65,2.25,2.82,4.83,2.82,2.88,0,4.47-1.68,4.47-4.41v-.24c0-2.76-1.62-4.41-4.53-4.41a4.62,4.62,0,0,0-3.84,1.77l-2.13-.3.75-11.52h11.4Z"/><path class="cls-4" d="M63.54,3002.6c0-6.84,2.22-10.83,7.32-10.83s7.32,4,7.32,10.83-2.22,10.83-7.32,10.83S63.54,3009.44,63.54,3002.6Zm12,1.71v-3.42c0-4.2-1.35-6.93-4.71-6.93s-4.71,2.73-4.71,6.93v3.42c0,4.2,1.35,6.93,4.71,6.93S75.57,3008.51,75.57,3004.31ZM69,3002.93v-.66c0-.81.48-1.44,1.86-1.44s1.86.63,1.86,1.44v.66c0,.81-.48,1.44-1.86,1.44S69,3003.74,69,3002.93Z"/><line class="cls-3" x1="100.08" y1="3203.42" x2="400.08" y2="3203.42"/><path class="cls-4" d="M422.06,3206.11c0-6.21,4.17-11.07,7.59-13.25h3.24c-4.56,3.26-7.08,6-8.25,10.85l.15.06a5.62,5.62,0,0,1,5.16-3c3.66,0,6.27,2.49,6.27,6.45,0,4.11-2.79,6.93-7.05,6.93C424.76,3214.15,422.06,3211.09,422.06,3206.11Zm11.61,1.44v-.24c0-2.82-1.68-4.47-4.53-4.47s-4.53,1.65-4.53,4.47v.24c0,2.82,1.68,4.47,4.53,4.47S433.67,3210.37,433.67,3207.55Z"/><path class="cls-4" d="M439.82,3203.32c0-6.83,2.22-10.82,7.32-10.82s7.32,4,7.32,10.82-2.22,10.83-7.32,10.83S439.82,3210.16,439.82,3203.32Zm12,1.71v-3.42c0-4.19-1.35-6.93-4.71-6.93s-4.71,2.74-4.71,6.93V3205c0,4.2,1.35,6.93,4.71,6.93S451.85,3209.23,451.85,3205Zm-6.57-1.38V3203c0-.81.48-1.44,1.86-1.44s1.86.63,1.86,1.44v.66c0,.81-.48,1.44-1.86,1.44S445.28,3204.46,445.28,3203.65Z"/><path class="cls-4" d="M45.78,3206.11c0-6.21,4.17-11.07,7.59-13.25h3.24c-4.56,3.26-7.08,6-8.25,10.85l.15.06a5.62,5.62,0,0,1,5.16-3c3.66,0,6.27,2.49,6.27,6.45,0,4.11-2.79,6.93-7,6.93C48.48,3214.15,45.78,3211.09,45.78,3206.11Zm11.61,1.44v-.24c0-2.82-1.68-4.47-4.53-4.47s-4.53,1.65-4.53,4.47v.24c0,2.82,1.68,4.47,4.53,4.47S57.39,3210.37,57.39,3207.55Z"/><path class="cls-4" d="M63.54,3203.32c0-6.83,2.22-10.82,7.32-10.82s7.32,4,7.32,10.82-2.22,10.83-7.32,10.83S63.54,3210.16,63.54,3203.32Zm12,1.71v-3.42c0-4.19-1.35-6.93-4.71-6.93s-4.71,2.74-4.71,6.93V3205c0,4.2,1.35,6.93,4.71,6.93S75.57,3209.23,75.57,3205ZM69,3203.65V3203c0-.81.48-1.44,1.86-1.44s1.86.63,1.86,1.44v.66c0,.81-.48,1.44-1.86,1.44S69,3204.46,69,3203.65Z"/><line class="cls-5" x1="300.08" y1="3052.69" x2="200.08" y2="3052.69"/><line class="cls-6" x1="350.08" y1="3102.69" x2="150.08" y2="3102.69"/><line class="cls-5" x1="300.08" y1="3152.69" x2="200.08" y2="3152.69"/><line class="cls-3" x1="100.08" y1="3404.06" x2="400.08" y2="3404.06"/><path class="cls-4" d="M425.33,3414.43l8.19-18.78h-9.18v3.9h-2.25v-6.06h14v2.22l-8,18.72Z"/><path class="cls-4" d="M439.82,3404c0-6.84,2.22-10.83,7.32-10.83s7.32,4,7.32,10.83-2.22,10.83-7.32,10.83S439.82,3410.8,439.82,3404Zm12,1.71v-3.42c0-4.2-1.35-6.93-4.71-6.93s-4.71,2.73-4.71,6.93v3.42c0,4.2,1.35,6.93,4.71,6.93S451.85,3409.87,451.85,3405.67Zm-6.57-1.38v-.66c0-.81.48-1.44,1.86-1.44s1.86.63,1.86,1.44v.66c0,.81-.48,1.44-1.86,1.44S445.28,3405.1,445.28,3404.29Z"/><path class="cls-4" d="M49.05,3414.43l8.19-18.78H48.06v3.9H45.81v-6.06h14v2.22l-8,18.72Z"/><path class="cls-4" d="M63.54,3404c0-6.84,2.22-10.83,7.32-10.83s7.32,4,7.32,10.83-2.22,10.83-7.32,10.83S63.54,3410.8,63.54,3404Zm12,1.71v-3.42c0-4.2-1.35-6.93-4.71-6.93s-4.71,2.73-4.71,6.93v3.42c0,4.2,1.35,6.93,4.71,6.93S75.57,3409.87,75.57,3405.67ZM69,3404.29v-.66c0-.81.48-1.44,1.86-1.44s1.86.63,1.86,1.44v.66c0,.81-.48,1.44-1.86,1.44S69,3405.1,69,3404.29Z"/><line class="cls-5" x1="300.08" y1="3253.33" x2="200.08" y2="3253.33"/><line class="cls-6" x1="350.08" y1="3303.33" x2="150.08" y2="3303.33"/><line class="cls-5" x1="300.08" y1="3353.33" x2="200.08" y2="3353.33"/><line class="cls-3" x1="100.08" y1="3604.79" x2="400.08" y2="3604.79"/><path class="cls-4" d="M421.79,3609.33c0-2.85,1.71-4.5,4.26-5.19v-.24a5,5,0,0,1-3.63-4.92c0-3.18,2.49-5.25,6.72-5.25s6.72,2.07,6.72,5.25a5,5,0,0,1-3.63,4.92v.24c2.55.69,4.26,2.34,4.26,5.19,0,3.45-2.49,6.06-7.35,6.06S421.79,3612.78,421.79,3609.33Zm12.09.15v-.66c0-2.4-1.74-3.78-4.74-3.78s-4.74,1.38-4.74,3.78v.66c0,2.37,1.8,3.78,4.74,3.78S433.88,3611.85,433.88,3609.48Zm-.57-9.84v-.42c0-2.13-1.53-3.36-4.17-3.36s-4.17,1.23-4.17,3.36v.42c0,2.13,1.47,3.36,4.17,3.36S433.31,3601.77,433.31,3599.64Z"/><path class="cls-4" d="M439.82,3604.56c0-6.84,2.22-10.83,7.32-10.83s7.32,4,7.32,10.83-2.22,10.83-7.32,10.83S439.82,3611.4,439.82,3604.56Zm12,1.71v-3.42c0-4.2-1.35-6.93-4.71-6.93s-4.71,2.73-4.71,6.93v3.42c0,4.2,1.35,6.93,4.71,6.93S451.85,3610.47,451.85,3606.27Zm-6.57-1.38v-.66c0-.81.48-1.44,1.86-1.44s1.86.63,1.86,1.44v.66c0,.81-.48,1.44-1.86,1.44S445.28,3605.7,445.28,3604.89Z"/><path class="cls-4" d="M45.51,3609.33c0-2.85,1.71-4.5,4.26-5.19v-.24a5,5,0,0,1-3.63-4.92c0-3.18,2.49-5.25,6.72-5.25s6.72,2.07,6.72,5.25A5,5,0,0,1,56,3603.9v.24c2.55.69,4.26,2.34,4.26,5.19,0,3.45-2.49,6.06-7.35,6.06S45.51,3612.78,45.51,3609.33Zm12.09.15v-.66c0-2.4-1.74-3.78-4.74-3.78s-4.74,1.38-4.74,3.78v.66c0,2.37,1.8,3.78,4.74,3.78S57.6,3611.85,57.6,3609.48Zm-.57-9.84v-.42c0-2.13-1.53-3.36-4.17-3.36s-4.17,1.23-4.17,3.36v.42c0,2.13,1.47,3.36,4.17,3.36S57,3601.77,57,3599.64Z"/><path class="cls-4" d="M63.54,3604.56c0-6.84,2.22-10.83,7.32-10.83s7.32,4,7.32,10.83-2.22,10.83-7.32,10.83S63.54,3611.4,63.54,3604.56Zm12,1.71v-3.42c0-4.2-1.35-6.93-4.71-6.93s-4.71,2.73-4.71,6.93v3.42c0,4.2,1.35,6.93,4.71,6.93S75.57,3610.47,75.57,3606.27ZM69,3604.89v-.66c0-.81.48-1.44,1.86-1.44s1.86.63,1.86,1.44v.66c0,.81-.48,1.44-1.86,1.44S69,3605.7,69,3604.89Z"/><line class="cls-5" x1="300.08" y1="3454.06" x2="200.08" y2="3454.06"/><line class="cls-6" x1="350.08" y1="3504.06" x2="150.08" y2="3504.06"/><line class="cls-5" x1="300.08" y1="3654.79" x2="200.08" y2="3654.79"/><line class="cls-6" x1="350.08" y1="3704.79" x2="150.08" y2="3704.79"/><line class="cls-5" x1="300.08" y1="3554.06" x2="200.08" y2="3554.06"/><line class="cls-3" x1="100.08" y1="3805.51" x2="400.08" y2="3805.51"/><path class="cls-4" d="M428.63,3815.89h-3.24c4.56-3.27,7.08-6,8.25-10.86l-.15-.06a5.62,5.62,0,0,1-5.16,3c-3.66,0-6.27-2.49-6.27-6.45,0-4.11,2.79-6.93,7.05-6.93s7.11,3.06,7.11,8C436.22,3808.84,432.05,3813.7,428.63,3815.89Zm5-14.46v-.24c0-2.82-1.68-4.47-4.53-4.47s-4.53,1.65-4.53,4.47v.24c0,2.82,1.68,4.47,4.53,4.47S433.67,3804.25,433.67,3801.43Z"/><path class="cls-4" d="M439.82,3805.42c0-6.84,2.22-10.83,7.32-10.83s7.32,4,7.32,10.83-2.22,10.83-7.32,10.83S439.82,3812.26,439.82,3805.42Zm12,1.71v-3.42c0-4.2-1.35-6.93-4.71-6.93s-4.71,2.73-4.71,6.93v3.42c0,4.2,1.35,6.93,4.71,6.93S451.85,3811.33,451.85,3807.13Zm-6.57-1.38v-.66c0-.81.48-1.44,1.86-1.44s1.86.63,1.86,1.44v.66c0,.81-.48,1.44-1.86,1.44S445.28,3806.56,445.28,3805.75Z"/><path class="cls-4" d="M52.35,3815.89H49.11c4.56-3.27,7.08-6,8.25-10.86l-.15-.06a5.62,5.62,0,0,1-5.16,3c-3.66,0-6.27-2.49-6.27-6.45,0-4.11,2.79-6.93,7-6.93,4.41,0,7.11,3.06,7.11,8C59.94,3808.84,55.77,3813.7,52.35,3815.89Zm5-14.46v-.24c0-2.82-1.68-4.47-4.53-4.47s-4.53,1.65-4.53,4.47v.24c0,2.82,1.68,4.47,4.53,4.47S57.39,3804.25,57.39,3801.43Z"/><path class="cls-4" d="M63.54,3805.42c0-6.84,2.22-10.83,7.32-10.83s7.32,4,7.32,10.83-2.22,10.83-7.32,10.83S63.54,3812.26,63.54,3805.42Zm12,1.71v-3.42c0-4.2-1.35-6.93-4.71-6.93s-4.71,2.73-4.71,6.93v3.42c0,4.2,1.35,6.93,4.71,6.93S75.57,3811.33,75.57,3807.13ZM69,3805.75v-.66c0-.81.48-1.44,1.86-1.44s1.86.63,1.86,1.44v.66c0,.81-.48,1.44-1.86,1.44S69,3806.56,69,3805.75Z"/><line class="cls-5" x1="300.08" y1="3754.79" x2="200.08" y2="3754.79"/><line class="cls-3" x1="100.08" y1="398.33" x2="400.08" y2="398.33"/><path class="cls-4" d="M421.79,403c0-2.85,1.71-4.5,4.26-5.19v-.24a5,5,0,0,1-3.63-4.92c0-3.18,2.49-5.25,6.72-5.25s6.72,2.07,6.72,5.25a5,5,0,0,1-3.63,4.92v.24c2.55.69,4.26,2.34,4.26,5.19,0,3.45-2.49,6.06-7.35,6.06S421.79,406.46,421.79,403Zm12.09.15v-.66c0-2.4-1.74-3.78-4.74-3.78s-4.74,1.38-4.74,3.78v.66c0,2.37,1.8,3.78,4.74,3.78S433.88,405.53,433.88,403.16Zm-.57-9.84v-.42c0-2.13-1.53-3.36-4.17-3.36S425,390.77,425,392.9v.42c0,2.13,1.47,3.36,4.17,3.36S433.31,395.45,433.31,393.32Z"/><path class="cls-4" d="M439.82,398.24c0-6.84,2.22-10.83,7.32-10.83s7.32,4,7.32,10.83-2.22,10.83-7.32,10.83S439.82,405.08,439.82,398.24Zm12,1.71v-3.42c0-4.2-1.35-6.93-4.71-6.93s-4.71,2.73-4.71,6.93V400c0,4.2,1.35,6.93,4.71,6.93S451.85,404.15,451.85,400Zm-6.57-1.38v-.66c0-.81.48-1.44,1.86-1.44s1.86.63,1.86,1.44v.66c0,.81-.48,1.44-1.86,1.44S445.28,399.38,445.28,398.57Z"/><path class="cls-4" d="M45.51,403c0-2.85,1.71-4.5,4.26-5.19v-.24a5,5,0,0,1-3.63-4.92c0-3.18,2.49-5.25,6.72-5.25s6.72,2.07,6.72,5.25A5,5,0,0,1,56,397.58v.24c2.55.69,4.26,2.34,4.26,5.19,0,3.45-2.49,6.06-7.35,6.06S45.51,406.46,45.51,403Zm12.09.15v-.66c0-2.4-1.74-3.78-4.74-3.78s-4.74,1.38-4.74,3.78v.66c0,2.37,1.8,3.78,4.74,3.78S57.6,405.53,57.6,403.16ZM57,393.32v-.42c0-2.13-1.53-3.36-4.17-3.36s-4.17,1.23-4.17,3.36v.42c0,2.13,1.47,3.36,4.17,3.36S57,395.45,57,393.32Z"/><path class="cls-4" d="M63.54,398.24c0-6.84,2.22-10.83,7.32-10.83s7.32,4,7.32,10.83S76,409.07,70.86,409.07,63.54,405.08,63.54,398.24Zm12,1.71v-3.42c0-4.2-1.35-6.93-4.71-6.93s-4.71,2.73-4.71,6.93V400c0,4.2,1.35,6.93,4.71,6.93S75.57,404.15,75.57,400ZM69,398.57v-.66c0-.81.48-1.44,1.86-1.44s1.86.63,1.86,1.44v.66c0,.81-.48,1.44-1.86,1.44S69,399.38,69,398.57Z"/><line class="cls-5" x1="300.08" y1="247.61" x2="200.08" y2="247.61"/><line class="cls-6" x1="350.08" y1="297.61" x2="150.08" y2="297.61"/><line class="cls-5" x1="300.08" y1="347.61" x2="200.08" y2="347.61"/><line class="cls-3" x1="100.08" y1="598.97" x2="400.08" y2="598.97"/><path class="cls-4" d="M425.33,609.34l8.19-18.78h-9.18v3.9h-2.25V588.4h14v2.22l-8,18.72Z"/><path class="cls-4" d="M439.82,598.87c0-6.84,2.22-10.83,7.32-10.83s7.32,4,7.32,10.83-2.22,10.83-7.32,10.83S439.82,605.71,439.82,598.87Zm12,1.71v-3.42c0-4.2-1.35-6.93-4.71-6.93s-4.71,2.73-4.71,6.93v3.42c0,4.2,1.35,6.93,4.71,6.93S451.85,604.78,451.85,600.58Zm-6.57-1.38v-.66c0-.81.48-1.44,1.86-1.44s1.86.63,1.86,1.44v.66c0,.81-.48,1.44-1.86,1.44S445.28,600,445.28,599.2Z"/><path class="cls-4" d="M49.05,609.34l8.19-18.78H48.06v3.9H45.81V588.4h14v2.22l-8,18.72Z"/><path class="cls-4" d="M63.54,598.87c0-6.84,2.22-10.83,7.32-10.83s7.32,4,7.32,10.83S76,609.7,70.86,609.7,63.54,605.71,63.54,598.87Zm12,1.71v-3.42c0-4.2-1.35-6.93-4.71-6.93s-4.71,2.73-4.71,6.93v3.42c0,4.2,1.35,6.93,4.71,6.93S75.57,604.78,75.57,600.58ZM69,599.2v-.66c0-.81.48-1.44,1.86-1.44s1.86.63,1.86,1.44v.66c0,.81-.48,1.44-1.86,1.44S69,600,69,599.2Z"/><line class="cls-5" x1="300.08" y1="448.24" x2="200.08" y2="448.24"/><line class="cls-6" x1="350.08" y1="498.24" x2="150.08" y2="498.24"/><line class="cls-5" x1="300.08" y1="548.24" x2="200.08" y2="548.24"/><line class="cls-3" x1="100.08" y1="197.7" x2="400.08" y2="197.7"/><path class="cls-4" d="M428.63,208.07h-3.24c4.56-3.27,7.08-6,8.25-10.86l-.15-.06a5.62,5.62,0,0,1-5.16,3c-3.66,0-6.27-2.49-6.27-6.45s2.79-6.93,7.05-6.93,7.11,3.06,7.11,8C436.22,201,432.05,205.88,428.63,208.07Zm5-14.46v-.24c0-2.82-1.68-4.47-4.53-4.47s-4.53,1.65-4.53,4.47v.24c0,2.82,1.68,4.47,4.53,4.47S433.67,196.43,433.67,193.61Z"/><path class="cls-4" d="M439.82,197.6c0-6.84,2.22-10.83,7.32-10.83s7.32,4,7.32,10.83-2.22,10.83-7.32,10.83S439.82,204.44,439.82,197.6Zm12,1.71v-3.42c0-4.2-1.35-6.93-4.71-6.93s-4.71,2.73-4.71,6.93v3.42c0,4.2,1.35,6.93,4.71,6.93S451.85,203.51,451.85,199.31Zm-6.57-1.38v-.66c0-.81.48-1.44,1.86-1.44s1.86.63,1.86,1.44v.66c0,.81-.48,1.44-1.86,1.44S445.28,198.74,445.28,197.93Z"/><path class="cls-4" d="M52.35,208.07H49.11c4.56-3.27,7.08-6,8.25-10.86l-.15-.06a5.62,5.62,0,0,1-5.16,3c-3.66,0-6.27-2.49-6.27-6.45s2.79-6.93,7-6.93c4.41,0,7.11,3.06,7.11,8C59.94,201,55.77,205.88,52.35,208.07Zm5-14.46v-.24c0-2.82-1.68-4.47-4.53-4.47s-4.53,1.65-4.53,4.47v.24c0,2.82,1.68,4.47,4.53,4.47S57.39,196.43,57.39,193.61Z"/><path class="cls-4" d="M63.54,197.6c0-6.84,2.22-10.83,7.32-10.83s7.32,4,7.32,10.83S76,208.43,70.86,208.43,63.54,204.44,63.54,197.6Zm12,1.71v-3.42c0-4.2-1.35-6.93-4.71-6.93s-4.71,2.73-4.71,6.93v3.42c0,4.2,1.35,6.93,4.71,6.93S75.57,203.51,75.57,199.31ZM69,197.93v-.66c0-.81.48-1.44,1.86-1.44s1.86.63,1.86,1.44v.66c0,.81-.48,1.44-1.86,1.44S69,198.74,69,197.93Z"/><line class="cls-3" x1="100.08" y1="799.7" x2="400.08" y2="799.7"/><path class="cls-4" d="M422.06,802.27c0-6.21,4.17-11.07,7.59-13.26h3.24c-4.56,3.27-7.08,6-8.25,10.86l.15.06a5.62,5.62,0,0,1,5.16-3c3.66,0,6.27,2.49,6.27,6.45s-2.79,6.93-7.05,6.93C424.76,810.31,422.06,807.25,422.06,802.27Zm11.61,1.44v-.24c0-2.82-1.68-4.47-4.53-4.47s-4.53,1.65-4.53,4.47v.24c0,2.82,1.68,4.47,4.53,4.47S433.67,806.53,433.67,803.71Z"/><path class="cls-4" d="M439.82,799.48c0-6.84,2.22-10.83,7.32-10.83s7.32,4,7.32,10.83-2.22,10.83-7.32,10.83S439.82,806.32,439.82,799.48Zm12,1.71v-3.42c0-4.2-1.35-6.93-4.71-6.93s-4.71,2.73-4.71,6.93v3.42c0,4.2,1.35,6.93,4.71,6.93S451.85,805.39,451.85,801.19Zm-6.57-1.38v-.66c0-.81.48-1.44,1.86-1.44s1.86.63,1.86,1.44v.66c0,.81-.48,1.44-1.86,1.44S445.28,800.62,445.28,799.81Z"/><path class="cls-4" d="M45.78,802.27c0-6.21,4.17-11.07,7.59-13.26h3.24c-4.56,3.27-7.08,6-8.25,10.86l.15.06a5.62,5.62,0,0,1,5.16-3c3.66,0,6.27,2.49,6.27,6.45s-2.79,6.93-7,6.93C48.48,810.31,45.78,807.25,45.78,802.27Zm11.61,1.44v-.24c0-2.82-1.68-4.47-4.53-4.47s-4.53,1.65-4.53,4.47v.24c0,2.82,1.68,4.47,4.53,4.47S57.39,806.53,57.39,803.71Z"/><path class="cls-4" d="M63.54,799.48c0-6.84,2.22-10.83,7.32-10.83s7.32,4,7.32,10.83S76,810.31,70.86,810.31,63.54,806.32,63.54,799.48Zm12,1.71v-3.42c0-4.2-1.35-6.93-4.71-6.93s-4.71,2.73-4.71,6.93v3.42c0,4.2,1.35,6.93,4.71,6.93S75.57,805.39,75.57,801.19ZM69,799.81v-.66c0-.81.48-1.44,1.86-1.44s1.86.63,1.86,1.44v.66c0,.81-.48,1.44-1.86,1.44S69,800.62,69,799.81Z"/><line class="cls-5" x1="300.08" y1="648.97" x2="200.08" y2="648.97"/><line class="cls-6" x1="350.08" y1="698.97" x2="150.08" y2="698.97"/><line class="cls-5" x1="300.08" y1="849.7" x2="200.08" y2="849.7"/><line class="cls-5" x1="300.08" y1="949.7" x2="200.08" y2="949.7"/><line class="cls-6" x1="350.08" y1="899.7" x2="150.08" y2="899.7"/><line class="cls-5" x1="300.08" y1="748.97" x2="200.08" y2="748.97"/><line class="cls-3" x1="100.08" y1="999.57" x2="400.08" y2="999.57"/><path class="cls-4" d="M435.17,991.2h-9.36l-.6,8h.21a4.83,4.83,0,0,1,4.38-2.28c3.66,0,6.33,2.4,6.33,6.45s-2.67,6.93-7.14,6.93a7.6,7.6,0,0,1-6.66-3.57l1.89-1.44c1.11,1.65,2.25,2.82,4.83,2.82,2.88,0,4.47-1.68,4.47-4.41v-.24c0-2.76-1.62-4.41-4.53-4.41a4.62,4.62,0,0,0-3.84,1.77l-2.13-.3.75-11.52h11.4Z"/><path class="cls-4" d="M439.82,999.48c0-6.84,2.22-10.83,7.32-10.83s7.32,4,7.32,10.83-2.22,10.83-7.32,10.83S439.82,1006.32,439.82,999.48Zm12,1.71v-3.42c0-4.2-1.35-6.93-4.71-6.93s-4.71,2.73-4.71,6.93v3.42c0,4.2,1.35,6.93,4.71,6.93S451.85,1005.39,451.85,1001.19Zm-6.57-1.38v-.66c0-.81.48-1.44,1.86-1.44s1.86.63,1.86,1.44v.66c0,.81-.48,1.44-1.86,1.44S445.28,1000.62,445.28,999.81Z"/><path class="cls-4" d="M58.89,991.2H49.53l-.6,8h.21a4.83,4.83,0,0,1,4.38-2.28c3.66,0,6.33,2.4,6.33,6.45s-2.67,6.93-7.14,6.93a7.6,7.6,0,0,1-6.66-3.57l1.89-1.44c1.11,1.65,2.25,2.82,4.83,2.82,2.88,0,4.47-1.68,4.47-4.41v-.24c0-2.76-1.62-4.41-4.53-4.41a4.62,4.62,0,0,0-3.84,1.77l-2.13-.3L47.49,989h11.4Z"/><path class="cls-4" d="M63.54,999.48c0-6.84,2.22-10.83,7.32-10.83s7.32,4,7.32,10.83-2.22,10.83-7.32,10.83S63.54,1006.32,63.54,999.48Zm12,1.71v-3.42c0-4.2-1.35-6.93-4.71-6.93s-4.71,2.73-4.71,6.93v3.42c0,4.2,1.35,6.93,4.71,6.93S75.57,1005.39,75.57,1001.19ZM69,999.81v-.66c0-.81.48-1.44,1.86-1.44s1.86.63,1.86,1.44v.66c0,.81-.48,1.44-1.86,1.44S69,1000.62,69,999.81Z"/><line class="cls-3" x1="100.08" y1="1200.3" x2="400.08" y2="1200.3"/><path class="cls-4" d="M431.48,1210.67v-4.11H421.16v-2.22l9.06-14.61h3.66v14.76H437v2.07h-3.12v4.11Zm-8.07-6.18h8.07v-12.81h-.12Z"/><path class="cls-4" d="M439.82,1200.2c0-6.84,2.22-10.83,7.32-10.83s7.32,4,7.32,10.83-2.22,10.83-7.32,10.83S439.82,1207,439.82,1200.2Zm12,1.71v-3.42c0-4.2-1.35-6.93-4.71-6.93s-4.71,2.73-4.71,6.93v3.42c0,4.2,1.35,6.93,4.71,6.93S451.85,1206.11,451.85,1201.91Zm-6.57-1.38v-.66c0-.81.48-1.44,1.86-1.44s1.86.63,1.86,1.44v.66c0,.81-.48,1.44-1.86,1.44S445.28,1201.34,445.28,1200.53Z"/><path class="cls-4" d="M55.2,1210.67v-4.11H44.88v-2.22l9.06-14.61H57.6v14.76h3.12v2.07H57.6v4.11Zm-8.07-6.18H55.2v-12.81h-.12Z"/><path class="cls-4" d="M63.54,1200.2c0-6.84,2.22-10.83,7.32-10.83s7.32,4,7.32,10.83S76,1211,70.86,1211,63.54,1207,63.54,1200.2Zm12,1.71v-3.42c0-4.2-1.35-6.93-4.71-6.93s-4.71,2.73-4.71,6.93v3.42c0,4.2,1.35,6.93,4.71,6.93S75.57,1206.11,75.57,1201.91ZM69,1200.53v-.66c0-.81.48-1.44,1.86-1.44s1.86.63,1.86,1.44v.66c0,.81-.48,1.44-1.86,1.44S69,1201.34,69,1200.53Z"/><line class="cls-5" x1="300.08" y1="1049.57" x2="200.08" y2="1049.57"/><line class="cls-6" x1="350.08" y1="1099.57" x2="150.08" y2="1099.57"/><line class="cls-5" x1="300.08" y1="1149.57" x2="200.08" y2="1149.57"/><line class="cls-3" x1="100.08" y1="1400.94" x2="400.08" y2="1400.94"/><path class="cls-4" d="M428.24,1399.25c2.91,0,4.38-1.47,4.38-3.48v-.21c0-2.22-1.56-3.36-3.84-3.36a4.68,4.68,0,0,0-4.41,2.67l-1.89-1.44a7.1,7.1,0,0,1,6.36-3.42c3.57,0,6.42,1.89,6.42,5.28a4.92,4.92,0,0,1-4.08,4.89v.12a5.22,5.22,0,0,1,4.5,5.28c0,3.6-2.88,6.09-7.23,6.09a7.79,7.79,0,0,1-6.87-3.57l1.89-1.44a5.38,5.38,0,0,0,5,2.82c2.94,0,4.59-1.44,4.59-3.93v-.24c0-2.46-1.56-3.9-4.62-3.9h-2.49v-2.16Z"/><path class="cls-4" d="M439.82,1400.84c0-6.84,2.22-10.83,7.32-10.83s7.32,4,7.32,10.83-2.22,10.83-7.32,10.83S439.82,1407.68,439.82,1400.84Zm12,1.71v-3.42c0-4.2-1.35-6.93-4.71-6.93s-4.71,2.73-4.71,6.93v3.42c0,4.2,1.35,6.93,4.71,6.93S451.85,1406.75,451.85,1402.55Zm-6.57-1.38v-.66c0-.81.48-1.44,1.86-1.44s1.86.63,1.86,1.44v.66c0,.81-.48,1.44-1.86,1.44S445.28,1402,445.28,1401.17Z"/><path class="cls-4" d="M52,1399.25c2.91,0,4.38-1.47,4.38-3.48v-.21c0-2.22-1.56-3.36-3.84-3.36a4.68,4.68,0,0,0-4.41,2.67l-1.89-1.44a7.1,7.1,0,0,1,6.36-3.42c3.57,0,6.42,1.89,6.42,5.28a4.92,4.92,0,0,1-4.08,4.89v.12a5.22,5.22,0,0,1,4.5,5.28c0,3.6-2.88,6.09-7.23,6.09a7.79,7.79,0,0,1-6.87-3.57l1.89-1.44a5.38,5.38,0,0,0,5,2.82c2.94,0,4.59-1.44,4.59-3.93v-.24c0-2.46-1.56-3.9-4.62-3.9H49.65v-2.16Z"/><path class="cls-4" d="M63.54,1400.84c0-6.84,2.22-10.83,7.32-10.83s7.32,4,7.32,10.83-2.22,10.83-7.32,10.83S63.54,1407.68,63.54,1400.84Zm12,1.71v-3.42c0-4.2-1.35-6.93-4.71-6.93s-4.71,2.73-4.71,6.93v3.42c0,4.2,1.35,6.93,4.71,6.93S75.57,1406.75,75.57,1402.55ZM69,1401.17v-.66c0-.81.48-1.44,1.86-1.44s1.86.63,1.86,1.44v.66c0,.81-.48,1.44-1.86,1.44S69,1402,69,1401.17Z"/><line class="cls-5" x1="300.08" y1="1250.21" x2="200.08" y2="1250.21"/><line class="cls-6" x1="350.08" y1="1300.21" x2="150.08" y2="1300.21"/><line class="cls-5" x1="300.08" y1="1350.21" x2="200.08" y2="1350.21"/><line class="cls-3" x1="100.08" y1="1601.67" x2="400.08" y2="1601.67"/><path class="cls-4" d="M436.25,1611.91h-14v-2.58l7-6.3c2-1.83,3.51-3.78,3.51-5.91v-.36c0-2.52-1.35-4-3.93-4s-3.84,1.41-4.5,3.57l-2.25-.84a6.67,6.67,0,0,1,6.81-4.92c4.17,0,6.51,2.52,6.51,6.06,0,3.18-1.89,5.52-4.68,7.95l-5.85,5.1h11.37Z"/><path class="cls-4" d="M439.82,1601.44c0-6.84,2.22-10.83,7.32-10.83s7.32,4,7.32,10.83-2.22,10.83-7.32,10.83S439.82,1608.28,439.82,1601.44Zm12,1.71v-3.42c0-4.2-1.35-6.93-4.71-6.93s-4.71,2.73-4.71,6.93v3.42c0,4.2,1.35,6.93,4.71,6.93S451.85,1607.35,451.85,1603.15Zm-6.57-1.38v-.66c0-.81.48-1.44,1.86-1.44s1.86.63,1.86,1.44v.66c0,.81-.48,1.44-1.86,1.44S445.28,1602.58,445.28,1601.77Z"/><path class="cls-4" d="M60,1611.91H46v-2.58l7-6.3c2-1.83,3.51-3.78,3.51-5.91v-.36c0-2.52-1.35-4-3.93-4s-3.84,1.41-4.5,3.57l-2.25-.84a6.67,6.67,0,0,1,6.81-4.92c4.17,0,6.51,2.52,6.51,6.06,0,3.18-1.89,5.52-4.68,7.95l-5.85,5.1H60Z"/><path class="cls-4" d="M63.54,1601.44c0-6.84,2.22-10.83,7.32-10.83s7.32,4,7.32,10.83-2.22,10.83-7.32,10.83S63.54,1608.28,63.54,1601.44Zm12,1.71v-3.42c0-4.2-1.35-6.93-4.71-6.93s-4.71,2.73-4.71,6.93v3.42c0,4.2,1.35,6.93,4.71,6.93S75.57,1607.35,75.57,1603.15ZM69,1601.77v-.66c0-.81.48-1.44,1.86-1.44s1.86.63,1.86,1.44v.66c0,.81-.48,1.44-1.86,1.44S69,1602.58,69,1601.77Z"/><line class="cls-5" x1="300.08" y1="1450.94" x2="200.08" y2="1450.94"/><line class="cls-6" x1="350.08" y1="1500.94" x2="150.08" y2="1500.94"/><line class="cls-5" x1="300.08" y1="1651.67" x2="200.08" y2="1651.67"/><line class="cls-6" x1="350.08" y1="1701.67" x2="150.08" y2="1701.67"/><line class="cls-5" x1="300.08" y1="1550.94" x2="200.08" y2="1550.94"/><line class="cls-3" x1="100.08" y1="1802.39" x2="400.08" y2="1802.39"/><path class="cls-4" d="M422.69,1812.76v-2.19h6v-16.88h-.21l-5.28,4.92-1.47-1.59,5.55-5.19h3.93v18.74h5.52v2.19Z"/><path class="cls-4" d="M439.82,1802.29c0-6.83,2.22-10.82,7.32-10.82s7.32,4,7.32,10.82-2.22,10.83-7.32,10.83S439.82,1809.13,439.82,1802.29Zm12,1.71v-3.42c0-4.19-1.35-6.92-4.71-6.92s-4.71,2.73-4.71,6.92V1804c0,4.21,1.35,6.93,4.71,6.93S451.85,1808.21,451.85,1804Zm-6.57-1.38V1802c0-.8.48-1.43,1.86-1.43s1.86.63,1.86,1.43v.66c0,.82-.48,1.44-1.86,1.44S445.28,1803.44,445.28,1802.62Z"/><path class="cls-4" d="M46.41,1812.76v-2.19h6v-16.88H52.2l-5.28,4.92L45.45,1797l5.55-5.19h3.93v18.74h5.52v2.19Z"/><path class="cls-4" d="M63.54,1802.29c0-6.83,2.22-10.82,7.32-10.82s7.32,4,7.32,10.82-2.22,10.83-7.32,10.83S63.54,1809.13,63.54,1802.29Zm12,1.71v-3.42c0-4.19-1.35-6.92-4.71-6.92s-4.71,2.73-4.71,6.92V1804c0,4.21,1.35,6.93,4.71,6.93S75.57,1808.21,75.57,1804ZM69,1802.62V1802c0-.8.48-1.43,1.86-1.43s1.86.63,1.86,1.43v.66c0,.82-.48,1.44-1.86,1.44S69,1803.44,69,1802.62Z"/><line class="cls-5" x1="300.08" y1="1751.67" x2="200.08" y2="1751.67"/><line class="cls-5" x1="300.08" y1="1852.39" x2="200.08" y2="1852.39"/><line class="cls-6" x1="350.08" y1="1902.39" x2="150.08" y2="1902.39"/><line class="cls-5" x1="300.08" y1="1952.39" x2="200.08" y2="1952.39"/></g></svg>