<?xml version="1.0" encoding="utf-8"?>
<!-- Generator: Adobe Illustrator 25.3.1, SVG Export Plug-In . SVG Version: 6.00 Build 0)  -->
<svg version="1.1" id="Layer_1" xmlns="http://www.w3.org/2000/svg" xmlns:xlink="http://www.w3.org/1999/xlink" x="0px" y="0px"
	 viewBox="0 0 500 4000" style="enable-background:new 0 0 500 4000;" xml:space="preserve">
<style type="text/css">
	.st0{fill:none;stroke:#231F20;stroke-width:5;stroke-linecap:round;stroke-linejoin:round;}
	.st1{enable-background:new    ;}
	.st2{fill:#231F20;}
	.st3{fill:none;stroke:#231F20;stroke-width:2.5;stroke-linecap:round;stroke-miterlimit:10;}
	.st4{fill:none;stroke:#231F20;stroke-width:3.5;stroke-linecap:round;stroke-miterlimit:10;}
</style>
<line class="st0" x1="150.1" y1="1999.1" x2="350.1" y2="1999.1"/>
<line class="st0" x1="100.1" y1="2199.9" x2="400.1" y2="2199.9"/>
<g class="st1">
	<path class="st2" d="M416.5,2214.7v-3.1h8.4v-23.7h-0.3l-7.4,6.9l-2.1-2.2l7.8-7.3h5.5v26.3h7.7v3.1H416.5z"/>
	<path class="st2" d="M440.5,2200c0-9.6,3.1-15.2,10.2-15.2c7.1,0,10.2,5.6,10.2,15.2c0,9.6-3.1,15.2-10.2,15.2
		C443.6,2215.2,440.5,2209.6,440.5,2200z M457.3,2202.4v-4.8c0-5.9-1.9-9.7-6.6-9.7s-6.6,3.8-6.6,9.7v4.8c0,5.9,1.9,9.7,6.6,9.7
		S457.3,2208.3,457.3,2202.4z M448.1,2200.5v-0.9c0-1.1,0.7-2,2.6-2c1.9,0,2.6,0.9,2.6,2v0.9c0,1.1-0.7,2-2.6,2
		C448.8,2202.5,448.1,2201.6,448.1,2200.5z"/>
</g>
<g class="st1">
	<path class="st2" d="M40.2,2214.7v-3.1h8.4v-23.7h-0.3l-7.4,6.9l-2.1-2.2l7.8-7.3h5.5v26.3h7.7v3.1H40.2z"/>
	<path class="st2" d="M64.2,2200c0-9.6,3.1-15.2,10.2-15.2c7.1,0,10.2,5.6,10.2,15.2c0,9.6-3.1,15.2-10.2,15.2
		C67.3,2215.2,64.2,2209.6,64.2,2200z M81.1,2202.4v-4.8c0-5.9-1.9-9.7-6.6-9.7c-4.7,0-6.6,3.8-6.6,9.7v4.8c0,5.9,1.9,9.7,6.6,9.7
		C79.2,2212.1,81.1,2208.3,81.1,2202.4z M71.9,2200.5v-0.9c0-1.1,0.7-2,2.6-2c1.9,0,2.6,0.9,2.6,2v0.9c0,1.1-0.7,2-2.6,2
		C72.5,2202.5,71.9,2201.6,71.9,2200.5z"/>
</g>
<line class="st3" x1="300.1" y1="2049.1" x2="200.1" y2="2049.1"/>
<line class="st4" x1="350.1" y1="2099.1" x2="150.1" y2="2099.1"/>
<line class="st3" x1="300.1" y1="2149.1" x2="200.1" y2="2149.1"/>
<line class="st0" x1="100.1" y1="2400.6" x2="400.1" y2="2400.6"/>
<g class="st1">
	<path class="st2" d="M435.5,2415.4h-19.6v-3.6l9.8-8.8c2.9-2.6,4.9-5.3,4.9-8.3v-0.5c0-3.5-1.9-5.5-5.5-5.5c-3.6,0-5.4,2-6.3,5
		l-3.2-1.2c1.1-3.4,3.8-6.9,9.5-6.9c5.8,0,9.1,3.5,9.1,8.5c0,4.5-2.6,7.7-6.6,11.1l-8.2,7.1h15.9V2415.4z"/>
	<path class="st2" d="M440.5,2400.7c0-9.6,3.1-15.2,10.2-15.2c7.1,0,10.2,5.6,10.2,15.2c0,9.6-3.1,15.2-10.2,15.2
		C443.6,2415.9,440.5,2410.3,440.5,2400.7z M457.3,2403.1v-4.8c0-5.9-1.9-9.7-6.6-9.7s-6.6,3.8-6.6,9.7v4.8c0,5.9,1.9,9.7,6.6,9.7
		S457.3,2409,457.3,2403.1z M448.1,2401.2v-0.9c0-1.1,0.7-2,2.6-2c1.9,0,2.6,0.9,2.6,2v0.9c0,1.1-0.7,2-2.6,2
		C448.8,2403.2,448.1,2402.3,448.1,2401.2z"/>
</g>
<g class="st1">
	<path class="st2" d="M59.2,2415.4H39.6v-3.6l9.8-8.8c2.9-2.6,4.9-5.3,4.9-8.3v-0.5c0-3.5-1.9-5.5-5.5-5.5c-3.6,0-5.4,2-6.3,5
		l-3.2-1.2c1.1-3.4,3.8-6.9,9.5-6.9c5.8,0,9.1,3.5,9.1,8.5c0,4.5-2.6,7.7-6.6,11.1l-8.2,7.1h15.9V2415.4z"/>
	<path class="st2" d="M64.2,2400.7c0-9.6,3.1-15.2,10.2-15.2c7.1,0,10.2,5.6,10.2,15.2c0,9.6-3.1,15.2-10.2,15.2
		C67.3,2415.9,64.2,2410.3,64.2,2400.7z M81.1,2403.1v-4.8c0-5.9-1.9-9.7-6.6-9.7c-4.7,0-6.6,3.8-6.6,9.7v4.8c0,5.9,1.9,9.7,6.6,9.7
		C79.2,2412.8,81.1,2409,81.1,2403.1z M71.9,2401.2v-0.9c0-1.1,0.7-2,2.6-2c1.9,0,2.6,0.9,2.6,2v0.9c0,1.1-0.7,2-2.6,2
		C72.5,2403.2,71.9,2402.3,71.9,2401.2z"/>
</g>
<line class="st3" x1="300.1" y1="2249.9" x2="200.1" y2="2249.9"/>
<line class="st4" x1="350.1" y1="2299.9" x2="150.1" y2="2299.9"/>
<line class="st3" x1="300.1" y1="2349.9" x2="200.1" y2="2349.9"/>
<line class="st0" x1="100.1" y1="2601.2" x2="400.1" y2="2601.2"/>
<g class="st1">
	<path class="st2" d="M424.3,2599.1c4.1,0,6.1-2.1,6.1-4.9v-0.3c0-3.1-2.2-4.7-5.4-4.7c-3.1,0-5,1.5-6.2,3.7l-2.6-2
		c1.5-2.4,4.1-4.8,8.9-4.8c5,0,9,2.6,9,7.4c0,3.8-2.5,6-5.7,6.8v0.2c3.2,0.6,6.3,3,6.3,7.4c0,5-4,8.5-10.1,8.5c-5.2,0-7.8-2.5-9.6-5
		l2.6-2c1.6,2.3,3.3,3.9,7,3.9c4.1,0,6.4-2,6.4-5.5v-0.3c0-3.4-2.2-5.5-6.5-5.5H421v-3H424.3z"/>
	<path class="st2" d="M440.5,2601.4c0-9.6,3.1-15.2,10.2-15.2c7.1,0,10.2,5.6,10.2,15.2c0,9.6-3.1,15.2-10.2,15.2
		C443.6,2616.5,440.5,2610.9,440.5,2601.4z M457.3,2603.8v-4.8c0-5.9-1.9-9.7-6.6-9.7s-6.6,3.8-6.6,9.7v4.8c0,5.9,1.9,9.7,6.6,9.7
		S457.3,2609.6,457.3,2603.8z M448.1,2601.8v-0.9c0-1.1,0.7-2,2.6-2c1.9,0,2.6,0.9,2.6,2v0.9c0,1.1-0.7,2-2.6,2
		C448.8,2603.8,448.1,2603,448.1,2601.8z"/>
</g>
<g class="st1">
	<path class="st2" d="M48,2599.1c4.1,0,6.1-2.1,6.1-4.9v-0.3c0-3.1-2.2-4.7-5.4-4.7c-3.1,0-5,1.5-6.2,3.7l-2.6-2
		c1.5-2.4,4.1-4.8,8.9-4.8c5,0,9,2.6,9,7.4c0,3.8-2.5,6-5.7,6.8v0.2c3.2,0.6,6.3,3,6.3,7.4c0,5-4,8.5-10.1,8.5c-5.2,0-7.8-2.5-9.6-5
		l2.6-2c1.6,2.3,3.3,3.9,7,3.9c4.1,0,6.4-2,6.4-5.5v-0.3c0-3.4-2.2-5.5-6.5-5.5h-3.5v-3H48z"/>
	<path class="st2" d="M64.2,2601.4c0-9.6,3.1-15.2,10.2-15.2c7.1,0,10.2,5.6,10.2,15.2c0,9.6-3.1,15.2-10.2,15.2
		C67.3,2616.5,64.2,2610.9,64.2,2601.4z M81.1,2603.8v-4.8c0-5.9-1.9-9.7-6.6-9.7c-4.7,0-6.6,3.8-6.6,9.7v4.8c0,5.9,1.9,9.7,6.6,9.7
		C79.2,2613.5,81.1,2609.6,81.1,2603.8z M71.9,2601.8v-0.9c0-1.1,0.7-2,2.6-2c1.9,0,2.6,0.9,2.6,2v0.9c0,1.1-0.7,2-2.6,2
		C72.5,2603.8,71.9,2603,71.9,2601.8z"/>
</g>
<line class="st3" x1="300.1" y1="2450.5" x2="200.1" y2="2450.5"/>
<line class="st4" x1="350.1" y1="2500.5" x2="150.1" y2="2500.5"/>
<line class="st3" x1="300.1" y1="2550.5" x2="200.1" y2="2550.5"/>
<line class="st0" x1="100.1" y1="2801.9" x2="400.1" y2="2801.9"/>
<g class="st1">
	<path class="st2" d="M428.8,2816.6v-5.8h-14.5v-3.1l12.7-20.5h5.1v20.7h4.4v2.9h-4.4v5.8H428.8z M417.5,2808h11.3V2790h-0.2
		L417.5,2808z"/>
	<path class="st2" d="M440.5,2802c0-9.6,3.1-15.2,10.2-15.2c7.1,0,10.2,5.6,10.2,15.2c0,9.6-3.1,15.2-10.2,15.2
		C443.6,2817.1,440.5,2811.5,440.5,2802z M457.3,2804.4v-4.8c0-5.9-1.9-9.7-6.6-9.7s-6.6,3.8-6.6,9.7v4.8c0,5.9,1.9,9.7,6.6,9.7
		S457.3,2810.2,457.3,2804.4z M448.1,2802.4v-0.9c0-1.1,0.7-2,2.6-2c1.9,0,2.6,0.9,2.6,2v0.9c0,1.1-0.7,2-2.6,2
		C448.8,2804.4,448.1,2803.6,448.1,2802.4z"/>
</g>
<g class="st1">
	<path class="st2" d="M52.5,2816.6v-5.8H38.1v-3.1l12.7-20.5h5.1v20.7h4.4v2.9h-4.4v5.8H52.5z M41.2,2808h11.3V2790h-0.2L41.2,2808z
		"/>
	<path class="st2" d="M64.2,2802c0-9.6,3.1-15.2,10.2-15.2c7.1,0,10.2,5.6,10.2,15.2c0,9.6-3.1,15.2-10.2,15.2
		C67.3,2817.1,64.2,2811.5,64.2,2802z M81.1,2804.4v-4.8c0-5.9-1.9-9.7-6.6-9.7c-4.7,0-6.6,3.8-6.6,9.7v4.8c0,5.9,1.9,9.7,6.6,9.7
		C79.2,2814.1,81.1,2810.2,81.1,2804.4z M71.9,2802.4v-0.9c0-1.1,0.7-2,2.6-2c1.9,0,2.6,0.9,2.6,2v0.9c0,1.1-0.7,2-2.6,2
		C72.5,2804.4,71.9,2803.6,71.9,2802.4z"/>
</g>
<line class="st3" x1="300.1" y1="2651.2" x2="200.1" y2="2651.2"/>
<line class="st4" x1="350.1" y1="2701.2" x2="150.1" y2="2701.2"/>
<line class="st3" x1="300.1" y1="2851.9" x2="200.1" y2="2851.9"/>
<line class="st3" x1="300.1" y1="2951.9" x2="200.1" y2="2951.9"/>
<line class="st4" x1="350.1" y1="2901.9" x2="150.1" y2="2901.9"/>
<line class="st3" x1="300.1" y1="2751.2" x2="200.1" y2="2751.2"/>
<line class="st0" x1="100.1" y1="3001.8" x2="400.1" y2="3001.8"/>
<g class="st1">
	<path class="st2" d="M434,2990.4h-13.1l-0.8,11.2h0.3c1.4-2,3-3.2,6.1-3.2c5.1,0,8.9,3.4,8.9,9c0,5.7-3.7,9.7-10,9.7
		c-5,0-7.5-2.5-9.3-5l2.6-2c1.6,2.3,3.2,3.9,6.8,3.9c4,0,6.3-2.4,6.3-6.2v-0.3c0-3.9-2.3-6.2-6.3-6.2c-2.8,0-4.1,1.1-5.4,2.5l-3-0.4
		l1.1-16.1h16V2990.4z"/>
	<path class="st2" d="M440.5,3002c0-9.6,3.1-15.2,10.2-15.2c7.1,0,10.2,5.6,10.2,15.2c0,9.6-3.1,15.2-10.2,15.2
		C443.6,3017.1,440.5,3011.5,440.5,3002z M457.3,3004.4v-4.8c0-5.9-1.9-9.7-6.6-9.7s-6.6,3.8-6.6,9.7v4.8c0,5.9,1.9,9.7,6.6,9.7
		S457.3,3010.2,457.3,3004.4z M448.1,3002.4v-0.9c0-1.1,0.7-2,2.6-2c1.9,0,2.6,0.9,2.6,2v0.9c0,1.1-0.7,2-2.6,2
		C448.8,3004.4,448.1,3003.6,448.1,3002.4z"/>
</g>
<g class="st1">
	<path class="st2" d="M57.7,2990.4H44.6l-0.8,11.2h0.3c1.4-2,3-3.2,6.1-3.2c5.1,0,8.9,3.4,8.9,9c0,5.7-3.7,9.7-10,9.7
		c-5,0-7.5-2.5-9.3-5l2.6-2c1.6,2.3,3.2,3.9,6.8,3.9c4,0,6.3-2.4,6.3-6.2v-0.3c0-3.9-2.3-6.2-6.3-6.2c-2.8,0-4.1,1.1-5.4,2.5l-3-0.4
		l1.1-16.1h16V2990.4z"/>
	<path class="st2" d="M64.2,3002c0-9.6,3.1-15.2,10.2-15.2c7.1,0,10.2,5.6,10.2,15.2c0,9.6-3.1,15.2-10.2,15.2
		C67.3,3017.1,64.2,3011.5,64.2,3002z M81.1,3004.4v-4.8c0-5.9-1.9-9.7-6.6-9.7c-4.7,0-6.6,3.8-6.6,9.7v4.8c0,5.9,1.9,9.7,6.6,9.7
		C79.2,3014.1,81.1,3010.2,81.1,3004.4z M71.9,3002.4v-0.9c0-1.1,0.7-2,2.6-2c1.9,0,2.6,0.9,2.6,2v0.9c0,1.1-0.7,2-2.6,2
		C72.5,3004.4,71.9,3003.6,71.9,3002.4z"/>
</g>
<line class="st0" x1="100.1" y1="3202.5" x2="400.1" y2="3202.5"/>
<g class="st1">
	<path class="st2" d="M415.6,3206.6c0-8.7,5.8-15.5,10.6-18.6h4.5c-6.4,4.6-9.9,8.4-11.6,15.2l0.2,0.1c1.4-2.4,3.6-4.2,7.2-4.2
		c5.1,0,8.8,3.5,8.8,9c0,5.8-3.9,9.7-9.9,9.7C419.4,3217.9,415.6,3213.6,415.6,3206.6z M431.9,3208.6v-0.3c0-3.9-2.4-6.3-6.3-6.3
		s-6.3,2.3-6.3,6.3v0.3c0,3.9,2.4,6.3,6.3,6.3S431.9,3212.6,431.9,3208.6z"/>
	<path class="st2" d="M440.5,3202.7c0-9.6,3.1-15.2,10.2-15.2c7.1,0,10.2,5.6,10.2,15.2c0,9.6-3.1,15.2-10.2,15.2
		C443.6,3217.9,440.5,3212.3,440.5,3202.7z M457.3,3205.1v-4.8c0-5.9-1.9-9.7-6.6-9.7s-6.6,3.8-6.6,9.7v4.8c0,5.9,1.9,9.7,6.6,9.7
		S457.3,3211,457.3,3205.1z M448.1,3203.2v-0.9c0-1.1,0.7-2,2.6-2c1.9,0,2.6,0.9,2.6,2v0.9c0,1.1-0.7,2-2.6,2
		C448.8,3205.2,448.1,3204.3,448.1,3203.2z"/>
</g>
<g class="st1">
	<path class="st2" d="M39.3,3206.6c0-8.7,5.8-15.5,10.6-18.6h4.5c-6.4,4.6-9.9,8.4-11.6,15.2l0.2,0.1c1.4-2.4,3.6-4.2,7.2-4.2
		c5.1,0,8.8,3.5,8.8,9c0,5.8-3.9,9.7-9.9,9.7C43.1,3217.9,39.3,3213.6,39.3,3206.6z M55.6,3208.6v-0.3c0-3.9-2.4-6.3-6.3-6.3
		s-6.3,2.3-6.3,6.3v0.3c0,3.9,2.4,6.3,6.3,6.3S55.6,3212.6,55.6,3208.6z"/>
	<path class="st2" d="M64.2,3202.7c0-9.6,3.1-15.2,10.2-15.2c7.1,0,10.2,5.6,10.2,15.2c0,9.6-3.1,15.2-10.2,15.2
		C67.3,3217.9,64.2,3212.3,64.2,3202.7z M81.1,3205.1v-4.8c0-5.9-1.9-9.7-6.6-9.7c-4.7,0-6.6,3.8-6.6,9.7v4.8c0,5.9,1.9,9.7,6.6,9.7
		C79.2,3214.8,81.1,3211,81.1,3205.1z M71.9,3203.2v-0.9c0-1.1,0.7-2,2.6-2c1.9,0,2.6,0.9,2.6,2v0.9c0,1.1-0.7,2-2.6,2
		C72.5,3205.2,71.9,3204.3,71.9,3203.2z"/>
</g>
<line class="st3" x1="300.1" y1="3051.8" x2="200.1" y2="3051.8"/>
<line class="st4" x1="350.1" y1="3101.8" x2="150.1" y2="3101.8"/>
<line class="st3" x1="300.1" y1="3151.8" x2="200.1" y2="3151.8"/>
<line class="st0" x1="100.1" y1="3403.2" x2="400.1" y2="3403.2"/>
<g class="st1">
	<path class="st2" d="M420.2,3418l11.5-26.3h-12.9v5.5h-3.2v-8.5h19.6v3.1L424,3418H420.2z"/>
	<path class="st2" d="M440.5,3403.3c0-9.6,3.1-15.2,10.2-15.2c7.1,0,10.2,5.6,10.2,15.2c0,9.6-3.1,15.2-10.2,15.2
		C443.6,3418.5,440.5,3412.9,440.5,3403.3z M457.3,3405.7v-4.8c0-5.9-1.9-9.7-6.6-9.7s-6.6,3.8-6.6,9.7v4.8c0,5.9,1.9,9.7,6.6,9.7
		S457.3,3411.6,457.3,3405.7z M448.1,3403.8v-0.9c0-1.1,0.7-2,2.6-2c1.9,0,2.6,0.9,2.6,2v0.9c0,1.1-0.7,2-2.6,2
		C448.8,3405.8,448.1,3404.9,448.1,3403.8z"/>
</g>
<g class="st1">
	<path class="st2" d="M43.9,3418l11.5-26.3H42.5v5.5h-3.2v-8.5H59v3.1L47.7,3418H43.9z"/>
	<path class="st2" d="M64.2,3403.3c0-9.6,3.1-15.2,10.2-15.2c7.1,0,10.2,5.6,10.2,15.2c0,9.6-3.1,15.2-10.2,15.2
		C67.3,3418.5,64.2,3412.9,64.2,3403.3z M81.1,3405.7v-4.8c0-5.9-1.9-9.7-6.6-9.7c-4.7,0-6.6,3.8-6.6,9.7v4.8c0,5.9,1.9,9.7,6.6,9.7
		C79.2,3415.4,81.1,3411.6,81.1,3405.7z M71.9,3403.8v-0.9c0-1.1,0.7-2,2.6-2c1.9,0,2.6,0.9,2.6,2v0.9c0,1.1-0.7,2-2.6,2
		C72.5,3405.8,71.9,3404.9,71.9,3403.8z"/>
</g>
<line class="st3" x1="300.1" y1="3252.4" x2="200.1" y2="3252.4"/>
<line class="st4" x1="350.1" y1="3302.4" x2="150.1" y2="3302.4"/>
<line class="st3" x1="300.1" y1="3352.4" x2="200.1" y2="3352.4"/>
<line class="st0" x1="100.1" y1="3603.9" x2="400.1" y2="3603.9"/>
<g class="st1">
	<path class="st2" d="M415.2,3610.6c0-4,2.4-6.3,6-7.3v-0.3c-3.1-1-5.1-3.5-5.1-6.9c0-4.5,3.5-7.4,9.4-7.4s9.4,2.9,9.4,7.4
		c0,3.4-2,5.8-5.1,6.9v0.3c3.6,1,6,3.3,6,7.3c0,4.8-3.5,8.5-10.3,8.5S415.2,3615.4,415.2,3610.6z M432.2,3610.8v-0.9
		c0-3.4-2.4-5.3-6.6-5.3s-6.6,1.9-6.6,5.3v0.9c0,3.3,2.5,5.3,6.6,5.3S432.2,3614.1,432.2,3610.8z M431.4,3597v-0.6
		c0-3-2.1-4.7-5.8-4.7s-5.8,1.7-5.8,4.7v0.6c0,3,2.1,4.7,5.8,4.7S431.4,3600,431.4,3597z"/>
	<path class="st2" d="M440.5,3603.9c0-9.6,3.1-15.2,10.2-15.2c7.1,0,10.2,5.6,10.2,15.2c0,9.6-3.1,15.2-10.2,15.2
		C443.6,3619.1,440.5,3613.5,440.5,3603.9z M457.3,3606.3v-4.8c0-5.9-1.9-9.7-6.6-9.7s-6.6,3.8-6.6,9.7v4.8c0,5.9,1.9,9.7,6.6,9.7
		S457.3,3612.2,457.3,3606.3z M448.1,3604.4v-0.9c0-1.1,0.7-2,2.6-2c1.9,0,2.6,0.9,2.6,2v0.9c0,1.1-0.7,2-2.6,2
		C448.8,3606.4,448.1,3605.5,448.1,3604.4z"/>
</g>
<g class="st1">
	<path class="st2" d="M39,3610.6c0-4,2.4-6.3,6-7.3v-0.3c-3.1-1.1-5.1-3.5-5.1-6.9c0-4.5,3.5-7.4,9.4-7.4c5.9,0,9.4,2.9,9.4,7.4
		c0,3.4-2,5.8-5.1,6.9v0.3c3.6,1,6,3.3,6,7.3c0,4.8-3.5,8.5-10.3,8.5S39,3615.4,39,3610.6z M55.9,3610.8v-0.9c0-3.4-2.4-5.3-6.6-5.3
		s-6.6,1.9-6.6,5.3v0.9c0,3.3,2.5,5.3,6.6,5.3S55.9,3614.1,55.9,3610.8z M55.1,3597.1v-0.6c0-3-2.1-4.7-5.8-4.7
		c-3.7,0-5.8,1.7-5.8,4.7v0.6c0,3,2.1,4.7,5.8,4.7C53,3601.8,55.1,3600,55.1,3597.1z"/>
	<path class="st2" d="M64.2,3603.9c0-9.6,3.1-15.2,10.2-15.2c7.1,0,10.2,5.6,10.2,15.2s-3.1,15.2-10.2,15.2
		C67.3,3619.1,64.2,3613.5,64.2,3603.9z M81.1,3606.3v-4.8c0-5.9-1.9-9.7-6.6-9.7c-4.7,0-6.6,3.8-6.6,9.7v4.8c0,5.9,1.9,9.7,6.6,9.7
		C79.2,3616,81.1,3612.2,81.1,3606.3z M71.9,3604.4v-0.9c0-1.1,0.7-2,2.6-2c1.9,0,2.6,0.9,2.6,2v0.9c0,1.1-0.7,2-2.6,2
		C72.5,3606.4,71.9,3605.5,71.9,3604.4z"/>
</g>
<line class="st3" x1="300.1" y1="3453.2" x2="200.1" y2="3453.2"/>
<line class="st4" x1="350.1" y1="3503.2" x2="150.1" y2="3503.2"/>
<line class="st3" x1="300.1" y1="3653.9" x2="200.1" y2="3653.9"/>
<line class="st4" x1="350.1" y1="3703.9" x2="150.1" y2="3703.9"/>
<line class="st3" x1="300.1" y1="3553.2" x2="200.1" y2="3553.2"/>
<line class="st0" x1="100.1" y1="3804.6" x2="400.1" y2="3804.6"/>
<g class="st1">
	<path class="st2" d="M424.8,3819.5h-4.5c6.4-4.6,9.9-8.4,11.6-15.2l-0.2-0.1c-1.4,2.4-3.6,4.2-7.2,4.2c-5.1,0-8.8-3.5-8.8-9
		c0-5.8,3.9-9.7,9.9-9.7c6.2,0,10,4.3,10,11.3C435.5,3809.6,429.6,3816.4,424.8,3819.5z M431.9,3799.2v-0.3c0-3.9-2.4-6.3-6.3-6.3
		s-6.3,2.3-6.3,6.3v0.3c0,3.9,2.4,6.3,6.3,6.3S431.9,3803.2,431.9,3799.2z"/>
	<path class="st2" d="M440.5,3804.8c0-9.6,3.1-15.2,10.2-15.2c7.1,0,10.2,5.6,10.2,15.2c0,9.6-3.1,15.2-10.2,15.2
		C443.6,3820,440.5,3814.4,440.5,3804.8z M457.3,3807.2v-4.8c0-5.9-1.9-9.7-6.6-9.7s-6.6,3.8-6.6,9.7v4.8c0,5.9,1.9,9.7,6.6,9.7
		S457.3,3813.1,457.3,3807.2z M448.1,3805.3v-0.9c0-1.1,0.7-2,2.6-2c1.9,0,2.6,0.9,2.6,2v0.9c0,1.1-0.7,2-2.6,2
		C448.8,3807.3,448.1,3806.4,448.1,3805.3z"/>
</g>
<g class="st1">
	<path class="st2" d="M48.5,3819.5H44c6.4-4.6,9.9-8.4,11.6-15.2l-0.2-0.1c-1.4,2.4-3.6,4.2-7.2,4.2c-5.1,0-8.8-3.5-8.8-9
		c0-5.8,3.9-9.7,9.9-9.7c6.2,0,10,4.3,10,11.3C59.2,3809.6,53.3,3816.4,48.5,3819.5z M55.6,3799.2v-0.3c0-3.9-2.4-6.3-6.3-6.3
		s-6.3,2.3-6.3,6.3v0.3c0,3.9,2.4,6.3,6.3,6.3S55.6,3803.2,55.6,3799.2z"/>
	<path class="st2" d="M64.2,3804.8c0-9.6,3.1-15.2,10.2-15.2c7.1,0,10.2,5.6,10.2,15.2c0,9.6-3.1,15.2-10.2,15.2
		C67.3,3820,64.2,3814.4,64.2,3804.8z M81.1,3807.2v-4.8c0-5.9-1.9-9.7-6.6-9.7c-4.7,0-6.6,3.8-6.6,9.7v4.8c0,5.9,1.9,9.7,6.6,9.7
		C79.2,3816.9,81.1,3813.1,81.1,3807.2z M71.9,3805.3v-0.9c0-1.1,0.7-2,2.6-2c1.9,0,2.6,0.9,2.6,2v0.9c0,1.1-0.7,2-2.6,2
		C72.5,3807.3,71.9,3806.4,71.9,3805.3z"/>
</g>
<line class="st3" x1="300.1" y1="3753.9" x2="200.1" y2="3753.9"/>
<line class="st0" x1="100.1" y1="397.5" x2="400.1" y2="397.5"/>
<g class="st1">
	<path class="st2" d="M415.2,404.3c0-4,2.4-6.3,6-7.3v-0.3c-3.1-1-5.1-3.5-5.1-6.9c0-4.5,3.5-7.4,9.4-7.4s9.4,2.9,9.4,7.4
		c0,3.4-2,5.8-5.1,6.9v0.3c3.6,1,6,3.3,6,7.3c0,4.8-3.5,8.5-10.3,8.5S415.2,409.1,415.2,404.3z M432.2,404.5v-0.9
		c0-3.4-2.4-5.3-6.6-5.3s-6.6,1.9-6.6,5.3v0.9c0,3.3,2.5,5.3,6.6,5.3S432.2,407.8,432.2,404.5z M431.4,390.7v-0.6
		c0-3-2.1-4.7-5.8-4.7s-5.8,1.7-5.8,4.7v0.6c0,3,2.1,4.7,5.8,4.7S431.4,393.7,431.4,390.7z"/>
	<path class="st2" d="M440.5,397.6c0-9.6,3.1-15.2,10.2-15.2c7.1,0,10.2,5.6,10.2,15.2c0,9.6-3.1,15.2-10.2,15.2
		C443.6,412.8,440.5,407.2,440.5,397.6z M457.3,400v-4.8c0-5.9-1.9-9.7-6.6-9.7s-6.6,3.8-6.6,9.7v4.8c0,5.9,1.9,9.7,6.6,9.7
		S457.3,405.9,457.3,400z M448.1,398.1v-0.9c0-1.1,0.7-2,2.6-2c1.9,0,2.6,0.9,2.6,2v0.9c0,1.1-0.7,2-2.6,2
		C448.8,400.1,448.1,399.2,448.1,398.1z"/>
</g>
<g class="st1">
	<path class="st2" d="M39,404.3c0-4,2.4-6.3,6-7.3v-0.3c-3.1-1-5.1-3.5-5.1-6.9c0-4.5,3.5-7.4,9.4-7.4c5.9,0,9.4,2.9,9.4,7.4
		c0,3.4-2,5.8-5.1,6.9v0.3c3.6,1,6,3.3,6,7.3c0,4.8-3.5,8.5-10.3,8.5S39,409.1,39,404.3z M55.9,404.5v-0.9c0-3.4-2.4-5.3-6.6-5.3
		s-6.6,1.9-6.6,5.3v0.9c0,3.3,2.5,5.3,6.6,5.3S55.9,407.8,55.9,404.5z M55.1,390.7v-0.6c0-3-2.1-4.7-5.8-4.7c-3.7,0-5.8,1.7-5.8,4.7
		v0.6c0,3,2.1,4.7,5.8,4.7C53,395.4,55.1,393.7,55.1,390.7z"/>
	<path class="st2" d="M64.2,397.6c0-9.6,3.1-15.2,10.2-15.2c7.1,0,10.2,5.6,10.2,15.2c0,9.6-3.1,15.2-10.2,15.2
		C67.3,412.8,64.2,407.2,64.2,397.6z M81.1,400v-4.8c0-5.9-1.9-9.7-6.6-9.7c-4.7,0-6.6,3.8-6.6,9.7v4.8c0,5.9,1.9,9.7,6.6,9.7
		C79.2,409.7,81.1,405.9,81.1,400z M71.9,398.1v-0.9c0-1.1,0.7-2,2.6-2c1.9,0,2.6,0.9,2.6,2v0.9c0,1.1-0.7,2-2.6,2
		C72.5,400.1,71.9,399.2,71.9,398.1z"/>
</g>
<line class="st3" x1="300.1" y1="246.7" x2="200.1" y2="246.7"/>
<line class="st4" x1="350.1" y1="296.7" x2="150.1" y2="296.7"/>
<line class="st3" x1="300.1" y1="346.7" x2="200.1" y2="346.7"/>
<line class="st0" x1="100.1" y1="598.1" x2="400.1" y2="598.1"/>
<g class="st1">
	<path class="st2" d="M420.2,612.9l11.5-26.3h-12.9v5.5h-3.2v-8.5h19.6v3.1L424,612.9H420.2z"/>
	<path class="st2" d="M440.5,598.2c0-9.6,3.1-15.2,10.2-15.2c7.1,0,10.2,5.6,10.2,15.2c0,9.6-3.1,15.2-10.2,15.2
		C443.6,613.4,440.5,607.8,440.5,598.2z M457.3,600.6v-4.8c0-5.9-1.9-9.7-6.6-9.7s-6.6,3.8-6.6,9.7v4.8c0,5.9,1.9,9.7,6.6,9.7
		S457.3,606.5,457.3,600.6z M448.1,598.7v-0.9c0-1.1,0.7-2,2.6-2c1.9,0,2.6,0.9,2.6,2v0.9c0,1.1-0.7,2-2.6,2
		C448.8,600.7,448.1,599.8,448.1,598.7z"/>
</g>
<g class="st1">
	<path class="st2" d="M43.9,612.9l11.5-26.3H42.5v5.5h-3.2v-8.5H59v3.1l-11.3,26.2H43.9z"/>
	<path class="st2" d="M64.2,598.2c0-9.6,3.1-15.2,10.2-15.2c7.1,0,10.2,5.6,10.2,15.2c0,9.6-3.1,15.2-10.2,15.2
		C67.3,613.4,64.2,607.8,64.2,598.2z M81.1,600.6v-4.8c0-5.9-1.9-9.7-6.6-9.7c-4.7,0-6.6,3.8-6.6,9.7v4.8c0,5.9,1.9,9.7,6.6,9.7
		C79.2,610.3,81.1,606.5,81.1,600.6z M71.9,598.7v-0.9c0-1.1,0.7-2,2.6-2c1.9,0,2.6,0.9,2.6,2v0.9c0,1.1-0.7,2-2.6,2
		C72.5,600.7,71.9,599.8,71.9,598.7z"/>
</g>
<line class="st3" x1="300.1" y1="447.4" x2="200.1" y2="447.4"/>
<line class="st4" x1="350.1" y1="497.4" x2="150.1" y2="497.4"/>
<line class="st3" x1="300.1" y1="547.4" x2="200.1" y2="547.4"/>
<line class="st0" x1="100.1" y1="196.8" x2="400.1" y2="196.8"/>
<g class="st1">
	<path class="st2" d="M424.8,211.6h-4.5c6.4-4.6,9.9-8.4,11.6-15.2l-0.2-0.1c-1.4,2.4-3.6,4.2-7.2,4.2c-5.1,0-8.8-3.5-8.8-9
		c0-5.8,3.9-9.7,9.9-9.7c6.2,0,10,4.3,10,11.3C435.5,201.8,429.6,208.6,424.8,211.6z M431.9,191.4V191c0-3.9-2.4-6.3-6.3-6.3
		s-6.3,2.3-6.3,6.3v0.3c0,3.9,2.4,6.3,6.3,6.3S431.9,195.3,431.9,191.4z"/>
	<path class="st2" d="M440.5,197c0-9.6,3.1-15.2,10.2-15.2c7.1,0,10.2,5.6,10.2,15.2c0,9.6-3.1,15.2-10.2,15.2
		C443.6,212.1,440.5,206.5,440.5,197z M457.3,199.4v-4.8c0-5.9-1.9-9.7-6.6-9.7s-6.6,3.8-6.6,9.7v4.8c0,5.9,1.9,9.7,6.6,9.7
		S457.3,205.2,457.3,199.4z M448.1,197.4v-0.9c0-1.1,0.7-2,2.6-2c1.9,0,2.6,0.9,2.6,2v0.9c0,1.1-0.7,2-2.6,2
		C448.8,199.4,448.1,198.6,448.1,197.4z"/>
</g>
<g class="st1">
	<path class="st2" d="M48.5,211.6H44c6.4-4.6,9.9-8.4,11.6-15.2l-0.2-0.1c-1.4,2.4-3.6,4.2-7.2,4.2c-5.1,0-8.8-3.5-8.8-9
		c0-5.8,3.9-9.7,9.9-9.7c6.2,0,10,4.3,10,11.3C59.2,201.8,53.3,208.6,48.5,211.6z M55.6,191.4V191c0-3.9-2.4-6.3-6.3-6.3
		s-6.3,2.3-6.3,6.3v0.3c0,3.9,2.4,6.3,6.3,6.3S55.6,195.3,55.6,191.4z"/>
	<path class="st2" d="M64.2,197c0-9.6,3.1-15.2,10.2-15.2c7.1,0,10.2,5.6,10.2,15.2c0,9.6-3.1,15.2-10.2,15.2
		C67.3,212.1,64.2,206.5,64.2,197z M81.1,199.4v-4.8c0-5.9-1.9-9.7-6.6-9.7c-4.7,0-6.6,3.8-6.6,9.7v4.8c0,5.9,1.9,9.7,6.6,9.7
		C79.2,209.1,81.1,205.2,81.1,199.4z M71.9,197.4v-0.9c0-1.1,0.7-2,2.6-2c1.9,0,2.6,0.9,2.6,2v0.9c0,1.1-0.7,2-2.6,2
		C72.5,199.4,71.9,198.6,71.9,197.4z"/>
</g>
<line class="st0" x1="100.1" y1="798.8" x2="400.1" y2="798.8"/>
<g class="st1">
	<path class="st2" d="M415.6,802.8c0-8.7,5.8-15.5,10.6-18.6h4.5c-6.4,4.6-9.9,8.4-11.6,15.2l0.2,0.1c1.4-2.4,3.6-4.2,7.2-4.2
		c5.1,0,8.8,3.5,8.8,9c0,5.8-3.9,9.7-9.9,9.7C419.4,814,415.6,809.7,415.6,802.8z M431.9,804.8v-0.3c0-3.9-2.4-6.3-6.3-6.3
		s-6.3,2.3-6.3,6.3v0.3c0,3.9,2.4,6.3,6.3,6.3S431.9,808.7,431.9,804.8z"/>
	<path class="st2" d="M440.5,798.8c0-9.6,3.1-15.2,10.2-15.2c7.1,0,10.2,5.6,10.2,15.2c0,9.6-3.1,15.2-10.2,15.2
		C443.6,814,440.5,808.4,440.5,798.8z M457.3,801.2v-4.8c0-5.9-1.9-9.7-6.6-9.7s-6.6,3.8-6.6,9.7v4.8c0,5.9,1.9,9.7,6.6,9.7
		S457.3,807.1,457.3,801.2z M448.1,799.3v-0.9c0-1.1,0.7-2,2.6-2c1.9,0,2.6,0.9,2.6,2v0.9c0,1.1-0.7,2-2.6,2
		C448.8,801.3,448.1,800.4,448.1,799.3z"/>
</g>
<g class="st1">
	<path class="st2" d="M39.3,802.8c0-8.7,5.8-15.5,10.6-18.6h4.5c-6.4,4.6-9.9,8.4-11.6,15.2l0.2,0.1c1.4-2.4,3.6-4.2,7.2-4.2
		c5.1,0,8.8,3.5,8.8,9c0,5.8-3.9,9.7-9.9,9.7C43.1,814,39.3,809.7,39.3,802.8z M55.6,804.8v-0.3c0-3.9-2.4-6.3-6.3-6.3
		s-6.3,2.3-6.3,6.3v0.3c0,3.9,2.4,6.3,6.3,6.3S55.6,808.7,55.6,804.8z"/>
	<path class="st2" d="M64.2,798.8c0-9.6,3.1-15.2,10.2-15.2c7.1,0,10.2,5.6,10.2,15.2c0,9.6-3.1,15.2-10.2,15.2
		C67.3,814,64.2,808.4,64.2,798.8z M81.1,801.2v-4.8c0-5.9-1.9-9.7-6.6-9.7c-4.7,0-6.6,3.8-6.6,9.7v4.8c0,5.9,1.9,9.7,6.6,9.7
		C79.2,810.9,81.1,807.1,81.1,801.2z M71.9,799.3v-0.9c0-1.1,0.7-2,2.6-2c1.9,0,2.6,0.9,2.6,2v0.9c0,1.1-0.7,2-2.6,2
		C72.5,801.3,71.9,800.4,71.9,799.3z"/>
</g>
<line class="st3" x1="300.1" y1="648.1" x2="200.1" y2="648.1"/>
<line class="st4" x1="350.1" y1="698.1" x2="150.1" y2="698.1"/>
<line class="st3" x1="300.1" y1="848.8" x2="200.1" y2="848.8"/>
<line class="st3" x1="300.1" y1="948.8" x2="200.1" y2="948.8"/>
<line class="st4" x1="350.1" y1="898.8" x2="150.1" y2="898.8"/>
<line class="st3" x1="300.1" y1="748.1" x2="200.1" y2="748.1"/>
<line class="st0" x1="100.1" y1="998.7" x2="400.1" y2="998.7"/>
<g class="st1">
	<path class="st2" d="M434,987.3h-13.1l-0.8,11.2h0.3c1.4-2,3-3.2,6.1-3.2c5.1,0,8.9,3.4,8.9,9c0,5.7-3.7,9.7-10,9.7
		c-5,0-7.5-2.5-9.3-5l2.6-2c1.6,2.3,3.2,3.9,6.8,3.9c4,0,6.3-2.4,6.3-6.2v-0.3c0-3.9-2.3-6.2-6.3-6.2c-2.8,0-4.1,1.1-5.4,2.5l-3-0.4
		l1.1-16.1h16V987.3z"/>
	<path class="st2" d="M440.5,998.8c0-9.6,3.1-15.2,10.2-15.2c7.1,0,10.2,5.6,10.2,15.2c0,9.6-3.1,15.2-10.2,15.2
		C443.6,1014,440.5,1008.4,440.5,998.8z M457.3,1001.2v-4.8c0-5.9-1.9-9.7-6.6-9.7s-6.6,3.8-6.6,9.7v4.8c0,5.9,1.9,9.7,6.6,9.7
		S457.3,1007.1,457.3,1001.2z M448.1,999.3v-0.9c0-1.1,0.7-2,2.6-2c1.9,0,2.6,0.9,2.6,2v0.9c0,1.1-0.7,2-2.6,2
		C448.8,1001.3,448.1,1000.4,448.1,999.3z"/>
</g>
<g class="st1">
	<path class="st2" d="M57.7,987.3H44.6l-0.8,11.2h0.3c1.4-2,3-3.2,6.1-3.2c5.1,0,8.9,3.4,8.9,9c0,5.7-3.7,9.7-10,9.7
		c-5,0-7.5-2.5-9.3-5l2.6-2c1.6,2.3,3.2,3.9,6.8,3.9c4,0,6.3-2.4,6.3-6.2v-0.3c0-3.9-2.3-6.2-6.3-6.2c-2.8,0-4.1,1.1-5.4,2.5l-3-0.4
		l1.1-16.1h16V987.3z"/>
	<path class="st2" d="M64.2,998.8c0-9.6,3.1-15.2,10.2-15.2c7.1,0,10.2,5.6,10.2,15.2c0,9.6-3.1,15.2-10.2,15.2
		C67.3,1014,64.2,1008.4,64.2,998.8z M81.1,1001.2v-4.8c0-5.9-1.9-9.7-6.6-9.7c-4.7,0-6.6,3.8-6.6,9.7v4.8c0,5.9,1.9,9.7,6.6,9.7
		C79.2,1010.9,81.1,1007.1,81.1,1001.2z M71.9,999.3v-0.9c0-1.1,0.7-2,2.6-2c1.9,0,2.6,0.9,2.6,2v0.9c0,1.1-0.7,2-2.6,2
		C72.5,1001.3,71.9,1000.4,71.9,999.3z"/>
</g>
<line class="st0" x1="100.1" y1="1199.4" x2="400.1" y2="1199.4"/>
<g class="st1">
	<path class="st2" d="M428.8,1214.2v-5.8h-14.5v-3.1l12.7-20.5h5.1v20.7h4.4v2.9h-4.4v5.8H428.8z M417.5,1205.6h11.3v-17.9h-0.2
		L417.5,1205.6z"/>
	<path class="st2" d="M440.5,1199.6c0-9.6,3.1-15.2,10.2-15.2c7.1,0,10.2,5.6,10.2,15.2c0,9.6-3.1,15.2-10.2,15.2
		C443.6,1214.7,440.5,1209.2,440.5,1199.6z M457.3,1202v-4.8c0-5.9-1.9-9.7-6.6-9.7s-6.6,3.8-6.6,9.7v4.8c0,5.9,1.9,9.7,6.6,9.7
		S457.3,1207.9,457.3,1202z M448.1,1200v-0.9c0-1.1,0.7-2,2.6-2c1.9,0,2.6,0.9,2.6,2v0.9c0,1.1-0.7,2-2.6,2
		C448.8,1202.1,448.1,1201.2,448.1,1200z"/>
</g>
<g class="st1">
	<path class="st2" d="M52.5,1214.2v-5.8H38.1v-3.1l12.7-20.5h5.1v20.7h4.4v2.9h-4.4v5.8H52.5z M41.2,1205.6h11.3v-17.9h-0.2
		L41.2,1205.6z"/>
	<path class="st2" d="M64.2,1199.6c0-9.6,3.1-15.2,10.2-15.2c7.1,0,10.2,5.6,10.2,15.2c0,9.6-3.1,15.2-10.2,15.2
		C67.3,1214.7,64.2,1209.2,64.2,1199.6z M81.1,1202v-4.8c0-5.9-1.9-9.7-6.6-9.7c-4.7,0-6.6,3.8-6.6,9.7v4.8c0,5.9,1.9,9.7,6.6,9.7
		C79.2,1211.7,81.1,1207.9,81.1,1202z M71.9,1200v-0.9c0-1.1,0.7-2,2.6-2c1.9,0,2.6,0.9,2.6,2v0.9c0,1.1-0.7,2-2.6,2
		C72.5,1202.1,71.9,1201.2,71.9,1200z"/>
</g>
<line class="st3" x1="300.1" y1="1048.7" x2="200.1" y2="1048.7"/>
<line class="st4" x1="350.1" y1="1098.7" x2="150.1" y2="1098.7"/>
<line class="st3" x1="300.1" y1="1148.7" x2="200.1" y2="1148.7"/>
<line class="st0" x1="100.1" y1="1400.1" x2="400.1" y2="1400.1"/>
<g class="st1">
	<path class="st2" d="M424.3,1398c4.1,0,6.1-2.1,6.1-4.9v-0.3c0-3.1-2.2-4.7-5.4-4.7c-3.1,0-5,1.5-6.2,3.7l-2.6-2
		c1.5-2.4,4.1-4.8,8.9-4.8c5,0,9,2.6,9,7.4c0,3.8-2.5,6-5.7,6.8v0.2c3.2,0.6,6.3,3,6.3,7.4c0,5-4,8.5-10.1,8.5c-5.2,0-7.8-2.5-9.6-5
		l2.6-2c1.6,2.3,3.3,3.9,7,3.9c4.1,0,6.4-2,6.4-5.5v-0.3c0-3.4-2.2-5.5-6.5-5.5H421v-3H424.3z"/>
	<path class="st2" d="M440.5,1400.2c0-9.6,3.1-15.2,10.2-15.2c7.1,0,10.2,5.6,10.2,15.2c0,9.6-3.1,15.2-10.2,15.2
		C443.6,1415.4,440.5,1409.8,440.5,1400.2z M457.3,1402.6v-4.8c0-5.9-1.9-9.7-6.6-9.7s-6.6,3.8-6.6,9.7v4.8c0,5.9,1.9,9.7,6.6,9.7
		S457.3,1408.5,457.3,1402.6z M448.1,1400.7v-0.9c0-1.1,0.7-2,2.6-2c1.9,0,2.6,0.9,2.6,2v0.9c0,1.1-0.7,2-2.6,2
		C448.8,1402.7,448.1,1401.8,448.1,1400.7z"/>
</g>
<g class="st1">
	<path class="st2" d="M48,1398c4.1,0,6.1-2.1,6.1-4.9v-0.3c0-3.1-2.2-4.7-5.4-4.7c-3.1,0-5,1.5-6.2,3.7l-2.6-2
		c1.5-2.4,4.1-4.8,8.9-4.8c5,0,9,2.6,9,7.4c0,3.8-2.5,6-5.7,6.8v0.2c3.2,0.6,6.3,3,6.3,7.4c0,5-4,8.5-10.1,8.5c-5.2,0-7.8-2.5-9.6-5
		l2.6-2c1.6,2.3,3.3,3.9,7,3.9c4.1,0,6.4-2,6.4-5.5v-0.3c0-3.4-2.2-5.5-6.5-5.5h-3.5v-3H48z"/>
	<path class="st2" d="M64.2,1400.2c0-9.6,3.1-15.2,10.2-15.2c7.1,0,10.2,5.6,10.2,15.2c0,9.6-3.1,15.2-10.2,15.2
		C67.3,1415.4,64.2,1409.8,64.2,1400.2z M81.1,1402.6v-4.8c0-5.9-1.9-9.7-6.6-9.7c-4.7,0-6.6,3.8-6.6,9.7v4.8c0,5.9,1.9,9.7,6.6,9.7
		C79.2,1412.3,81.1,1408.5,81.1,1402.6z M71.9,1400.7v-0.9c0-1.1,0.7-2,2.6-2c1.9,0,2.6,0.9,2.6,2v0.9c0,1.1-0.7,2-2.6,2
		C72.5,1402.7,71.9,1401.8,71.9,1400.7z"/>
</g>
<line class="st3" x1="300.1" y1="1249.3" x2="200.1" y2="1249.3"/>
<line class="st4" x1="350.1" y1="1299.3" x2="150.1" y2="1299.3"/>
<line class="st3" x1="300.1" y1="1349.3" x2="200.1" y2="1349.3"/>
<line class="st0" x1="100.1" y1="1600.8" x2="400.1" y2="1600.8"/>
<g class="st1">
	<path class="st2" d="M435.5,1615.5h-19.6v-3.6l9.8-8.8c2.9-2.6,4.9-5.3,4.9-8.3v-0.5c0-3.5-1.9-5.5-5.5-5.5c-3.6,0-5.4,2-6.3,5
		l-3.2-1.2c1.1-3.4,3.8-6.9,9.5-6.9c5.8,0,9.1,3.5,9.1,8.5c0,4.5-2.6,7.7-6.6,11.1l-8.2,7.1h15.9V1615.5z"/>
	<path class="st2" d="M440.5,1600.8c0-9.6,3.1-15.2,10.2-15.2c7.1,0,10.2,5.6,10.2,15.2c0,9.6-3.1,15.2-10.2,15.2
		C443.6,1616,440.5,1610.4,440.5,1600.8z M457.3,1603.2v-4.8c0-5.9-1.9-9.7-6.6-9.7s-6.6,3.8-6.6,9.7v4.8c0,5.9,1.9,9.7,6.6,9.7
		S457.3,1609.1,457.3,1603.2z M448.1,1601.3v-0.9c0-1.1,0.7-2,2.6-2c1.9,0,2.6,0.9,2.6,2v0.9c0,1.1-0.7,2-2.6,2
		C448.8,1603.3,448.1,1602.4,448.1,1601.3z"/>
</g>
<g class="st1">
	<path class="st2" d="M59.2,1615.5H39.6v-3.6l9.8-8.8c2.9-2.6,4.9-5.3,4.9-8.3v-0.5c0-3.5-1.9-5.5-5.5-5.5c-3.6,0-5.4,2-6.3,5
		l-3.2-1.2c1.1-3.4,3.8-6.9,9.5-6.9c5.8,0,9.1,3.5,9.1,8.5c0,4.5-2.6,7.7-6.6,11.1l-8.2,7.1h15.9V1615.5z"/>
	<path class="st2" d="M64.2,1600.8c0-9.6,3.1-15.2,10.2-15.2c7.1,0,10.2,5.6,10.2,15.2c0,9.6-3.1,15.2-10.2,15.2
		C67.3,1616,64.2,1610.4,64.2,1600.8z M81.1,1603.2v-4.8c0-5.9-1.9-9.7-6.6-9.7c-4.7,0-6.6,3.8-6.6,9.7v4.8c0,5.9,1.9,9.7,6.6,9.7
		C79.2,1612.9,81.1,1609.1,81.1,1603.2z M71.9,1601.3v-0.9c0-1.1,0.7-2,2.6-2c1.9,0,2.6,0.9,2.6,2v0.9c0,1.1-0.7,2-2.6,2
		C72.5,1603.3,71.9,1602.4,71.9,1601.3z"/>
</g>
<line class="st3" x1="300.1" y1="1450.1" x2="200.1" y2="1450.1"/>
<line class="st4" x1="350.1" y1="1500.1" x2="150.1" y2="1500.1"/>
<line class="st3" x1="300.1" y1="1650.8" x2="200.1" y2="1650.8"/>
<line class="st4" x1="350.1" y1="1700.8" x2="150.1" y2="1700.8"/>
<line class="st3" x1="300.1" y1="1550.1" x2="200.1" y2="1550.1"/>
<line class="st0" x1="100.1" y1="1801.5" x2="400.1" y2="1801.5"/>
<g class="st1">
	<path class="st2" d="M416.5,1816.3v-3.1h8.4v-23.7h-0.3l-7.4,6.9l-2.1-2.2l7.8-7.3h5.5v26.3h7.7v3.1H416.5z"/>
	<path class="st2" d="M440.5,1801.7c0-9.6,3.1-15.2,10.2-15.2c7.1,0,10.2,5.6,10.2,15.2c0,9.6-3.1,15.2-10.2,15.2
		C443.6,1816.8,440.5,1811.2,440.5,1801.7z M457.3,1804.1v-4.8c0-5.9-1.9-9.7-6.6-9.7s-6.6,3.8-6.6,9.7v4.8c0,5.9,1.9,9.7,6.6,9.7
		S457.3,1809.9,457.3,1804.1z M448.1,1802.1v-0.9c0-1.1,0.7-2,2.6-2c1.9,0,2.6,0.9,2.6,2v0.9c0,1.1-0.7,2-2.6,2
		C448.8,1804.1,448.1,1803.3,448.1,1802.1z"/>
</g>
<g class="st1">
	<path class="st2" d="M40.2,1816.3v-3.1h8.4v-23.7h-0.3l-7.4,6.9l-2.1-2.2l7.8-7.3h5.5v26.3h7.7v3.1H40.2z"/>
	<path class="st2" d="M64.2,1801.7c0-9.6,3.1-15.2,10.2-15.2c7.1,0,10.2,5.6,10.2,15.2c0,9.6-3.1,15.2-10.2,15.2
		C67.3,1816.8,64.2,1811.2,64.2,1801.7z M81.1,1804.1v-4.8c0-5.9-1.9-9.7-6.6-9.7c-4.7,0-6.6,3.8-6.6,9.7v4.8c0,5.9,1.9,9.7,6.6,9.7
		C79.2,1813.8,81.1,1809.9,81.1,1804.1z M71.9,1802.1v-0.9c0-1.1,0.7-2,2.6-2c1.9,0,2.6,0.9,2.6,2v0.9c0,1.1-0.7,2-2.6,2
		C72.5,1804.1,71.9,1803.3,71.9,1802.1z"/>
</g>
<line class="st3" x1="300.1" y1="1750.8" x2="200.1" y2="1750.8"/>
<line class="st3" x1="300.1" y1="1851.5" x2="200.1" y2="1851.5"/>
<line class="st4" x1="350.1" y1="1901.5" x2="150.1" y2="1901.5"/>
<line class="st3" x1="300.1" y1="1951.5" x2="200.1" y2="1951.5"/>
</svg>
