<?xml version="1.0" encoding="utf-8"?>
<!-- Generator: Adobe Illustrator 25.4.1, SVG Export Plug-In . SVG Version: 6.00 Build 0)  -->
<svg version="1.1" id="Layer_1" xmlns="http://www.w3.org/2000/svg" xmlns:xlink="http://www.w3.org/1999/xlink" x="0px" y="0px"
	 viewBox="0 0 1029.4 1029.4" style="enable-background:new 0 0 1029.4 1029.4;" xml:space="preserve">
<style type="text/css">
	.st0{fill:none;}
	.st1{fill:none;stroke:#231F20;stroke-width:12.5;stroke-miterlimit:10;}
	.st2{fill:none;stroke:#231F20;stroke-width:5;stroke-linecap:round;stroke-miterlimit:10;}
	.st3{fill:#231F20;}
	.st4{display:none;enable-background:new    ;}
	.st5{font-family:'IBMPlexMono-Text';}
	.st6{font-size:30px;}
	.st7{fill:none;stroke:#231F20;stroke-width:5;stroke-miterlimit:10;}
</style>
<g id="EXPORT">
	<polyline class="st0" points="868.2,868.2 866.4,866.4 851.8,851.8 844.4,844.4 	"/>
	<polyline class="st0" points="185,844.4 177.6,851.8 163,866.4 161.1,868.2 	"/>
	<line class="st0" x1="601.1" y1="1004.5" x2="597.5" y2="984.1"/>
	<line class="st0" x1="684.8" y1="982.1" x2="677.7" y2="962.6"/>
	<polyline class="st0" points="764.7,947.7 763.4,945.5 753,927.5 747.9,918.5 	"/>
	<polyline class="st0" points="947.7,764.7 945.5,763.4 927.5,753 918.5,747.9 	"/>
	<line class="st0" x1="982.1" y1="684.8" x2="962.6" y2="677.7"/>
	<line class="st0" x1="45.3" y1="431.9" x2="24.9" y2="428.3"/>
	<line class="st0" x1="1004.5" y1="601.1" x2="984.1" y2="597.5"/>
	<polyline class="st0" points="1014.7,514.7 1012.1,514.7 991.4,514.7 981,514.7 	"/>
	<line class="st0" x1="45.3" y1="597.5" x2="24.9" y2="601.1"/>
	<line class="st0" x1="1004.5" y1="428.3" x2="984.1" y2="431.9"/>
	<line class="st0" x1="66.8" y1="677.7" x2="47.3" y2="684.8"/>
	<polyline class="st0" points="110.9,747.9 101.9,753 83.9,763.4 81.7,764.7 	"/>
	<polyline class="st0" points="281.5,918.5 276.4,927.5 266,945.5 264.7,947.7 	"/>
	<line class="st0" x1="351.7" y1="962.6" x2="344.6" y2="982.1"/>
	<line class="st0" x1="431.9" y1="984.1" x2="428.3" y2="1004.5"/>
	<polyline class="st0" points="868.2,868.2 866.4,866.4 851.8,851.8 844.4,844.4 	"/>
	<polyline class="st0" points="185,844.4 177.6,851.8 163,866.4 161.1,868.2 	"/>
	<line class="st0" x1="601.1" y1="1004.5" x2="597.5" y2="984.1"/>
	<line class="st0" x1="684.8" y1="982.1" x2="677.7" y2="962.6"/>
	<polyline class="st0" points="764.7,947.7 763.4,945.5 753,927.5 747.9,918.5 	"/>
	<polyline class="st0" points="947.7,764.7 945.5,763.4 927.5,753 918.5,747.9 	"/>
	<line class="st0" x1="982.1" y1="684.8" x2="962.6" y2="677.7"/>
	<line class="st0" x1="45.3" y1="431.9" x2="24.9" y2="428.3"/>
	<line class="st0" x1="1004.5" y1="601.1" x2="984.1" y2="597.5"/>
	<polyline class="st0" points="1014.7,514.7 1012.1,514.7 991.4,514.7 981,514.7 	"/>
	<line class="st0" x1="45.3" y1="597.5" x2="24.9" y2="601.1"/>
	<line class="st0" x1="1004.5" y1="428.3" x2="984.1" y2="431.9"/>
	<line class="st0" x1="66.8" y1="677.7" x2="47.3" y2="684.8"/>
	<polyline class="st0" points="110.9,747.9 101.9,753 83.9,763.4 81.7,764.7 	"/>
	<polyline class="st0" points="281.5,918.5 276.4,927.5 266,945.5 264.7,947.7 	"/>
	<line class="st0" x1="351.7" y1="962.6" x2="344.6" y2="982.1"/>
	<line class="st0" x1="431.9" y1="984.1" x2="428.3" y2="1004.5"/>
	<polyline class="st1" points="788,514.7 636.4,514.7 636.4,549.7 	"/>
	<polyline class="st1" points="241.4,514.7 393,514.7 393,549.7 	"/>
	<polygon class="st2" points="844.8,485.9 804.8,514.7 844.8,543.5 997,543.5 997,485.9 	"/>
	<polygon class="st2" points="184.6,543.5 224.6,514.7 184.6,485.9 32.4,485.9 32.4,543.5 	"/>
	<rect x="504.7" y="504.7" class="st3" width="20" height="20"/>
	<path class="st3" d="M522.2,507.2v15h-15v-15H522.2 M527.2,502.2h-25v25h25V502.2z"/>
</g>
<text transform="matrix(1 0 0 1 32.4 475.9)" class="st4 st5 st6">SPEED</text>
<text transform="matrix(1 0 0 1 943.0011 476.0201)" class="st4 st5 st6">ALT</text>
<g>
	<path d="M33.7,472.7l2-1.8c1.6,2,3.4,2.9,5.8,2.9c2.9,0,4.4-1.4,4.4-3.7c0-1.9-1-2.9-3.7-3.4l-2.3-0.4c-4-0.7-5.4-3-5.4-5.8
		c0-3.9,2.7-5.9,7.1-5.9c3.3,0,5.6,1.2,7,3.1l-1.9,1.8c-1.1-1.5-2.7-2.5-5.1-2.5c-2.7,0-4.1,1.1-4.1,3.4c0,1.8,0.9,2.9,3.7,3.4
		l2.2,0.4c4,0.7,5.4,2.9,5.4,5.8c0,3.9-2.7,6.3-7.5,6.3C37.6,476.3,35.2,474.8,33.7,472.7z"/>
	<path d="M53,475.9V455h7.7c3.9,0,6.1,2.3,6.1,6.1s-2.1,6.1-6.1,6.1h-4.8v8.6L53,475.9L53,475.9z M55.9,464.8h4.5c2.1,0,3.3-1,3.3-3
		v-1.4c0-1.9-1.2-3-3.3-3h-4.5V464.8z"/>
	<path d="M71,475.9V455h13v2.5H73.9v6.6h9.7v2.5h-9.7v6.9H84v2.5H71V475.9z"/>
	<path d="M89,475.9V455h13v2.5H91.9v6.6h9.7v2.5h-9.7v6.9H102v2.5H89V475.9z"/>
	<path d="M107.1,455h6c5.2,0,7.7,3.6,7.7,10.5c0,6.8-2.5,10.5-7.7,10.5h-6V455z M112.9,473.4c3.2,0,4.8-2.3,4.8-6.3v-3.4
		c0-4-1.6-6.3-4.8-6.3h-3v16L112.9,473.4L112.9,473.4z"/>
</g>
<g>
	<path d="M957.2,476l-1.7-5.8h-7l-1.7,5.8h-3l6.3-20.9h3.9l6.3,20.9H957.2z M952.1,458.1h-0.3l-2.8,9.7h5.8L952.1,458.1z"/>
	<path d="M964.5,476v-20.9h2.9v18.4h9.8v2.5H964.5z"/>
	<path d="M989.4,457.6V476h-2.9v-18.4h-6.8v-2.5h16.5v2.5H989.4z"/>
</g>
<g id="EXPORT_00000062898806876547992250000014663426795531075241_">
	<polygon class="st3" points="514.7,53.7 495.3,87.4 534.1,87.4 	"/>
	<line class="st7" x1="495.3" y1="94.4" x2="534.1" y2="94.4"/>
</g>
</svg>
