<?xml version="1.0" encoding="utf-8"?>
<!-- Generator: Adobe Illustrator 25.4.1, SVG Export Plug-In . SVG Version: 6.00 Build 0)  -->
<svg version="1.1" id="Layer_1" xmlns="http://www.w3.org/2000/svg" xmlns:xlink="http://www.w3.org/1999/xlink" x="0px" y="0px"
	 viewBox="0 0 1000 1000" style="enable-background:new 0 0 1000 1000;" xml:space="preserve">
<style type="text/css">
	.st0{fill:none;stroke:#FFFFFF;stroke-width:6;stroke-linecap:round;stroke-miterlimit:10;}
	.st1{fill:none;stroke:#FFFFFF;stroke-width:4;stroke-linecap:round;stroke-miterlimit:10;}
	.st2{fill:none;}
	.st3{fill:#FFFFFF;}
	.st4{fill:#383838;}
</style>
<g>
	<polyline class="st0" points="170.3,185 162.9,177.6 148.3,163 146.4,161.1 	"/>
	<line class="st1" x1="417.2" y1="45.3" x2="413.6" y2="24.9"/>
	<line class="st0" x1="337" y1="66.8" x2="329.9" y2="47.3"/>
	<polyline class="st0" points="268.9,114.6 262.5,103.3 249.5,80.8 247.9,78 	"/>
	<polyline class="st0" points="96.2,281.5 87.2,276.4 69.2,266 67,264.7 	"/>
	<line class="st2" x1="52.1" y1="351.7" x2="32.6" y2="344.6"/>
	<line class="st2" x1="967.4" y1="344.6" x2="947.9" y2="351.7"/>
	<polyline class="st0" points="933,264.7 930.8,266 912.8,276.4 903.8,281.5 	"/>
	<polyline class="st0" points="752.1,78 750.5,80.8 737.5,103.3 731.1,114.6 	"/>
	<line class="st1" x1="670.1" y1="47.3" x2="663" y2="66.8"/>
	<line class="st1" x1="586.4" y1="24.9" x2="582.8" y2="45.3"/>
	<polyline class="st0" points="853.5,161.1 851.7,163 837.1,177.6 829.7,185 	"/>
	<line class="st1" x1="417.2" y1="45.3" x2="413.6" y2="24.9"/>
	<line class="st1" x1="337" y1="66.8" x2="329.9" y2="47.3"/>
	<polyline class="st0" points="268.7,113.8 236.2,57.6 232.2,50.7 	"/>
	<polyline class="st0" points="96.2,281.5 87.2,276.4 69.2,266 67,264.7 	"/>
	<line class="st2" x1="52.1" y1="351.7" x2="32.6" y2="344.6"/>
	<line class="st2" x1="967.4" y1="344.6" x2="947.9" y2="351.7"/>
	<polyline class="st0" points="933,264.7 930.8,266 912.8,276.4 903.8,281.5 	"/>
	<polyline class="st0" points="767.9,50.7 763.8,57.6 731.3,113.8 	"/>
	<line class="st1" x1="670.1" y1="47.3" x2="663" y2="66.8"/>
	<line class="st1" x1="586.4" y1="24.9" x2="582.8" y2="45.3"/>
</g>
<polygon class="st3" points="500,48.4 523.2,18.1 476.8,18.1 "/>
<g>
	<path class="st4" d="M469.9,9 M570.3,140.6 M530.1,9 M429.7,140.6"/>
</g>
</svg>
