<svg xmlns="http://www.w3.org/2000/svg" viewBox="0 0 500 4000"><defs><style>.cls-1{fill:#a1834b;}.cls-2{fill:#2aaae1;}.cls-3,.cls-5,.cls-6{fill:none;stroke:#231f20;stroke-linecap:round;}.cls-3{stroke-linejoin:round;stroke-width:5px;}.cls-4{font-size:42px;fill:#231f20;font-family:IBMPlexMono, IBM Plex Mono;}.cls-5,.cls-6{stroke-miterlimit:10;}.cls-5{stroke-width:2.5px;}.cls-6{stroke-width:3.5px;}</style></defs><g id="EXPORT"><rect class="cls-1" y="2000" width="500" height="2000"/><rect class="cls-2" width="500" height="2000"/><line class="cls-3" x1="150.08" y1="1999.12" x2="350.08" y2="1999.12"/><line class="cls-3" x1="100.08" y1="2199.85" x2="400.08" y2="2199.85"/><text class="cls-4" transform="translate(412.94 2214.66)">10</text><text class="cls-4" transform="translate(36.66 2214.66)">10</text><line class="cls-5" x1="300.08" y1="2049.12" x2="200.08" y2="2049.12"/><line class="cls-6" x1="350.08" y1="2099.12" x2="150.08" y2="2099.12"/><line class="cls-5" x1="300.08" y1="2149.12" x2="200.08" y2="2149.12"/><line class="cls-3" x1="100.08" y1="2400.58" x2="400.08" y2="2400.58"/><text class="cls-4" transform="translate(412.94 2415.39)">20</text><text class="cls-4" transform="translate(36.66 2415.39)">20</text><line class="cls-5" x1="300.08" y1="2249.85" x2="200.08" y2="2249.85"/><line class="cls-6" x1="350.08" y1="2299.85" x2="150.08" y2="2299.85"/><line class="cls-5" x1="300.08" y1="2349.85" x2="200.08" y2="2349.85"/><line class="cls-3" x1="100.08" y1="2601.21" x2="400.08" y2="2601.21"/><text class="cls-4" transform="translate(412.94 2616.03)">30</text><text class="cls-4" transform="translate(36.66 2616.03)">30</text><line class="cls-5" x1="300.08" y1="2450.49" x2="200.08" y2="2450.49"/><line class="cls-6" x1="350.08" y1="2500.49" x2="150.08" y2="2500.49"/><line class="cls-5" x1="300.08" y1="2550.49" x2="200.08" y2="2550.49"/><line class="cls-3" x1="100.08" y1="2801.94" x2="400.08" y2="2801.94"/><text class="cls-4" transform="translate(412.94 2816.63)">40</text><text class="cls-4" transform="translate(36.66 2816.63)">40</text><line class="cls-5" x1="300.08" y1="2651.21" x2="200.08" y2="2651.21"/><line class="cls-6" x1="350.08" y1="2701.21" x2="150.08" y2="2701.21"/><line class="cls-5" x1="300.08" y1="2851.94" x2="200.08" y2="2851.94"/><line class="cls-5" x1="300.08" y1="2951.94" x2="200.08" y2="2951.94"/><line class="cls-6" x1="350.08" y1="2901.94" x2="150.08" y2="2901.94"/><line class="cls-5" x1="300.08" y1="2751.21" x2="200.08" y2="2751.21"/><line class="cls-3" x1="100.08" y1="3001.82" x2="400.08" y2="3001.82"/><text class="cls-4" transform="translate(412.94 3016.63)">50</text><text class="cls-4" transform="translate(36.66 3016.63)">50</text><line class="cls-3" x1="100.08" y1="3202.54" x2="400.08" y2="3202.54"/><text class="cls-4" transform="translate(412.94 3217.36)">60</text><text class="cls-4" transform="translate(36.66 3217.36)">60</text><line class="cls-5" x1="300.08" y1="3051.82" x2="200.08" y2="3051.82"/><line class="cls-6" x1="350.08" y1="3101.82" x2="150.08" y2="3101.82"/><line class="cls-5" x1="300.08" y1="3151.82" x2="200.08" y2="3151.82"/><line class="cls-3" x1="100.08" y1="3403.18" x2="400.08" y2="3403.18"/><text class="cls-4" transform="translate(412.94 3417.99)">70</text><text class="cls-4" transform="translate(36.66 3417.99)">70</text><line class="cls-5" x1="300.08" y1="3252.45" x2="200.08" y2="3252.45"/><line class="cls-6" x1="350.08" y1="3302.45" x2="150.08" y2="3302.45"/><line class="cls-5" x1="300.08" y1="3352.45" x2="200.08" y2="3352.45"/><line class="cls-3" x1="100.08" y1="3603.91" x2="400.08" y2="3603.91"/><text class="cls-4" transform="translate(412.94 3618.59)">80</text><text class="cls-4" transform="translate(36.66 3618.6)">80</text><line class="cls-5" x1="300.08" y1="3453.18" x2="200.08" y2="3453.18"/><line class="cls-6" x1="350.08" y1="3503.18" x2="150.08" y2="3503.18"/><line class="cls-5" x1="300.08" y1="3653.91" x2="200.08" y2="3653.91"/><line class="cls-6" x1="350.08" y1="3703.91" x2="150.08" y2="3703.91"/><line class="cls-5" x1="300.08" y1="3553.18" x2="200.08" y2="3553.18"/><line class="cls-3" x1="100.08" y1="3804.64" x2="400.08" y2="3804.64"/><text class="cls-4" transform="translate(412.94 3819.45)">90</text><text class="cls-4" transform="translate(36.66 3819.45)">90</text><line class="cls-5" x1="300.08" y1="3753.91" x2="200.08" y2="3753.91"/><line class="cls-3" x1="100.08" y1="397.46" x2="400.08" y2="397.46"/><text class="cls-4" transform="translate(412.94 412.27)">80</text><text class="cls-4" transform="translate(36.66 412.27)">80</text><line class="cls-5" x1="300.08" y1="246.73" x2="200.08" y2="246.73"/><line class="cls-6" x1="350.08" y1="296.73" x2="150.08" y2="296.73"/><line class="cls-5" x1="300.08" y1="346.73" x2="200.08" y2="346.73"/><line class="cls-3" x1="100.08" y1="598.09" x2="400.08" y2="598.09"/><text class="cls-4" transform="translate(412.94 612.91)">70</text><text class="cls-4" transform="translate(36.66 612.91)">70</text><line class="cls-5" x1="300.08" y1="447.37" x2="200.08" y2="447.37"/><line class="cls-6" x1="350.08" y1="497.37" x2="150.08" y2="497.37"/><line class="cls-5" x1="300.08" y1="547.37" x2="200.08" y2="547.37"/><line class="cls-3" x1="100.08" y1="196.82" x2="400.08" y2="196.82"/><text class="cls-4" transform="translate(412.94 211.63)">90</text><text class="cls-4" transform="translate(36.66 211.63)">90</text><line class="cls-3" x1="100.08" y1="798.82" x2="400.08" y2="798.82"/><text class="cls-4" transform="translate(412.94 813.51)">60</text><text class="cls-4" transform="translate(36.66 813.51)">60</text><line class="cls-5" x1="300.08" y1="648.09" x2="200.08" y2="648.09"/><line class="cls-6" x1="350.08" y1="698.09" x2="150.08" y2="698.09"/><line class="cls-5" x1="300.08" y1="848.82" x2="200.08" y2="848.82"/><line class="cls-5" x1="300.08" y1="948.82" x2="200.08" y2="948.82"/><line class="cls-6" x1="350.08" y1="898.82" x2="150.08" y2="898.82"/><line class="cls-5" x1="300.08" y1="748.09" x2="200.08" y2="748.09"/><line class="cls-3" x1="100.08" y1="998.7" x2="400.08" y2="998.7"/><text class="cls-4" transform="translate(412.94 1013.51)">50</text><text class="cls-4" transform="translate(36.66 1013.51)">50</text><line class="cls-3" x1="100.08" y1="1199.42" x2="400.08" y2="1199.42"/><text class="cls-4" transform="translate(412.94 1214.24)">40</text><text class="cls-4" transform="translate(36.66 1214.24)">40</text><line class="cls-5" x1="300.08" y1="1048.7" x2="200.08" y2="1048.7"/><line class="cls-6" x1="350.08" y1="1098.7" x2="150.08" y2="1098.7"/><line class="cls-5" x1="300.08" y1="1148.7" x2="200.08" y2="1148.7"/><line class="cls-3" x1="100.08" y1="1400.06" x2="400.08" y2="1400.06"/><text class="cls-4" transform="translate(412.94 1414.87)">30</text><text class="cls-4" transform="translate(36.66 1414.87)">30</text><line class="cls-5" x1="300.08" y1="1249.33" x2="200.08" y2="1249.33"/><line class="cls-6" x1="350.08" y1="1299.33" x2="150.08" y2="1299.33"/><line class="cls-5" x1="300.08" y1="1349.33" x2="200.08" y2="1349.33"/><line class="cls-3" x1="100.08" y1="1600.79" x2="400.08" y2="1600.79"/><text class="cls-4" transform="translate(412.94 1615.47)">20</text><text class="cls-4" transform="translate(36.66 1615.48)">20</text><line class="cls-5" x1="300.08" y1="1450.06" x2="200.08" y2="1450.06"/><line class="cls-6" x1="350.08" y1="1500.06" x2="150.08" y2="1500.06"/><line class="cls-5" x1="300.08" y1="1650.79" x2="200.08" y2="1650.79"/><line class="cls-6" x1="350.08" y1="1700.79" x2="150.08" y2="1700.79"/><line class="cls-5" x1="300.08" y1="1550.06" x2="200.08" y2="1550.06"/><line class="cls-3" x1="100.08" y1="1801.52" x2="400.08" y2="1801.52"/><text class="cls-4" transform="translate(412.94 1816.33)">10</text><text class="cls-4" transform="translate(36.66 1816.33)">10</text><line class="cls-5" x1="300.08" y1="1750.79" x2="200.08" y2="1750.79"/><line class="cls-5" x1="300.08" y1="1851.52" x2="200.08" y2="1851.52"/><line class="cls-6" x1="350.08" y1="1901.51" x2="150.08" y2="1901.51"/><line class="cls-5" x1="300.08" y1="1951.52" x2="200.08" y2="1951.52"/></g></svg>