<?xml version="1.0" encoding="utf-8"?>
<!-- Generator: Adobe Illustrator 25.4.1, SVG Export Plug-In . SVG Version: 6.00 Build 0)  -->
<svg version="1.1" xmlns="http://www.w3.org/2000/svg" xmlns:xlink="http://www.w3.org/1999/xlink" x="0px" y="0px"
	 viewBox="0 0 1029.4 1029.4" style="enable-background:new 0 0 1029.4 1029.4;" xml:space="preserve">
<style type="text/css">
	.st0{display:none;}
	.st1{enable-background:new    ;}
	.st2{font-family:'IBMPlexMono-Text';}
	.st3{font-size:30px;}
	.st4{fill:none;stroke:#FFFFFF;stroke-width:6;stroke-linecap:round;stroke-miterlimit:10;}
	.st5{fill:none;stroke:#FFFFFF;stroke-width:4;stroke-linecap:round;stroke-miterlimit:10;}
	.st6{fill:none;}
	.st7{fill:#FFFFFF;}
	.st8{fill:#383838;}
</style>
<g id="Layer_1" class="st0">
	<text transform="matrix(1 0 0 1 32.4 475.9)" class="st1 st2 st3">SPEED</text>
	<text transform="matrix(1 0 0 1 943.0011 476.0201)" class="st1 st2 st3">ALT</text>
</g>
<g id="Layer_2">
	<g>
		<g>
			<polyline class="st4" points="185,185 177.6,177.6 163,163 161.1,161.1 			"/>
			<line class="st5" x1="431.9" y1="45.3" x2="428.3" y2="24.9"/>
			<line class="st4" x1="351.7" y1="66.8" x2="344.6" y2="47.3"/>
			<polyline class="st4" points="283.6,114.6 277.2,103.3 264.2,80.8 262.6,78 			"/>
			<polyline class="st4" points="110.9,281.5 101.9,276.4 83.9,266 81.7,264.7 			"/>
			<line class="st6" x1="66.8" y1="351.7" x2="47.3" y2="344.6"/>
			<line class="st6" x1="982.1" y1="344.6" x2="962.6" y2="351.7"/>
			<polyline class="st4" points="947.7,264.7 945.5,266 927.5,276.4 918.5,281.5 			"/>
			<polyline class="st4" points="766.8,78 765.2,80.8 752.2,103.3 745.8,114.6 			"/>
			<line class="st5" x1="684.8" y1="47.3" x2="677.7" y2="66.8"/>
			<line class="st5" x1="601.1" y1="24.9" x2="597.5" y2="45.3"/>
			<polyline class="st4" points="868.2,161.1 866.4,163 851.8,177.6 844.4,185 			"/>
			<line class="st5" x1="431.9" y1="45.3" x2="428.3" y2="24.9"/>
			<line class="st5" x1="351.7" y1="66.8" x2="344.6" y2="47.3"/>
			<polyline class="st4" points="283.4,113.8 250.9,57.6 246.9,50.7 			"/>
			<polyline class="st4" points="110.9,281.5 101.9,276.4 83.9,266 81.7,264.7 			"/>
			<line class="st6" x1="66.8" y1="351.7" x2="47.3" y2="344.6"/>
			<line class="st6" x1="982.1" y1="344.6" x2="962.6" y2="351.7"/>
			<polyline class="st4" points="947.7,264.7 945.5,266 927.5,276.4 918.5,281.5 			"/>
			<polyline class="st4" points="782.6,50.7 778.5,57.6 746,113.8 			"/>
			<line class="st5" x1="684.8" y1="47.3" x2="677.7" y2="66.8"/>
			<line class="st5" x1="601.1" y1="24.9" x2="597.5" y2="45.3"/>
		</g>
		<polygon class="st7" points="514.7,48.4 537.9,18.1 491.5,18.1 		"/>
		<g>
			<path class="st8" d="M484.6,9 M585,140.6 M544.8,9 M444.4,140.6"/>
		</g>
		<polygon class="st7" points="514.7,48.4 537.9,18.1 491.5,18.1 		"/>
	</g>
</g>
</svg>
