<?xml version="1.0" encoding="utf-8"?>
<!-- Generator: Adobe Illustrator 25.4.1, SVG Export Plug-In . SVG Version: 6.00 Build 0)  -->
<svg version="1.1" id="Layer_1" xmlns="http://www.w3.org/2000/svg" xmlns:xlink="http://www.w3.org/1999/xlink" x="0px" y="0px"
	 viewBox="0 0 1000 1000" style="enable-background:new 0 0 1000 1000;" xml:space="preserve">
<style type="text/css">
	.st0{fill:none;stroke:#231F20;stroke-width:2.5;stroke-linecap:round;stroke-miterlimit:10;}
	.st1{fill:#231F20;}
	.st2{fill:none;}
	.st3{fill:none;stroke:#231F20;stroke-width:5;stroke-linecap:round;stroke-miterlimit:10;}
</style>
<g>
	<polyline class="st0" points="170.3,185 162.9,177.6 148.3,163 146.4,161.1 	"/>
	<polygon class="st1" points="500,48.4 519.4,14.7 480.6,14.7 	"/>
	<line class="st0" x1="417.2" y1="45.3" x2="413.6" y2="24.9"/>
	<line class="st0" x1="337" y1="66.8" x2="329.9" y2="47.3"/>
	<polyline class="st0" points="266.8,110.9 261.7,101.9 251.3,83.9 250,81.7 	"/>
	<polyline class="st0" points="96.2,281.5 87.2,276.4 69.2,266 67,264.7 	"/>
	<line class="st2" x1="52.1" y1="351.7" x2="32.6" y2="344.6"/>
	<line class="st2" x1="967.4" y1="344.6" x2="947.9" y2="351.7"/>
	<polyline class="st0" points="933,264.7 930.8,266 912.8,276.4 903.8,281.5 	"/>
	<polyline class="st0" points="750,81.7 748.7,83.9 738.3,101.9 733.2,110.9 	"/>
	<line class="st0" x1="670.1" y1="47.3" x2="663" y2="66.8"/>
	<line class="st0" x1="586.4" y1="24.9" x2="582.8" y2="45.3"/>
	<polygon class="st1" points="500,48.4 519.4,14.7 480.6,14.7 	"/>
	<polyline class="st0" points="853.5,161.1 851.7,163 837.1,177.6 829.7,185 	"/>
	<line class="st0" x1="417.2" y1="45.3" x2="413.6" y2="24.9"/>
	<line class="st0" x1="337" y1="66.8" x2="329.9" y2="47.3"/>
	<polyline class="st3" points="266.8,110.9 261.7,101.9 251.3,83.9 250,81.7 	"/>
	<polyline class="st0" points="96.2,281.5 87.2,276.4 69.2,266 67,264.7 	"/>
	<line class="st2" x1="52.1" y1="351.7" x2="32.6" y2="344.6"/>
	<line class="st2" x1="967.4" y1="344.6" x2="947.9" y2="351.7"/>
	<polyline class="st0" points="933,264.7 930.8,266 912.8,276.4 903.8,281.5 	"/>
	<polyline class="st3" points="750,81.7 748.7,83.9 738.3,101.9 733.2,110.9 	"/>
	<line class="st0" x1="670.1" y1="47.3" x2="663" y2="66.8"/>
	<line class="st0" x1="586.4" y1="24.9" x2="582.8" y2="45.3"/>
</g>
</svg>
