<svg xmlns="http://www.w3.org/2000/svg" viewBox="0 0 1029.4 1029.4"><defs><style>.cls-1,.cls-2,.cls-4,.cls-5{fill:none;}.cls-1,.cls-4,.cls-5{stroke:#231f20;stroke-miterlimit:10;}.cls-1,.cls-4{stroke-linecap:round;}.cls-1{stroke-width:2.5px;}.cls-3{fill:#231f20;}.cls-4{stroke-width:5px;}.cls-5{stroke-width:12.5px;}</style></defs><g id="EXPORT"><polyline class="cls-1" points="184.96 184.96 177.63 177.63 162.98 162.98 161.15 161.15"/><polyline class="cls-2" points="868.25 868.25 866.42 866.42 851.77 851.77 844.44 844.44"/><polyline class="cls-2" points="184.96 844.44 177.63 851.77 162.98 866.42 161.15 868.25"/><polygon class="cls-3" points="514.7 48.38 534.14 14.7 495.26 14.7 514.7 48.38"/><line class="cls-1" x1="431.93" y1="45.26" x2="428.33" y2="24.85"/><line class="cls-2" x1="601.07" y1="1004.55" x2="597.48" y2="984.14"/><line class="cls-1" x1="351.67" y1="66.76" x2="344.58" y2="47.29"/><line class="cls-2" x1="684.82" y1="982.11" x2="677.74" y2="962.64"/><polyline class="cls-1" points="281.54 110.86 276.36 101.88 266 83.93 264.7 81.69"/><polyline class="cls-2" points="764.7 947.71 763.4 945.47 753.04 927.52 747.86 918.55"/><polyline class="cls-1" points="110.86 281.54 101.88 276.36 83.93 266 81.69 264.7"/><polyline class="cls-2" points="947.71 764.7 945.47 763.4 927.52 753.04 918.55 747.86"/><line class="cls-2" x1="66.76" y1="351.67" x2="47.29" y2="344.58"/><line class="cls-2" x1="982.11" y1="684.82" x2="962.64" y2="677.74"/><line class="cls-2" x1="45.26" y1="431.93" x2="24.85" y2="428.33"/><line class="cls-2" x1="1004.55" y1="601.07" x2="984.14" y2="597.48"/><polyline class="cls-2" points="1014.7 514.7 1012.11 514.7 991.38 514.7 981.02 514.7"/><line class="cls-2" x1="45.26" y1="597.48" x2="24.85" y2="601.07"/><line class="cls-2" x1="1004.55" y1="428.33" x2="984.14" y2="431.93"/><line class="cls-2" x1="66.76" y1="677.74" x2="47.29" y2="684.82"/><line class="cls-2" x1="982.11" y1="344.58" x2="962.64" y2="351.67"/><polyline class="cls-2" points="110.86 747.86 101.88 753.04 83.93 763.4 81.69 764.7"/><polyline class="cls-1" points="947.71 264.7 945.47 266 927.52 276.36 918.55 281.54"/><polyline class="cls-2" points="281.54 918.55 276.36 927.52 266 945.47 264.7 947.71"/><polyline class="cls-1" points="764.7 81.69 763.4 83.93 753.04 101.88 747.86 110.86"/><line class="cls-2" x1="351.67" y1="962.64" x2="344.58" y2="982.11"/><line class="cls-1" x1="684.82" y1="47.29" x2="677.74" y2="66.76"/><line class="cls-2" x1="431.93" y1="984.14" x2="428.33" y2="1004.55"/><line class="cls-1" x1="601.07" y1="24.85" x2="597.48" y2="45.26"/><polyline class="cls-2" points="868.25 868.25 866.42 866.42 851.77 851.77 844.44 844.44"/><polyline class="cls-2" points="184.96 844.44 177.63 851.77 162.98 866.42 161.15 868.25"/><polygon class="cls-3" points="514.7 48.38 534.14 14.7 495.26 14.7 514.7 48.38"/><polyline class="cls-1" points="868.25 161.15 866.42 162.98 851.77 177.63 844.44 184.96"/><line class="cls-1" x1="431.93" y1="45.26" x2="428.33" y2="24.85"/><line class="cls-2" x1="601.07" y1="1004.55" x2="597.48" y2="984.14"/><line class="cls-1" x1="351.67" y1="66.76" x2="344.58" y2="47.29"/><line class="cls-2" x1="684.82" y1="982.11" x2="677.74" y2="962.64"/><polyline class="cls-4" points="281.54 110.86 276.36 101.88 266 83.93 264.7 81.69"/><polyline class="cls-2" points="764.7 947.71 763.4 945.47 753.04 927.52 747.86 918.55"/><polyline class="cls-1" points="110.86 281.54 101.88 276.36 83.93 266 81.69 264.7"/><polyline class="cls-2" points="947.71 764.7 945.47 763.4 927.52 753.04 918.55 747.86"/><line class="cls-2" x1="66.76" y1="351.67" x2="47.29" y2="344.58"/><line class="cls-2" x1="982.11" y1="684.82" x2="962.64" y2="677.74"/><line class="cls-2" x1="45.26" y1="431.93" x2="24.85" y2="428.33"/><line class="cls-2" x1="1004.55" y1="601.07" x2="984.14" y2="597.48"/><polyline class="cls-2" points="1014.7 514.7 1012.11 514.7 991.38 514.7 981.02 514.7"/><line class="cls-2" x1="45.26" y1="597.48" x2="24.85" y2="601.07"/><line class="cls-2" x1="1004.55" y1="428.33" x2="984.14" y2="431.93"/><line class="cls-2" x1="66.76" y1="677.74" x2="47.29" y2="684.82"/><line class="cls-2" x1="982.11" y1="344.58" x2="962.64" y2="351.67"/><polyline class="cls-2" points="110.86 747.86 101.88 753.04 83.93 763.4 81.69 764.7"/><polyline class="cls-1" points="947.71 264.7 945.47 266 927.52 276.36 918.55 281.54"/><polyline class="cls-2" points="281.54 918.55 276.36 927.52 266 945.47 264.7 947.71"/><polyline class="cls-4" points="764.7 81.69 763.4 83.93 753.04 101.88 747.86 110.86"/><line class="cls-2" x1="351.67" y1="962.64" x2="344.58" y2="982.11"/><line class="cls-1" x1="684.82" y1="47.29" x2="677.74" y2="66.76"/><line class="cls-2" x1="431.93" y1="984.14" x2="428.33" y2="1004.55"/><line class="cls-1" x1="601.07" y1="24.85" x2="597.48" y2="45.26"/><polyline class="cls-5" points="788.03 514.7 636.37 514.7 636.37 549.7"/><polyline class="cls-5" points="241.37 514.7 393.03 514.7 393.03 549.7"/><polygon class="cls-4" points="844.78 485.9 804.78 514.7 844.78 543.5 997 543.5 997 485.9 844.78 485.9"/><polygon class="cls-4" points="184.62 543.5 224.62 514.7 184.62 485.9 32.4 485.9 32.4 543.5 184.62 543.5"/><rect class="cls-3" x="504.7" y="504.7" width="20" height="20"/><path class="cls-3" d="M522.2,507.2v15h-15v-15h15m5-5h-25v25h25v-25Z"/></g></svg>