<svg xmlns="http://www.w3.org/2000/svg" viewBox="0 0 1029.4 1029.4"><defs><style>.cls-1{font-size:42px;fill:#231f20;font-family:IBMPlexMono, IBM Plex Mono;}.cls-2,.cls-3{fill:none;stroke-miterlimit:10;stroke-width:2.5px;}.cls-2{stroke:#231f20;stroke-linecap:round;}.cls-3{stroke:#000;}</style></defs><g id="EXPORT"><text class="cls-1" transform="translate(502.1 96.22)">N</text><text class="cls-1" transform="translate(417.22 106.95) rotate(-10)">35</text><text class="cls-1" transform="translate(347.8 128.99) rotate(-20)">34</text><text class="cls-1" transform="matrix(0.87, -0.5, 0.5, 0.87, 283.51, 163.4)">33</text><text class="cls-1" transform="matrix(0.77, -0.64, 0.64, 0.77, 226.27, 208.84)">32</text><text class="cls-1" transform="matrix(0.64, -0.77, 0.77, 0.64, 177.8, 263.53)">31</text><text class="cls-1" transform="matrix(0.5, -0.87, 0.87, 0.5, 139.55, 325.8)">30</text><text class="cls-1" transform="translate(112.71 393.77) rotate(-70)">29</text><text class="cls-1" transform="translate(98.47 465.33) rotate(-80)">28</text><text class="cls-1" transform="translate(97.57 525.69) rotate(-90)">W</text><text class="cls-1" transform="translate(108.3 610.58) rotate(-100)">26</text><text class="cls-1" transform="translate(130.34 679.99) rotate(-110)">25</text><text class="cls-1" transform="matrix(-0.5, -0.87, 0.87, -0.5, 164.75, 744.28)">24</text><text class="cls-1" transform="matrix(-0.64, -0.77, 0.77, -0.64, 210.19, 801.52)">23</text><text class="cls-1" transform="matrix(-0.77, -0.64, 0.64, -0.77, 264.88, 849.99)">22</text><text class="cls-1" transform="matrix(-0.87, -0.5, 0.5, -0.87, 327.15, 888.24)">21</text><text class="cls-1" transform="translate(395.12 915.08) rotate(-160)">20</text><text class="cls-1" transform="translate(466.68 929.32) rotate(-170)">19</text><text class="cls-1" transform="translate(527.04 930.22) rotate(180)">S</text><text class="cls-1" transform="translate(611.93 919.49) rotate(170)">17</text><text class="cls-1" transform="translate(681.35 897.45) rotate(160)">16</text><text class="cls-1" transform="matrix(-0.87, 0.5, -0.5, -0.87, 745.63, 863.04)">15</text><text class="cls-1" transform="matrix(-0.77, 0.64, -0.64, -0.77, 802.87, 817.6)">14</text><text class="cls-1" transform="matrix(-0.64, 0.77, -0.77, -0.64, 851.35, 762.91)">13</text><text class="cls-1" transform="matrix(-0.5, 0.87, -0.87, -0.5, 889.59, 700.64)">12</text><text class="cls-1" transform="translate(916.43 632.67) rotate(110)">11</text><text class="cls-1" transform="translate(930.68 561.11) rotate(100)">10</text><text class="cls-1" transform="translate(931.57 500.75) rotate(90)">E</text><text class="cls-1" transform="translate(923.03 428.24) rotate(80)">8</text><text class="cls-1" transform="translate(903.32 358.21) rotate(70)">7</text><text class="cls-1" transform="matrix(0.5, 0.87, -0.87, 0.5, 870.88, 292.96)">6</text><text class="cls-1" transform="matrix(0.64, 0.77, -0.77, 0.64, 827.22, 234.43)">5</text><text class="cls-1" transform="matrix(0.77, 0.64, -0.64, 0.77, 774.06, 184.38)">4</text><text class="cls-1" transform="matrix(0.87, 0.5, -0.5, 0.87, 713.01, 144.31)">3</text><text class="cls-1" transform="translate(645.94 115.46) rotate(20)">2</text><text class="cls-1" transform="translate(574.9 99.3) rotate(10)">1</text><polyline class="cls-2" points="514.7 48.38 514.7 38.02 514.7 17.29 514.7 14.7"/><polyline class="cls-2" points="514.7 1014.7 514.7 1012.11 514.7 991.38 514.7 981.02"/><polyline class="cls-2" points="433.73 55.46 431.93 45.26 428.33 24.85 427.88 22.3"/><polyline class="cls-2" points="601.52 1007.1 601.08 1004.55 597.48 984.14 595.68 973.94"/><polyline class="cls-2" points="355.21 76.5 351.67 66.76 344.58 47.29 343.69 44.85"/><polyline class="cls-2" points="685.71 984.55 684.83 982.11 677.74 962.64 674.19 952.9"/><polyline class="cls-2" points="281.54 110.86 276.36 101.88 266 83.93 264.7 81.69"/><polyline class="cls-2" points="764.7 947.71 763.4 945.47 753.04 927.52 747.86 918.55"/><polyline class="cls-2" points="214.96 157.48 208.29 149.54 194.97 133.66 193.31 131.68"/><polyline class="cls-2" points="836.09 897.72 834.43 895.74 821.11 879.86 814.45 871.92"/><polyline class="cls-2" points="157.48 214.96 149.54 208.29 133.66 194.97 131.68 193.31"/><polyline class="cls-2" points="897.72 836.09 895.74 834.43 879.86 821.11 871.92 814.45"/><polyline class="cls-2" points="110.86 281.54 101.88 276.36 83.93 266 81.69 264.7"/><polyline class="cls-2" points="947.71 764.7 945.47 763.4 927.52 753.04 918.55 747.86"/><polyline class="cls-2" points="76.5 355.21 66.76 351.67 47.29 344.58 44.85 343.69"/><polyline class="cls-2" points="984.55 685.71 982.11 684.83 962.64 677.74 952.9 674.19"/><polyline class="cls-2" points="55.46 433.73 45.26 431.93 24.85 428.33 22.3 427.88"/><polyline class="cls-2" points="1007.1 601.52 1004.55 601.08 984.14 597.48 973.94 595.68"/><polyline class="cls-2" points="48.38 514.7 38.02 514.7 17.29 514.7 14.7 514.7"/><polyline class="cls-2" points="1014.7 514.7 1012.11 514.7 991.38 514.7 981.02 514.7"/><polyline class="cls-2" points="55.46 595.68 45.26 597.48 24.85 601.08 22.3 601.52"/><polyline class="cls-2" points="1007.1 427.88 1004.55 428.33 984.14 431.93 973.94 433.73"/><polyline class="cls-2" points="76.5 674.19 66.76 677.74 47.29 684.83 44.85 685.71"/><polyline class="cls-2" points="984.55 343.69 982.11 344.58 962.64 351.67 952.9 355.21"/><polyline class="cls-2" points="110.86 747.86 101.88 753.04 83.93 763.4 81.69 764.7"/><polyline class="cls-2" points="947.71 264.7 945.47 266 927.52 276.36 918.55 281.54"/><polyline class="cls-2" points="157.48 814.45 149.54 821.11 133.66 834.43 131.68 836.09"/><polyline class="cls-2" points="897.72 193.31 895.74 194.97 879.86 208.29 871.92 214.96"/><polyline class="cls-2" points="214.96 871.92 208.29 879.86 194.97 895.74 193.31 897.72"/><polyline class="cls-2" points="836.09 131.68 834.43 133.66 821.11 149.54 814.45 157.48"/><polyline class="cls-2" points="281.54 918.55 276.36 927.52 266 945.47 264.7 947.71"/><polyline class="cls-2" points="764.7 81.69 763.4 83.93 753.04 101.88 747.86 110.86"/><polyline class="cls-2" points="355.21 952.9 351.67 962.64 344.58 982.11 343.69 984.55"/><polyline class="cls-2" points="685.71 44.85 684.83 47.29 677.74 66.76 674.19 76.5"/><polyline class="cls-2" points="433.73 973.94 431.93 984.14 428.33 1004.55 427.88 1007.1"/><polyline class="cls-2" points="601.52 22.3 601.08 24.85 597.48 45.26 595.68 55.46"/><line class="cls-3" x1="473.15" y1="39.83" x2="471.35" y2="19.18"/><line class="cls-3" x1="558.05" y1="1010.22" x2="556.25" y2="989.57"/><line class="cls-3" x1="391.33" y1="54.26" x2="385.96" y2="34.24"/><line class="cls-3" x1="643.44" y1="995.16" x2="638.08" y2="975.14"/><line class="cls-3" x1="313.25" y1="82.68" x2="304.49" y2="63.89"/><line class="cls-3" x1="724.91" y1="965.51" x2="716.16" y2="946.72"/><line class="cls-3" x1="241.29" y1="124.22" x2="229.4" y2="107.25"/><line class="cls-3" x1="800" y1="922.15" x2="788.12" y2="905.18"/><line class="cls-3" x1="177.63" y1="177.63" x2="162.98" y2="162.98"/><line class="cls-3" x1="866.42" y1="866.42" x2="851.77" y2="851.77"/><line class="cls-3" x1="124.22" y1="241.29" x2="107.25" y2="229.4"/><line class="cls-3" x1="922.15" y1="800" x2="905.18" y2="788.12"/><line class="cls-3" x1="82.68" y1="313.25" x2="63.89" y2="304.49"/><line class="cls-3" x1="965.51" y1="724.91" x2="946.72" y2="716.16"/><line class="cls-3" x1="54.26" y1="391.33" x2="34.24" y2="385.96"/><line class="cls-3" x1="995.16" y1="643.44" x2="975.14" y2="638.08"/><line class="cls-3" x1="39.83" y1="473.15" x2="19.18" y2="471.35"/><line class="cls-3" x1="1010.22" y1="558.05" x2="989.57" y2="556.25"/><line class="cls-3" x1="39.83" y1="556.25" x2="19.18" y2="558.05"/><line class="cls-3" x1="1010.22" y1="471.35" x2="989.57" y2="473.15"/><line class="cls-3" x1="54.26" y1="638.08" x2="34.24" y2="643.44"/><line class="cls-3" x1="995.16" y1="385.96" x2="975.14" y2="391.33"/><line class="cls-3" x1="82.68" y1="716.16" x2="63.89" y2="724.91"/><line class="cls-3" x1="965.51" y1="304.49" x2="946.72" y2="313.25"/><line class="cls-3" x1="124.22" y1="788.12" x2="107.25" y2="800"/><line class="cls-3" x1="922.15" y1="229.4" x2="905.18" y2="241.29"/><line class="cls-3" x1="177.63" y1="851.77" x2="162.98" y2="866.42"/><line class="cls-3" x1="866.42" y1="162.98" x2="851.77" y2="177.63"/><line class="cls-3" x1="241.29" y1="905.18" x2="229.4" y2="922.15"/><line class="cls-3" x1="800" y1="107.25" x2="788.12" y2="124.22"/><line class="cls-3" x1="313.25" y1="946.72" x2="304.49" y2="965.51"/><line class="cls-3" x1="724.91" y1="63.89" x2="716.16" y2="82.68"/><line class="cls-3" x1="391.33" y1="975.14" x2="385.96" y2="995.16"/><line class="cls-3" x1="643.44" y1="34.24" x2="638.08" y2="54.26"/><line class="cls-3" x1="473.15" y1="989.57" x2="471.35" y2="1010.22"/><line class="cls-3" x1="558.05" y1="19.18" x2="556.25" y2="39.83"/><text/></g></svg>