<?xml version="1.0" encoding="utf-8"?>
<!-- Generator: Adobe Illustrator 25.4.1, SVG Export Plug-In . SVG Version: 6.00 Build 0)  -->
<svg version="1.1" id="Layer_1" xmlns="http://www.w3.org/2000/svg" xmlns:xlink="http://www.w3.org/1999/xlink" x="0px" y="0px"
	 viewBox="0 0 1029.4 1029.4" style="enable-background:new 0 0 1029.4 1029.4;" xml:space="preserve">
<style type="text/css">
	.st0{fill:none;}
	.st1{fill:#231F20;}
	.st2{fill:#FFFFFF;}
</style>
<g>
	<polyline class="st0" points="863.1,882.9 861.3,881.1 846.7,866.5 839.3,859.1 	"/>
	<polyline class="st0" points="179.9,859.1 172.5,866.5 157.9,881.1 156,882.9 	"/>
	<line class="st0" x1="596" y1="1019.2" x2="592.4" y2="998.8"/>
	<line class="st0" x1="679.7" y1="996.8" x2="672.6" y2="977.3"/>
	<polyline class="st0" points="759.6,962.4 758.3,960.2 747.9,942.2 742.8,933.2 	"/>
	<polyline class="st0" points="942.6,779.4 940.4,778.1 922.4,767.7 913.4,762.6 	"/>
	<line class="st0" x1="977" y1="699.5" x2="957.5" y2="692.4"/>
	<line class="st0" x1="40.2" y1="446.6" x2="19.8" y2="443"/>
	<line class="st0" x1="999.4" y1="615.8" x2="979" y2="612.2"/>
	<polyline class="st0" points="1009.6,529.4 1007,529.4 986.3,529.4 975.9,529.4 	"/>
	<line class="st0" x1="40.2" y1="612.2" x2="19.8" y2="615.8"/>
	<line class="st0" x1="999.4" y1="443" x2="979" y2="446.6"/>
	<line class="st0" x1="61.7" y1="692.4" x2="42.2" y2="699.5"/>
	<polyline class="st0" points="105.8,762.6 96.8,767.7 78.8,778.1 76.6,779.4 	"/>
	<polyline class="st0" points="276.4,933.2 271.3,942.2 260.9,960.2 259.6,962.4 	"/>
	<line class="st0" x1="346.6" y1="977.3" x2="339.5" y2="996.8"/>
	<line class="st0" x1="426.8" y1="998.8" x2="423.2" y2="1019.2"/>
	<polyline class="st0" points="863.1,882.9 861.3,881.1 846.7,866.5 839.3,859.1 	"/>
	<polyline class="st0" points="179.9,859.1 172.5,866.5 157.9,881.1 156,882.9 	"/>
	<line class="st0" x1="596" y1="1019.2" x2="592.4" y2="998.8"/>
	<line class="st0" x1="679.7" y1="996.8" x2="672.6" y2="977.3"/>
	<polyline class="st0" points="759.6,962.4 758.3,960.2 747.9,942.2 742.8,933.2 	"/>
	<polyline class="st0" points="942.6,779.4 940.4,778.1 922.4,767.7 913.4,762.6 	"/>
	<line class="st0" x1="977" y1="699.5" x2="957.5" y2="692.4"/>
	<line class="st0" x1="40.2" y1="446.6" x2="19.8" y2="443"/>
	<line class="st0" x1="999.4" y1="615.8" x2="979" y2="612.2"/>
	<polyline class="st0" points="1009.6,529.4 1007,529.4 986.3,529.4 975.9,529.4 	"/>
	<line class="st0" x1="40.2" y1="612.2" x2="19.8" y2="615.8"/>
	<line class="st0" x1="999.4" y1="443" x2="979" y2="446.6"/>
	<line class="st0" x1="61.7" y1="692.4" x2="42.2" y2="699.5"/>
	<polyline class="st0" points="105.8,762.6 96.8,767.7 78.8,778.1 76.6,779.4 	"/>
	<polyline class="st0" points="276.4,933.2 271.3,942.2 260.9,960.2 259.6,962.4 	"/>
	<line class="st0" x1="346.6" y1="977.3" x2="339.5" y2="996.8"/>
	<line class="st0" x1="426.8" y1="998.8" x2="423.2" y2="1019.2"/>
	<g>
		<g>
			<polygon class="st1" points="628.2,551.7 628.2,508.7 790,508.7 790,520.7 640.2,520.7 640.2,551.7 			"/>
			<path class="st2" d="M788,510.7v8H638.2v31h-8v-39H788 M792,506.7h-4H630.2h-4v4v39v4h4h8h4v-4v-27H788h4v-4v-8V506.7L792,506.7z
				"/>
		</g>
		<g>
			<polygon class="st1" points="389.2,551.7 389.2,520.7 239.4,520.7 239.4,508.7 401.2,508.7 401.2,551.7 			"/>
			<path class="st2" d="M399.2,510.7v39h-8v-31H241.4v-8H399.2 M403.2,506.7h-4H241.4h-4v4v8v4h4h145.9v27v4h4h8h4v-4v-39V506.7
				L403.2,506.7z"/>
		</g>
		<g>
			<polygon class="st1" points="844.2,545.5 801.4,514.7 844.2,483.9 999,483.9 999,545.5 			"/>
			<path class="st2" d="M997,485.9v57.6H844.8l-40-28.8l40-28.8H997 M1001,481.9h-4H844.8h-1.3l-1,0.8l-40,28.8l-4.5,3.2l4.5,3.2
				l40,28.8l1,0.8h1.3H997h4v-4v-57.6V481.9L1001,481.9z"/>
		</g>
		<g>
			<polygon class="st1" points="30.4,545.5 30.4,483.9 185.2,483.9 228,514.7 185.2,545.5 			"/>
			<path class="st2" d="M184.6,485.9l40,28.8l-40,28.8H32.4v-57.6H184.6 M185.9,481.9h-1.3H32.4h-4v4v57.6v4h4h152.2h1.3l1-0.8
				l40-28.8l4.5-3.2l-4.5-3.2l-40-28.8L185.9,481.9L185.9,481.9z"/>
		</g>
		<g>
			<rect x="500.2" y="500.2" class="st1" width="29" height="29"/>
			<path class="st2" d="M527.2,502.2v25h-25v-25H527.2 M531.2,498.2h-4h-25h-4v4v25v4h4h25h4v-4v-25V498.2L531.2,498.2z"/>
		</g>
		<g>
			<path d="M33.7,465.7l2-1.8c1.6,2,3.4,2.9,5.8,2.9c2.9,0,4.4-1.4,4.4-3.7c0-1.9-1-2.9-3.7-3.4l-2.3-0.4c-4-0.7-5.4-3-5.4-5.8
				c0-3.9,2.7-5.9,7.1-5.9c3.3,0,5.6,1.2,7,3.1l-1.9,1.8c-1.1-1.5-2.7-2.5-5.1-2.5c-2.7,0-4.1,1.1-4.1,3.4c0,1.8,0.9,2.9,3.7,3.4
				l2.2,0.4c4,0.7,5.4,2.9,5.4,5.8c0,3.9-2.7,6.3-7.5,6.3C37.6,469.3,35.2,467.8,33.7,465.7z"/>
			<path d="M53,468.9V448h7.7c3.9,0,6.1,2.3,6.1,6.1s-2.1,6.1-6.1,6.1h-4.8v8.6L53,468.9L53,468.9z M55.9,457.8h4.5
				c2.1,0,3.3-1,3.3-3v-1.4c0-1.9-1.2-3-3.3-3h-4.5V457.8z"/>
			<path d="M71,468.9V448h13v2.5H73.9v6.6h9.7v2.5h-9.7v6.9H84v2.5H71V468.9z"/>
			<path d="M89,468.9V448h13v2.5H91.9v6.6h9.7v2.5h-9.7v6.9H102v2.5H89V468.9z"/>
			<path d="M107.1,448h6c5.2,0,7.7,3.6,7.7,10.5c0,6.8-2.5,10.5-7.7,10.5h-6V448z M112.9,466.4c3.2,0,4.8-2.3,4.8-6.3v-3.4
				c0-4-1.6-6.3-4.8-6.3h-3v16L112.9,466.4L112.9,466.4z"/>
		</g>
		<g>
			<path d="M957.2,469l-1.7-5.8h-7l-1.7,5.8h-3l6.3-20.9h3.9l6.3,20.9H957.2z M952.1,451.1h-0.3l-2.8,9.7h5.8L952.1,451.1z"/>
			<path d="M964.5,469v-20.9h2.9v18.4h9.8v2.5H964.5z"/>
			<path d="M989.4,450.6V469h-2.9v-18.4h-6.8v-2.5h16.5v2.5H989.4z"/>
		</g>
		<g>
			<line class="st0" x1="491.8" y1="514.7" x2="537.6" y2="514.7"/>
		</g>
		<line class="st0" x1="514.7" y1="501" x2="514.7" y2="529.6"/>
	</g>
	<g>
		<path class="st2" d="M514.7,59.3l28,36.7h-56.1L514.7,59.3 M514.7,49.4L474.5,102h80.3L514.7,49.4L514.7,49.4z M554.8,109h-80.3
			v7.8h80.3V109L554.8,109z"/>
	</g>
</g>
</svg>
